%TF.GenerationSoftware,KiCad,Pcbnew,(5.1.5-0-10_14)*%
%TF.CreationDate,2020-10-24T19:52:31+02:00*%
%TF.ProjectId,c64board,63363462-6f61-4726-942e-6b696361645f,3.1*%
%TF.SameCoordinates,Original*%
%TF.FileFunction,Legend,Bot*%
%TF.FilePolarity,Positive*%
%FSLAX46Y46*%
G04 Gerber Fmt 4.6, Leading zero omitted, Abs format (unit mm)*
G04 Created by KiCad (PCBNEW (5.1.5-0-10_14)) date 2020-10-24 19:52:31*
%MOMM*%
%LPD*%
G04 APERTURE LIST*
%ADD10C,0.150000*%
%ADD11C,0.120000*%
G04 APERTURE END LIST*
D10*
X132000000Y-50500000D02*
G75*
G02X133500000Y-49000000I1500000J0D01*
G01*
X156000000Y-49000000D02*
G75*
G02X157500000Y-50500000I0J-1500000D01*
G01*
X157500000Y-67500000D02*
X158500000Y-68500000D01*
X157500000Y-65000000D02*
X157500000Y-67500000D01*
X157500000Y-50500000D02*
X157500000Y-65000000D01*
X158500000Y-79000000D02*
X176000000Y-79000000D01*
X158500000Y-79000000D02*
X158500000Y-68500000D01*
X133500000Y-49000000D02*
X156000000Y-49000000D01*
X132080000Y-106250000D02*
X176000000Y-106250000D01*
X142227380Y-74038095D02*
X143227380Y-74371428D01*
X142227380Y-74704761D01*
X143227380Y-75038095D02*
X142227380Y-75038095D01*
X143132142Y-76085714D02*
X143179761Y-76038095D01*
X143227380Y-75895238D01*
X143227380Y-75800000D01*
X143179761Y-75657142D01*
X143084523Y-75561904D01*
X142989285Y-75514285D01*
X142798809Y-75466666D01*
X142655952Y-75466666D01*
X142465476Y-75514285D01*
X142370238Y-75561904D01*
X142275000Y-75657142D01*
X142227380Y-75800000D01*
X142227380Y-75895238D01*
X142275000Y-76038095D01*
X142322619Y-76085714D01*
X143227380Y-77276190D02*
X142227380Y-77276190D01*
X143227380Y-77752380D02*
X142227380Y-77752380D01*
X142846428Y-78228571D02*
X142846428Y-78990476D01*
X142941666Y-79419047D02*
X142941666Y-79895238D01*
X143227380Y-79323809D02*
X142227380Y-79657142D01*
X143227380Y-79990476D01*
X143227380Y-80752380D02*
X142227380Y-80752380D01*
X143179761Y-80752380D02*
X143227380Y-80657142D01*
X143227380Y-80466666D01*
X143179761Y-80371428D01*
X143132142Y-80323809D01*
X143036904Y-80276190D01*
X142751190Y-80276190D01*
X142655952Y-80323809D01*
X142608333Y-80371428D01*
X142560714Y-80466666D01*
X142560714Y-80657142D01*
X142608333Y-80752380D01*
X143227380Y-81657142D02*
X142703571Y-81657142D01*
X142608333Y-81609523D01*
X142560714Y-81514285D01*
X142560714Y-81323809D01*
X142608333Y-81228571D01*
X143179761Y-81657142D02*
X143227380Y-81561904D01*
X143227380Y-81323809D01*
X143179761Y-81228571D01*
X143084523Y-81180952D01*
X142989285Y-81180952D01*
X142894047Y-81228571D01*
X142846428Y-81323809D01*
X142846428Y-81561904D01*
X142798809Y-81657142D01*
X142560714Y-82133333D02*
X143560714Y-82133333D01*
X142608333Y-82133333D02*
X142560714Y-82228571D01*
X142560714Y-82419047D01*
X142608333Y-82514285D01*
X142655952Y-82561904D01*
X142751190Y-82609523D01*
X143036904Y-82609523D01*
X143132142Y-82561904D01*
X143179761Y-82514285D01*
X143227380Y-82419047D01*
X143227380Y-82228571D01*
X143179761Y-82133333D01*
X142560714Y-82895238D02*
X142560714Y-83276190D01*
X142227380Y-83038095D02*
X143084523Y-83038095D01*
X143179761Y-83085714D01*
X143227380Y-83180952D01*
X143227380Y-83276190D01*
X143179761Y-83990476D02*
X143227380Y-83895238D01*
X143227380Y-83704761D01*
X143179761Y-83609523D01*
X143084523Y-83561904D01*
X142703571Y-83561904D01*
X142608333Y-83609523D01*
X142560714Y-83704761D01*
X142560714Y-83895238D01*
X142608333Y-83990476D01*
X142703571Y-84038095D01*
X142798809Y-84038095D01*
X142894047Y-83561904D01*
X143227380Y-84466666D02*
X142560714Y-84466666D01*
X142751190Y-84466666D02*
X142655952Y-84514285D01*
X142608333Y-84561904D01*
X142560714Y-84657142D01*
X142560714Y-84752380D01*
X143132142Y-86419047D02*
X143179761Y-86371428D01*
X143227380Y-86228571D01*
X143227380Y-86133333D01*
X143179761Y-85990476D01*
X143084523Y-85895238D01*
X142989285Y-85847619D01*
X142798809Y-85800000D01*
X142655952Y-85800000D01*
X142465476Y-85847619D01*
X142370238Y-85895238D01*
X142275000Y-85990476D01*
X142227380Y-86133333D01*
X142227380Y-86228571D01*
X142275000Y-86371428D01*
X142322619Y-86419047D01*
X142227380Y-87276190D02*
X142227380Y-87085714D01*
X142275000Y-86990476D01*
X142322619Y-86942857D01*
X142465476Y-86847619D01*
X142655952Y-86800000D01*
X143036904Y-86800000D01*
X143132142Y-86847619D01*
X143179761Y-86895238D01*
X143227380Y-86990476D01*
X143227380Y-87180952D01*
X143179761Y-87276190D01*
X143132142Y-87323809D01*
X143036904Y-87371428D01*
X142798809Y-87371428D01*
X142703571Y-87323809D01*
X142655952Y-87276190D01*
X142608333Y-87180952D01*
X142608333Y-86990476D01*
X142655952Y-86895238D01*
X142703571Y-86847619D01*
X142798809Y-86800000D01*
X142560714Y-88228571D02*
X143227380Y-88228571D01*
X142179761Y-87990476D02*
X142894047Y-87752380D01*
X142894047Y-88371428D01*
X142846428Y-88752380D02*
X142846428Y-89514285D01*
X143227380Y-89990476D02*
X142227380Y-89990476D01*
X142941666Y-90323809D01*
X142227380Y-90657142D01*
X143227380Y-90657142D01*
X143227380Y-91276190D02*
X143179761Y-91180952D01*
X143132142Y-91133333D01*
X143036904Y-91085714D01*
X142751190Y-91085714D01*
X142655952Y-91133333D01*
X142608333Y-91180952D01*
X142560714Y-91276190D01*
X142560714Y-91419047D01*
X142608333Y-91514285D01*
X142655952Y-91561904D01*
X142751190Y-91609523D01*
X143036904Y-91609523D01*
X143132142Y-91561904D01*
X143179761Y-91514285D01*
X143227380Y-91419047D01*
X143227380Y-91276190D01*
X143227380Y-92466666D02*
X142227380Y-92466666D01*
X143179761Y-92466666D02*
X143227380Y-92371428D01*
X143227380Y-92180952D01*
X143179761Y-92085714D01*
X143132142Y-92038095D01*
X143036904Y-91990476D01*
X142751190Y-91990476D01*
X142655952Y-92038095D01*
X142608333Y-92085714D01*
X142560714Y-92180952D01*
X142560714Y-92371428D01*
X142608333Y-92466666D01*
X142560714Y-93371428D02*
X143227380Y-93371428D01*
X142560714Y-92942857D02*
X143084523Y-92942857D01*
X143179761Y-92990476D01*
X143227380Y-93085714D01*
X143227380Y-93228571D01*
X143179761Y-93323809D01*
X143132142Y-93371428D01*
X143227380Y-93990476D02*
X143179761Y-93895238D01*
X143084523Y-93847619D01*
X142227380Y-93847619D01*
X143227380Y-94800000D02*
X142703571Y-94800000D01*
X142608333Y-94752380D01*
X142560714Y-94657142D01*
X142560714Y-94466666D01*
X142608333Y-94371428D01*
X143179761Y-94800000D02*
X143227380Y-94704761D01*
X143227380Y-94466666D01*
X143179761Y-94371428D01*
X143084523Y-94323809D01*
X142989285Y-94323809D01*
X142894047Y-94371428D01*
X142846428Y-94466666D01*
X142846428Y-94704761D01*
X142798809Y-94800000D01*
X142560714Y-95133333D02*
X142560714Y-95514285D01*
X142227380Y-95276190D02*
X143084523Y-95276190D01*
X143179761Y-95323809D01*
X143227380Y-95419047D01*
X143227380Y-95514285D01*
X143227380Y-95990476D02*
X143179761Y-95895238D01*
X143132142Y-95847619D01*
X143036904Y-95800000D01*
X142751190Y-95800000D01*
X142655952Y-95847619D01*
X142608333Y-95895238D01*
X142560714Y-95990476D01*
X142560714Y-96133333D01*
X142608333Y-96228571D01*
X142655952Y-96276190D01*
X142751190Y-96323809D01*
X143036904Y-96323809D01*
X143132142Y-96276190D01*
X143179761Y-96228571D01*
X143227380Y-96133333D01*
X143227380Y-95990476D01*
X143227380Y-96752380D02*
X142560714Y-96752380D01*
X142751190Y-96752380D02*
X142655952Y-96800000D01*
X142608333Y-96847619D01*
X142560714Y-96942857D01*
X142560714Y-97038095D01*
X143227380Y-98704761D02*
X142751190Y-98371428D01*
X143227380Y-98133333D02*
X142227380Y-98133333D01*
X142227380Y-98514285D01*
X142275000Y-98609523D01*
X142322619Y-98657142D01*
X142417857Y-98704761D01*
X142560714Y-98704761D01*
X142655952Y-98657142D01*
X142703571Y-98609523D01*
X142751190Y-98514285D01*
X142751190Y-98133333D01*
X143179761Y-99514285D02*
X143227380Y-99419047D01*
X143227380Y-99228571D01*
X143179761Y-99133333D01*
X143084523Y-99085714D01*
X142703571Y-99085714D01*
X142608333Y-99133333D01*
X142560714Y-99228571D01*
X142560714Y-99419047D01*
X142608333Y-99514285D01*
X142703571Y-99561904D01*
X142798809Y-99561904D01*
X142894047Y-99085714D01*
X142560714Y-99895238D02*
X143227380Y-100133333D01*
X142560714Y-100371428D01*
X142227380Y-101419047D02*
X142227380Y-102038095D01*
X142608333Y-101704761D01*
X142608333Y-101847619D01*
X142655952Y-101942857D01*
X142703571Y-101990476D01*
X142798809Y-102038095D01*
X143036904Y-102038095D01*
X143132142Y-101990476D01*
X143179761Y-101942857D01*
X143227380Y-101847619D01*
X143227380Y-101561904D01*
X143179761Y-101466666D01*
X143132142Y-101419047D01*
X143132142Y-102466666D02*
X143179761Y-102514285D01*
X143227380Y-102466666D01*
X143179761Y-102419047D01*
X143132142Y-102466666D01*
X143227380Y-102466666D01*
X143227380Y-103466666D02*
X143227380Y-102895238D01*
X143227380Y-103180952D02*
X142227380Y-103180952D01*
X142370238Y-103085714D01*
X142465476Y-102990476D01*
X142513095Y-102895238D01*
X144877380Y-73871428D02*
X143877380Y-73871428D01*
X143877380Y-74109523D01*
X143925000Y-74252380D01*
X144020238Y-74347619D01*
X144115476Y-74395238D01*
X144305952Y-74442857D01*
X144448809Y-74442857D01*
X144639285Y-74395238D01*
X144734523Y-74347619D01*
X144829761Y-74252380D01*
X144877380Y-74109523D01*
X144877380Y-73871428D01*
X144829761Y-75252380D02*
X144877380Y-75157142D01*
X144877380Y-74966666D01*
X144829761Y-74871428D01*
X144734523Y-74823809D01*
X144353571Y-74823809D01*
X144258333Y-74871428D01*
X144210714Y-74966666D01*
X144210714Y-75157142D01*
X144258333Y-75252380D01*
X144353571Y-75300000D01*
X144448809Y-75300000D01*
X144544047Y-74823809D01*
X144829761Y-75680952D02*
X144877380Y-75776190D01*
X144877380Y-75966666D01*
X144829761Y-76061904D01*
X144734523Y-76109523D01*
X144686904Y-76109523D01*
X144591666Y-76061904D01*
X144544047Y-75966666D01*
X144544047Y-75823809D01*
X144496428Y-75728571D01*
X144401190Y-75680952D01*
X144353571Y-75680952D01*
X144258333Y-75728571D01*
X144210714Y-75823809D01*
X144210714Y-75966666D01*
X144258333Y-76061904D01*
X144877380Y-76538095D02*
X144210714Y-76538095D01*
X143877380Y-76538095D02*
X143925000Y-76490476D01*
X143972619Y-76538095D01*
X143925000Y-76585714D01*
X143877380Y-76538095D01*
X143972619Y-76538095D01*
X144210714Y-77442857D02*
X145020238Y-77442857D01*
X145115476Y-77395238D01*
X145163095Y-77347619D01*
X145210714Y-77252380D01*
X145210714Y-77109523D01*
X145163095Y-77014285D01*
X144829761Y-77442857D02*
X144877380Y-77347619D01*
X144877380Y-77157142D01*
X144829761Y-77061904D01*
X144782142Y-77014285D01*
X144686904Y-76966666D01*
X144401190Y-76966666D01*
X144305952Y-77014285D01*
X144258333Y-77061904D01*
X144210714Y-77157142D01*
X144210714Y-77347619D01*
X144258333Y-77442857D01*
X144210714Y-77919047D02*
X144877380Y-77919047D01*
X144305952Y-77919047D02*
X144258333Y-77966666D01*
X144210714Y-78061904D01*
X144210714Y-78204761D01*
X144258333Y-78300000D01*
X144353571Y-78347619D01*
X144877380Y-78347619D01*
X144829761Y-80014285D02*
X144877380Y-79919047D01*
X144877380Y-79728571D01*
X144829761Y-79633333D01*
X144782142Y-79585714D01*
X144686904Y-79538095D01*
X144401190Y-79538095D01*
X144305952Y-79585714D01*
X144258333Y-79633333D01*
X144210714Y-79728571D01*
X144210714Y-79919047D01*
X144258333Y-80014285D01*
X143877380Y-80633333D02*
X143877380Y-80728571D01*
X143925000Y-80823809D01*
X143972619Y-80871428D01*
X144067857Y-80919047D01*
X144258333Y-80966666D01*
X144496428Y-80966666D01*
X144686904Y-80919047D01*
X144782142Y-80871428D01*
X144829761Y-80823809D01*
X144877380Y-80728571D01*
X144877380Y-80633333D01*
X144829761Y-80538095D01*
X144782142Y-80490476D01*
X144686904Y-80442857D01*
X144496428Y-80395238D01*
X144258333Y-80395238D01*
X144067857Y-80442857D01*
X143972619Y-80490476D01*
X143925000Y-80538095D01*
X143877380Y-80633333D01*
X144210714Y-81395238D02*
X145210714Y-81395238D01*
X144258333Y-81395238D02*
X144210714Y-81490476D01*
X144210714Y-81680952D01*
X144258333Y-81776190D01*
X144305952Y-81823809D01*
X144401190Y-81871428D01*
X144686904Y-81871428D01*
X144782142Y-81823809D01*
X144829761Y-81776190D01*
X144877380Y-81680952D01*
X144877380Y-81490476D01*
X144829761Y-81395238D01*
X144210714Y-82300000D02*
X145210714Y-82300000D01*
X144258333Y-82300000D02*
X144210714Y-82395238D01*
X144210714Y-82585714D01*
X144258333Y-82680952D01*
X144305952Y-82728571D01*
X144401190Y-82776190D01*
X144686904Y-82776190D01*
X144782142Y-82728571D01*
X144829761Y-82680952D01*
X144877380Y-82585714D01*
X144877380Y-82395238D01*
X144829761Y-82300000D01*
X144829761Y-83585714D02*
X144877380Y-83490476D01*
X144877380Y-83300000D01*
X144829761Y-83204761D01*
X144734523Y-83157142D01*
X144353571Y-83157142D01*
X144258333Y-83204761D01*
X144210714Y-83300000D01*
X144210714Y-83490476D01*
X144258333Y-83585714D01*
X144353571Y-83633333D01*
X144448809Y-83633333D01*
X144544047Y-83157142D01*
X144877380Y-84061904D02*
X144210714Y-84061904D01*
X144401190Y-84061904D02*
X144305952Y-84109523D01*
X144258333Y-84157142D01*
X144210714Y-84252380D01*
X144210714Y-84347619D01*
X144877380Y-85109523D02*
X143877380Y-85109523D01*
X144829761Y-85109523D02*
X144877380Y-85014285D01*
X144877380Y-84823809D01*
X144829761Y-84728571D01*
X144782142Y-84680952D01*
X144686904Y-84633333D01*
X144401190Y-84633333D01*
X144305952Y-84680952D01*
X144258333Y-84728571D01*
X144210714Y-84823809D01*
X144210714Y-85014285D01*
X144258333Y-85109523D01*
X144877380Y-85585714D02*
X144210714Y-85585714D01*
X144401190Y-85585714D02*
X144305952Y-85633333D01*
X144258333Y-85680952D01*
X144210714Y-85776190D01*
X144210714Y-85871428D01*
X144877380Y-86633333D02*
X144353571Y-86633333D01*
X144258333Y-86585714D01*
X144210714Y-86490476D01*
X144210714Y-86300000D01*
X144258333Y-86204761D01*
X144829761Y-86633333D02*
X144877380Y-86538095D01*
X144877380Y-86300000D01*
X144829761Y-86204761D01*
X144734523Y-86157142D01*
X144639285Y-86157142D01*
X144544047Y-86204761D01*
X144496428Y-86300000D01*
X144496428Y-86538095D01*
X144448809Y-86633333D01*
X144210714Y-87538095D02*
X145020238Y-87538095D01*
X145115476Y-87490476D01*
X145163095Y-87442857D01*
X145210714Y-87347619D01*
X145210714Y-87204761D01*
X145163095Y-87109523D01*
X144829761Y-87538095D02*
X144877380Y-87442857D01*
X144877380Y-87252380D01*
X144829761Y-87157142D01*
X144782142Y-87109523D01*
X144686904Y-87061904D01*
X144401190Y-87061904D01*
X144305952Y-87109523D01*
X144258333Y-87157142D01*
X144210714Y-87252380D01*
X144210714Y-87442857D01*
X144258333Y-87538095D01*
X144877380Y-88157142D02*
X144829761Y-88061904D01*
X144782142Y-88014285D01*
X144686904Y-87966666D01*
X144401190Y-87966666D01*
X144305952Y-88014285D01*
X144258333Y-88061904D01*
X144210714Y-88157142D01*
X144210714Y-88300000D01*
X144258333Y-88395238D01*
X144305952Y-88442857D01*
X144401190Y-88490476D01*
X144686904Y-88490476D01*
X144782142Y-88442857D01*
X144829761Y-88395238D01*
X144877380Y-88300000D01*
X144877380Y-88157142D01*
X144210714Y-88919047D02*
X144877380Y-88919047D01*
X144305952Y-88919047D02*
X144258333Y-88966666D01*
X144210714Y-89061904D01*
X144210714Y-89204761D01*
X144258333Y-89300000D01*
X144353571Y-89347619D01*
X144877380Y-89347619D01*
X144829761Y-89871428D02*
X144877380Y-89871428D01*
X144972619Y-89823809D01*
X145020238Y-89776190D01*
X144877380Y-91538095D02*
X144877380Y-91061904D01*
X143877380Y-91061904D01*
X144877380Y-92300000D02*
X144353571Y-92300000D01*
X144258333Y-92252380D01*
X144210714Y-92157142D01*
X144210714Y-91966666D01*
X144258333Y-91871428D01*
X144829761Y-92300000D02*
X144877380Y-92204761D01*
X144877380Y-91966666D01*
X144829761Y-91871428D01*
X144734523Y-91823809D01*
X144639285Y-91823809D01*
X144544047Y-91871428D01*
X144496428Y-91966666D01*
X144496428Y-92204761D01*
X144448809Y-92300000D01*
X144210714Y-92680952D02*
X144877380Y-92919047D01*
X144210714Y-93157142D02*
X144877380Y-92919047D01*
X145115476Y-92823809D01*
X145163095Y-92776190D01*
X145210714Y-92680952D01*
X144877380Y-93680952D02*
X144829761Y-93585714D01*
X144782142Y-93538095D01*
X144686904Y-93490476D01*
X144401190Y-93490476D01*
X144305952Y-93538095D01*
X144258333Y-93585714D01*
X144210714Y-93680952D01*
X144210714Y-93823809D01*
X144258333Y-93919047D01*
X144305952Y-93966666D01*
X144401190Y-94014285D01*
X144686904Y-94014285D01*
X144782142Y-93966666D01*
X144829761Y-93919047D01*
X144877380Y-93823809D01*
X144877380Y-93680952D01*
X144210714Y-94871428D02*
X144877380Y-94871428D01*
X144210714Y-94442857D02*
X144734523Y-94442857D01*
X144829761Y-94490476D01*
X144877380Y-94585714D01*
X144877380Y-94728571D01*
X144829761Y-94823809D01*
X144782142Y-94871428D01*
X144210714Y-95204761D02*
X144210714Y-95585714D01*
X143877380Y-95347619D02*
X144734523Y-95347619D01*
X144829761Y-95395238D01*
X144877380Y-95490476D01*
X144877380Y-95585714D01*
X143877380Y-96538095D02*
X143877380Y-97109523D01*
X144877380Y-96823809D02*
X143877380Y-96823809D01*
X144877380Y-97442857D02*
X143877380Y-97442857D01*
X144591666Y-97776190D01*
X143877380Y-98109523D01*
X144877380Y-98109523D01*
X143877380Y-98776190D02*
X143877380Y-98966666D01*
X143925000Y-99061904D01*
X144020238Y-99157142D01*
X144210714Y-99204761D01*
X144544047Y-99204761D01*
X144734523Y-99157142D01*
X144829761Y-99061904D01*
X144877380Y-98966666D01*
X144877380Y-98776190D01*
X144829761Y-98680952D01*
X144734523Y-98585714D01*
X144544047Y-98538095D01*
X144210714Y-98538095D01*
X144020238Y-98585714D01*
X143925000Y-98680952D01*
X143877380Y-98776190D01*
X143972619Y-100347619D02*
X143925000Y-100395238D01*
X143877380Y-100490476D01*
X143877380Y-100728571D01*
X143925000Y-100823809D01*
X143972619Y-100871428D01*
X144067857Y-100919047D01*
X144163095Y-100919047D01*
X144305952Y-100871428D01*
X144877380Y-100299999D01*
X144877380Y-100919047D01*
X143877380Y-101538095D02*
X143877380Y-101633333D01*
X143925000Y-101728571D01*
X143972619Y-101776190D01*
X144067857Y-101823809D01*
X144258333Y-101871428D01*
X144496428Y-101871428D01*
X144686904Y-101823809D01*
X144782142Y-101776190D01*
X144829761Y-101728571D01*
X144877380Y-101633333D01*
X144877380Y-101538095D01*
X144829761Y-101442857D01*
X144782142Y-101395238D01*
X144686904Y-101347619D01*
X144496428Y-101299999D01*
X144258333Y-101299999D01*
X144067857Y-101347619D01*
X143972619Y-101395238D01*
X143925000Y-101442857D01*
X143877380Y-101538095D01*
X143972619Y-102252380D02*
X143925000Y-102299999D01*
X143877380Y-102395238D01*
X143877380Y-102633333D01*
X143925000Y-102728571D01*
X143972619Y-102776190D01*
X144067857Y-102823809D01*
X144163095Y-102823809D01*
X144305952Y-102776190D01*
X144877380Y-102204761D01*
X144877380Y-102823809D01*
X143877380Y-103442857D02*
X143877380Y-103538095D01*
X143925000Y-103633333D01*
X143972619Y-103680952D01*
X144067857Y-103728571D01*
X144258333Y-103776190D01*
X144496428Y-103776190D01*
X144686904Y-103728571D01*
X144782142Y-103680952D01*
X144829761Y-103633333D01*
X144877380Y-103538095D01*
X144877380Y-103442857D01*
X144829761Y-103347619D01*
X144782142Y-103299999D01*
X144686904Y-103252380D01*
X144496428Y-103204761D01*
X144258333Y-103204761D01*
X144067857Y-103252380D01*
X143972619Y-103299999D01*
X143925000Y-103347619D01*
X143877380Y-103442857D01*
X132080000Y-106250000D02*
X132000000Y-50500000D01*
X176000000Y-79000000D02*
X176000000Y-106250000D01*
D11*
X163060000Y-88480000D02*
X162060000Y-88480000D01*
X162060000Y-86780000D02*
X163060000Y-86780000D01*
X162060000Y-81700000D02*
X163060000Y-81700000D01*
X163060000Y-83400000D02*
X162060000Y-83400000D01*
X163060000Y-98640000D02*
X162060000Y-98640000D01*
X162060000Y-96940000D02*
X163060000Y-96940000D01*
D10*
X166566666Y-88157142D02*
X166614285Y-88204761D01*
X166757142Y-88252380D01*
X166852380Y-88252380D01*
X166995238Y-88204761D01*
X167090476Y-88109523D01*
X167138095Y-88014285D01*
X167185714Y-87823809D01*
X167185714Y-87680952D01*
X167138095Y-87490476D01*
X167090476Y-87395238D01*
X166995238Y-87300000D01*
X166852380Y-87252380D01*
X166757142Y-87252380D01*
X166614285Y-87300000D01*
X166566666Y-87347619D01*
X166233333Y-87252380D02*
X165614285Y-87252380D01*
X165947619Y-87633333D01*
X165804761Y-87633333D01*
X165709523Y-87680952D01*
X165661904Y-87728571D01*
X165614285Y-87823809D01*
X165614285Y-88061904D01*
X165661904Y-88157142D01*
X165709523Y-88204761D01*
X165804761Y-88252380D01*
X166090476Y-88252380D01*
X166185714Y-88204761D01*
X166233333Y-88157142D01*
X159147619Y-88252380D02*
X159719047Y-88252380D01*
X159433333Y-88252380D02*
X159433333Y-87252380D01*
X159528571Y-87395238D01*
X159623809Y-87490476D01*
X159719047Y-87538095D01*
X158528571Y-87252380D02*
X158433333Y-87252380D01*
X158338095Y-87300000D01*
X158290476Y-87347619D01*
X158242857Y-87442857D01*
X158195238Y-87633333D01*
X158195238Y-87871428D01*
X158242857Y-88061904D01*
X158290476Y-88157142D01*
X158338095Y-88204761D01*
X158433333Y-88252380D01*
X158528571Y-88252380D01*
X158623809Y-88204761D01*
X158671428Y-88157142D01*
X158719047Y-88061904D01*
X158766666Y-87871428D01*
X158766666Y-87633333D01*
X158719047Y-87442857D01*
X158671428Y-87347619D01*
X158623809Y-87300000D01*
X158528571Y-87252380D01*
X157576190Y-87252380D02*
X157480952Y-87252380D01*
X157385714Y-87300000D01*
X157338095Y-87347619D01*
X157290476Y-87442857D01*
X157242857Y-87633333D01*
X157242857Y-87871428D01*
X157290476Y-88061904D01*
X157338095Y-88157142D01*
X157385714Y-88204761D01*
X157480952Y-88252380D01*
X157576190Y-88252380D01*
X157671428Y-88204761D01*
X157719047Y-88157142D01*
X157766666Y-88061904D01*
X157814285Y-87871428D01*
X157814285Y-87633333D01*
X157766666Y-87442857D01*
X157719047Y-87347619D01*
X157671428Y-87300000D01*
X157576190Y-87252380D01*
X156814285Y-87585714D02*
X156814285Y-88252380D01*
X156814285Y-87680952D02*
X156766666Y-87633333D01*
X156671428Y-87585714D01*
X156528571Y-87585714D01*
X156433333Y-87633333D01*
X156385714Y-87728571D01*
X156385714Y-88252380D01*
X155576190Y-87728571D02*
X155909523Y-87728571D01*
X155909523Y-88252380D02*
X155909523Y-87252380D01*
X155433333Y-87252380D01*
X166566666Y-83157142D02*
X166614285Y-83204761D01*
X166757142Y-83252380D01*
X166852380Y-83252380D01*
X166995238Y-83204761D01*
X167090476Y-83109523D01*
X167138095Y-83014285D01*
X167185714Y-82823809D01*
X167185714Y-82680952D01*
X167138095Y-82490476D01*
X167090476Y-82395238D01*
X166995238Y-82300000D01*
X166852380Y-82252380D01*
X166757142Y-82252380D01*
X166614285Y-82300000D01*
X166566666Y-82347619D01*
X165709523Y-82585714D02*
X165709523Y-83252380D01*
X165947619Y-82204761D02*
X166185714Y-82919047D01*
X165566666Y-82919047D01*
X159147619Y-83052380D02*
X159719047Y-83052380D01*
X159433333Y-83052380D02*
X159433333Y-82052380D01*
X159528571Y-82195238D01*
X159623809Y-82290476D01*
X159719047Y-82338095D01*
X158528571Y-82052380D02*
X158433333Y-82052380D01*
X158338095Y-82100000D01*
X158290476Y-82147619D01*
X158242857Y-82242857D01*
X158195238Y-82433333D01*
X158195238Y-82671428D01*
X158242857Y-82861904D01*
X158290476Y-82957142D01*
X158338095Y-83004761D01*
X158433333Y-83052380D01*
X158528571Y-83052380D01*
X158623809Y-83004761D01*
X158671428Y-82957142D01*
X158719047Y-82861904D01*
X158766666Y-82671428D01*
X158766666Y-82433333D01*
X158719047Y-82242857D01*
X158671428Y-82147619D01*
X158623809Y-82100000D01*
X158528571Y-82052380D01*
X157576190Y-82052380D02*
X157480952Y-82052380D01*
X157385714Y-82100000D01*
X157338095Y-82147619D01*
X157290476Y-82242857D01*
X157242857Y-82433333D01*
X157242857Y-82671428D01*
X157290476Y-82861904D01*
X157338095Y-82957142D01*
X157385714Y-83004761D01*
X157480952Y-83052380D01*
X157576190Y-83052380D01*
X157671428Y-83004761D01*
X157719047Y-82957142D01*
X157766666Y-82861904D01*
X157814285Y-82671428D01*
X157814285Y-82433333D01*
X157766666Y-82242857D01*
X157719047Y-82147619D01*
X157671428Y-82100000D01*
X157576190Y-82052380D01*
X156814285Y-82385714D02*
X156814285Y-83052380D01*
X156814285Y-82480952D02*
X156766666Y-82433333D01*
X156671428Y-82385714D01*
X156528571Y-82385714D01*
X156433333Y-82433333D01*
X156385714Y-82528571D01*
X156385714Y-83052380D01*
X155576190Y-82528571D02*
X155909523Y-82528571D01*
X155909523Y-83052380D02*
X155909523Y-82052380D01*
X155433333Y-82052380D01*
X166366666Y-98157142D02*
X166414285Y-98204761D01*
X166557142Y-98252380D01*
X166652380Y-98252380D01*
X166795238Y-98204761D01*
X166890476Y-98109523D01*
X166938095Y-98014285D01*
X166985714Y-97823809D01*
X166985714Y-97680952D01*
X166938095Y-97490476D01*
X166890476Y-97395238D01*
X166795238Y-97300000D01*
X166652380Y-97252380D01*
X166557142Y-97252380D01*
X166414285Y-97300000D01*
X166366666Y-97347619D01*
X165461904Y-97252380D02*
X165938095Y-97252380D01*
X165985714Y-97728571D01*
X165938095Y-97680952D01*
X165842857Y-97633333D01*
X165604761Y-97633333D01*
X165509523Y-97680952D01*
X165461904Y-97728571D01*
X165414285Y-97823809D01*
X165414285Y-98061904D01*
X165461904Y-98157142D01*
X165509523Y-98204761D01*
X165604761Y-98252380D01*
X165842857Y-98252380D01*
X165938095Y-98204761D01*
X165985714Y-98157142D01*
X159147619Y-98252380D02*
X159719047Y-98252380D01*
X159433333Y-98252380D02*
X159433333Y-97252380D01*
X159528571Y-97395238D01*
X159623809Y-97490476D01*
X159719047Y-97538095D01*
X158528571Y-97252380D02*
X158433333Y-97252380D01*
X158338095Y-97300000D01*
X158290476Y-97347619D01*
X158242857Y-97442857D01*
X158195238Y-97633333D01*
X158195238Y-97871428D01*
X158242857Y-98061904D01*
X158290476Y-98157142D01*
X158338095Y-98204761D01*
X158433333Y-98252380D01*
X158528571Y-98252380D01*
X158623809Y-98204761D01*
X158671428Y-98157142D01*
X158719047Y-98061904D01*
X158766666Y-97871428D01*
X158766666Y-97633333D01*
X158719047Y-97442857D01*
X158671428Y-97347619D01*
X158623809Y-97300000D01*
X158528571Y-97252380D01*
X157576190Y-97252380D02*
X157480952Y-97252380D01*
X157385714Y-97300000D01*
X157338095Y-97347619D01*
X157290476Y-97442857D01*
X157242857Y-97633333D01*
X157242857Y-97871428D01*
X157290476Y-98061904D01*
X157338095Y-98157142D01*
X157385714Y-98204761D01*
X157480952Y-98252380D01*
X157576190Y-98252380D01*
X157671428Y-98204761D01*
X157719047Y-98157142D01*
X157766666Y-98061904D01*
X157814285Y-97871428D01*
X157814285Y-97633333D01*
X157766666Y-97442857D01*
X157719047Y-97347619D01*
X157671428Y-97300000D01*
X157576190Y-97252380D01*
X156814285Y-97585714D02*
X156814285Y-98252380D01*
X156814285Y-97680952D02*
X156766666Y-97633333D01*
X156671428Y-97585714D01*
X156528571Y-97585714D01*
X156433333Y-97633333D01*
X156385714Y-97728571D01*
X156385714Y-98252380D01*
X155576190Y-97728571D02*
X155909523Y-97728571D01*
X155909523Y-98252380D02*
X155909523Y-97252380D01*
X155433333Y-97252380D01*
M02*
