M48
; DRILL file {KiCad (5.1.5-0-10_14)} date Samstag, 24. Oktober 2020 um 19:53:27
; FORMAT={-:-/ absolute / inch / decimal}
; #@! TF.CreationDate,2020-10-24T19:53:27+02:00
; #@! TF.GenerationSoftware,Kicad,Pcbnew,(5.1.5-0-10_14)
; #@! TF.FileFunction,Plated,1,2,PTH
FMAT,2
INCH
T1C0.0118
T2C0.0157
T3C0.0315
T4C0.0394
%
G90
G05
T1
X5.6535Y-4.063
X5.6614Y-2.2598
X5.8508Y-2.025
X6.2047Y-3.6772
X6.2839Y-3.1848
X6.2839Y-3.7848
X6.3465Y-3.3465
X6.3701Y-3.9764
X6.4094Y-3.3465
X6.6063Y-3.1575
X6.6142Y-3.5039
X6.6614Y-3.6693
T2
X6.0945Y-2.0394
X6.1732Y-3.4724
X6.1811Y-3.5197
X6.1811Y-3.5748
X6.3465Y-3.6693
X6.3465Y-3.5748
X6.4252Y-3.6614
X6.4488Y-3.252
X6.4488Y-3.622
X6.4492Y-3.45
X6.6142Y-3.7874
X6.622Y-3.685
T3
X5.45Y-2.2
X5.45Y-2.3
X5.45Y-2.4
X5.45Y-2.5
X5.45Y-2.6
X5.45Y-2.7
X5.45Y-2.8
X5.45Y-2.9
X5.45Y-3.0
X5.45Y-3.1
X5.45Y-3.2
X5.45Y-3.3
X5.45Y-3.4
X5.45Y-3.5
X5.45Y-3.6
X5.45Y-3.7
X5.45Y-3.8
X5.45Y-3.9
X5.45Y-4.0
X5.45Y-4.1
X6.05Y-2.2
X6.05Y-2.3
X6.05Y-2.4
X6.05Y-2.5
X6.05Y-2.6
X6.05Y-2.7
X6.05Y-2.8
X6.05Y-2.9
X6.05Y-3.0
X6.05Y-3.1
X6.05Y-3.2
X6.05Y-3.3
X6.05Y-3.4
X6.05Y-3.5
X6.05Y-3.6
X6.05Y-3.7
X6.05Y-3.8
X6.05Y-3.9
X6.05Y-4.0
X6.05Y-4.1
X5.3Y-2.2
X5.3Y-2.3
X5.3Y-2.4
X5.3Y-2.5
X5.3Y-2.6
X5.3Y-2.7
X5.3Y-2.8
X5.3Y-2.9
X5.3Y-3.0
X5.3Y-3.1
X5.3Y-3.2
X5.3Y-3.3
X5.3Y-3.4
X5.3Y-3.5
X5.3Y-3.6
X5.3Y-3.7
X5.3Y-3.8
X5.3Y-3.9
X5.3Y-4.0
X5.3Y-4.1
X5.9Y-2.2
X5.9Y-2.3
X5.9Y-2.4
X5.9Y-2.5
X5.9Y-2.6
X5.9Y-2.7
X5.9Y-2.8
X5.9Y-2.9
X5.9Y-3.0
X5.9Y-3.1
X5.9Y-3.2
X5.9Y-3.3
X5.9Y-3.4
X5.9Y-3.5
X5.9Y-3.6
X5.9Y-3.7
X5.9Y-3.8
X5.9Y-3.9
X5.9Y-4.0
X5.9Y-4.1
T4
X6.75Y-3.2
X6.75Y-3.3
X6.75Y-3.4
X6.75Y-3.5
X6.75Y-3.6
X6.75Y-3.7
X6.75Y-3.8
X6.75Y-3.9
X6.75Y-4.0
X6.75Y-4.1
X6.85Y-3.2
X6.85Y-3.3
X6.85Y-3.4
X6.85Y-3.5
X6.85Y-3.6
X6.85Y-3.7
X6.85Y-3.8
X6.85Y-3.9
X6.85Y-4.0
X6.85Y-4.1
T0
M30
