%TF.GenerationSoftware,KiCad,Pcbnew,(5.1.5-0-10_14)*%
%TF.CreationDate,2020-10-24T19:52:31+02:00*%
%TF.ProjectId,c64board,63363462-6f61-4726-942e-6b696361645f,3.1*%
%TF.SameCoordinates,Original*%
%TF.FileFunction,Legend,Top*%
%TF.FilePolarity,Positive*%
%FSLAX46Y46*%
G04 Gerber Fmt 4.6, Leading zero omitted, Abs format (unit mm)*
G04 Created by KiCad (PCBNEW (5.1.5-0-10_14)) date 2020-10-24 19:52:31*
%MOMM*%
%LPD*%
G04 APERTURE LIST*
%ADD10C,0.150000*%
%ADD11C,0.120000*%
G04 APERTURE END LIST*
D10*
X132000000Y-50500000D02*
G75*
G02X133500000Y-49000000I1500000J0D01*
G01*
X156000000Y-49000000D02*
G75*
G02X157500000Y-50500000I0J-1500000D01*
G01*
X157500000Y-67500000D02*
X158500000Y-68500000D01*
X157500000Y-65000000D02*
X157500000Y-67500000D01*
X157500000Y-50500000D02*
X157500000Y-65000000D01*
X158500000Y-79000000D02*
X176000000Y-79000000D01*
X158500000Y-79000000D02*
X158500000Y-68500000D01*
X133500000Y-49000000D02*
X156000000Y-49000000D01*
X132080000Y-106250000D02*
X176000000Y-106250000D01*
X169852380Y-81114285D02*
X169852380Y-81685714D01*
X169852380Y-81400000D02*
X168852380Y-81400000D01*
X168995238Y-81495238D01*
X169090476Y-81590476D01*
X169138095Y-81685714D01*
X132080000Y-106250000D02*
X132000000Y-50500000D01*
X176000000Y-79000000D02*
X176000000Y-106250000D01*
D11*
X137660000Y-50585000D02*
X136660000Y-50585000D01*
X136660000Y-52285000D02*
X137660000Y-52285000D01*
X150360000Y-50585000D02*
X149360000Y-50585000D01*
X149360000Y-52285000D02*
X150360000Y-52285000D01*
X170120000Y-79950000D02*
X171450000Y-79950000D01*
X170120000Y-81280000D02*
X170120000Y-79950000D01*
X172720000Y-79950000D02*
X175320000Y-79950000D01*
X172720000Y-82550000D02*
X172720000Y-79950000D01*
X170120000Y-82550000D02*
X172720000Y-82550000D01*
X175320000Y-79950000D02*
X175320000Y-105470000D01*
X170120000Y-82550000D02*
X170120000Y-105470000D01*
X170120000Y-105470000D02*
X175320000Y-105470000D01*
X165700000Y-105020000D02*
X164500000Y-105020000D01*
X164500000Y-103260000D02*
X165700000Y-103260000D01*
X144410000Y-49825000D02*
X141960000Y-49825000D01*
X142610000Y-53045000D02*
X144410000Y-53045000D01*
D10*
X158785000Y-88640000D02*
X164760000Y-88640000D01*
X160360000Y-94165000D02*
X164760000Y-94165000D01*
X158810000Y-80370000D02*
X164785000Y-80370000D01*
X160335000Y-87270000D02*
X164785000Y-87270000D01*
X160335000Y-102510000D02*
X164785000Y-102510000D01*
X158810000Y-95610000D02*
X164785000Y-95610000D01*
D11*
X152110000Y-54550000D02*
X147050000Y-54550000D01*
X152110000Y-105470000D02*
X152110000Y-54550000D01*
X139990000Y-105470000D02*
X152110000Y-105470000D01*
X139990000Y-54550000D02*
X139990000Y-105470000D01*
X145050000Y-54550000D02*
X139990000Y-54550000D01*
X147050000Y-54550000D02*
G75*
G02X145050000Y-54550000I-1000000J0D01*
G01*
X151300000Y-54490000D02*
X133180000Y-54490000D01*
X151300000Y-105530000D02*
X151300000Y-54490000D01*
X133180000Y-105530000D02*
X151300000Y-105530000D01*
X133180000Y-54490000D02*
X133180000Y-105530000D01*
X148300000Y-54550000D02*
X143240000Y-54550000D01*
X148300000Y-105470000D02*
X148300000Y-54550000D01*
X136180000Y-105470000D02*
X148300000Y-105470000D01*
X136180000Y-54550000D02*
X136180000Y-105470000D01*
X141240000Y-54550000D02*
X136180000Y-54550000D01*
X143240000Y-54550000D02*
G75*
G02X141240000Y-54550000I-1000000J0D01*
G01*
D10*
X133633333Y-51757142D02*
X133585714Y-51804761D01*
X133442857Y-51852380D01*
X133347619Y-51852380D01*
X133204761Y-51804761D01*
X133109523Y-51709523D01*
X133061904Y-51614285D01*
X133014285Y-51423809D01*
X133014285Y-51280952D01*
X133061904Y-51090476D01*
X133109523Y-50995238D01*
X133204761Y-50900000D01*
X133347619Y-50852380D01*
X133442857Y-50852380D01*
X133585714Y-50900000D01*
X133633333Y-50947619D01*
X134585714Y-51852380D02*
X134014285Y-51852380D01*
X134300000Y-51852380D02*
X134300000Y-50852380D01*
X134204761Y-50995238D01*
X134109523Y-51090476D01*
X134014285Y-51138095D01*
X137142857Y-53361904D02*
X136685714Y-53361904D01*
X136914285Y-53361904D02*
X136914285Y-52561904D01*
X136838095Y-52676190D01*
X136761904Y-52752380D01*
X136685714Y-52790476D01*
X137638095Y-52561904D02*
X137714285Y-52561904D01*
X137790476Y-52600000D01*
X137828571Y-52638095D01*
X137866666Y-52714285D01*
X137904761Y-52866666D01*
X137904761Y-53057142D01*
X137866666Y-53209523D01*
X137828571Y-53285714D01*
X137790476Y-53323809D01*
X137714285Y-53361904D01*
X137638095Y-53361904D01*
X137561904Y-53323809D01*
X137523809Y-53285714D01*
X137485714Y-53209523D01*
X137447619Y-53057142D01*
X137447619Y-52866666D01*
X137485714Y-52714285D01*
X137523809Y-52638095D01*
X137561904Y-52600000D01*
X137638095Y-52561904D01*
X138590476Y-52828571D02*
X138590476Y-53361904D01*
X138247619Y-52828571D02*
X138247619Y-53247619D01*
X138285714Y-53323809D01*
X138361904Y-53361904D01*
X138476190Y-53361904D01*
X138552380Y-53323809D01*
X138590476Y-53285714D01*
X139238095Y-52942857D02*
X138971428Y-52942857D01*
X138971428Y-53361904D02*
X138971428Y-52561904D01*
X139352380Y-52561904D01*
X153233333Y-51757142D02*
X153185714Y-51804761D01*
X153042857Y-51852380D01*
X152947619Y-51852380D01*
X152804761Y-51804761D01*
X152709523Y-51709523D01*
X152661904Y-51614285D01*
X152614285Y-51423809D01*
X152614285Y-51280952D01*
X152661904Y-51090476D01*
X152709523Y-50995238D01*
X152804761Y-50900000D01*
X152947619Y-50852380D01*
X153042857Y-50852380D01*
X153185714Y-50900000D01*
X153233333Y-50947619D01*
X153614285Y-50947619D02*
X153661904Y-50900000D01*
X153757142Y-50852380D01*
X153995238Y-50852380D01*
X154090476Y-50900000D01*
X154138095Y-50947619D01*
X154185714Y-51042857D01*
X154185714Y-51138095D01*
X154138095Y-51280952D01*
X153566666Y-51852380D01*
X154185714Y-51852380D01*
X148142857Y-53361904D02*
X147685714Y-53361904D01*
X147914285Y-53361904D02*
X147914285Y-52561904D01*
X147838095Y-52676190D01*
X147761904Y-52752380D01*
X147685714Y-52790476D01*
X148638095Y-52561904D02*
X148714285Y-52561904D01*
X148790476Y-52600000D01*
X148828571Y-52638095D01*
X148866666Y-52714285D01*
X148904761Y-52866666D01*
X148904761Y-53057142D01*
X148866666Y-53209523D01*
X148828571Y-53285714D01*
X148790476Y-53323809D01*
X148714285Y-53361904D01*
X148638095Y-53361904D01*
X148561904Y-53323809D01*
X148523809Y-53285714D01*
X148485714Y-53209523D01*
X148447619Y-53057142D01*
X148447619Y-52866666D01*
X148485714Y-52714285D01*
X148523809Y-52638095D01*
X148561904Y-52600000D01*
X148638095Y-52561904D01*
X149590476Y-52828571D02*
X149590476Y-53361904D01*
X149247619Y-52828571D02*
X149247619Y-53247619D01*
X149285714Y-53323809D01*
X149361904Y-53361904D01*
X149476190Y-53361904D01*
X149552380Y-53323809D01*
X149590476Y-53285714D01*
X150238095Y-52942857D02*
X149971428Y-52942857D01*
X149971428Y-53361904D02*
X149971428Y-52561904D01*
X150352380Y-52561904D01*
X168866666Y-79652380D02*
X168866666Y-80366666D01*
X168819047Y-80509523D01*
X168723809Y-80604761D01*
X168580952Y-80652380D01*
X168485714Y-80652380D01*
X169866666Y-80652380D02*
X169295238Y-80652380D01*
X169580952Y-80652380D02*
X169580952Y-79652380D01*
X169485714Y-79795238D01*
X169390476Y-79890476D01*
X169295238Y-79938095D01*
X161433333Y-104652380D02*
X161100000Y-104176190D01*
X160861904Y-104652380D02*
X160861904Y-103652380D01*
X161242857Y-103652380D01*
X161338095Y-103700000D01*
X161385714Y-103747619D01*
X161433333Y-103842857D01*
X161433333Y-103985714D01*
X161385714Y-104080952D01*
X161338095Y-104128571D01*
X161242857Y-104176190D01*
X160861904Y-104176190D01*
X162385714Y-104652380D02*
X161814285Y-104652380D01*
X162100000Y-104652380D02*
X162100000Y-103652380D01*
X162004761Y-103795238D01*
X161909523Y-103890476D01*
X161814285Y-103938095D01*
X168852380Y-104866666D02*
X168852380Y-105438095D01*
X168852380Y-105152380D02*
X167852380Y-105152380D01*
X167995238Y-105247619D01*
X168090476Y-105342857D01*
X168138095Y-105438095D01*
X167852380Y-104247619D02*
X167852380Y-104152380D01*
X167900000Y-104057142D01*
X167947619Y-104009523D01*
X168042857Y-103961904D01*
X168233333Y-103914285D01*
X168471428Y-103914285D01*
X168661904Y-103961904D01*
X168757142Y-104009523D01*
X168804761Y-104057142D01*
X168852380Y-104152380D01*
X168852380Y-104247619D01*
X168804761Y-104342857D01*
X168757142Y-104390476D01*
X168661904Y-104438095D01*
X168471428Y-104485714D01*
X168233333Y-104485714D01*
X168042857Y-104438095D01*
X167947619Y-104390476D01*
X167900000Y-104342857D01*
X167852380Y-104247619D01*
X167852380Y-103295238D02*
X167852380Y-103200000D01*
X167900000Y-103104761D01*
X167947619Y-103057142D01*
X168042857Y-103009523D01*
X168233333Y-102961904D01*
X168471428Y-102961904D01*
X168661904Y-103009523D01*
X168757142Y-103057142D01*
X168804761Y-103104761D01*
X168852380Y-103200000D01*
X168852380Y-103295238D01*
X168804761Y-103390476D01*
X168757142Y-103438095D01*
X168661904Y-103485714D01*
X168471428Y-103533333D01*
X168233333Y-103533333D01*
X168042857Y-103485714D01*
X167947619Y-103438095D01*
X167900000Y-103390476D01*
X167852380Y-103295238D01*
X142748095Y-53052380D02*
X142748095Y-53861904D01*
X142795714Y-53957142D01*
X142843333Y-54004761D01*
X142938571Y-54052380D01*
X143129047Y-54052380D01*
X143224285Y-54004761D01*
X143271904Y-53957142D01*
X143319523Y-53861904D01*
X143319523Y-53052380D01*
X143748095Y-53147619D02*
X143795714Y-53100000D01*
X143890952Y-53052380D01*
X144129047Y-53052380D01*
X144224285Y-53100000D01*
X144271904Y-53147619D01*
X144319523Y-53242857D01*
X144319523Y-53338095D01*
X144271904Y-53480952D01*
X143700476Y-54052380D01*
X144319523Y-54052380D01*
X144007142Y-65409523D02*
X143107142Y-65409523D01*
X143750000Y-65142857D01*
X143107142Y-64876190D01*
X144007142Y-64876190D01*
X144007142Y-64495238D02*
X143107142Y-64495238D01*
X143921428Y-63657142D02*
X143964285Y-63695238D01*
X144007142Y-63809523D01*
X144007142Y-63885714D01*
X143964285Y-64000000D01*
X143878571Y-64076190D01*
X143792857Y-64114285D01*
X143621428Y-64152380D01*
X143492857Y-64152380D01*
X143321428Y-64114285D01*
X143235714Y-64076190D01*
X143150000Y-64000000D01*
X143107142Y-63885714D01*
X143107142Y-63809523D01*
X143150000Y-63695238D01*
X143192857Y-63657142D01*
X143107142Y-62933333D02*
X143107142Y-63314285D01*
X143535714Y-63352380D01*
X143492857Y-63314285D01*
X143450000Y-63238095D01*
X143450000Y-63047619D01*
X143492857Y-62971428D01*
X143535714Y-62933333D01*
X143621428Y-62895238D01*
X143835714Y-62895238D01*
X143921428Y-62933333D01*
X143964285Y-62971428D01*
X144007142Y-63047619D01*
X144007142Y-63238095D01*
X143964285Y-63314285D01*
X143921428Y-63352380D01*
X143107142Y-62171428D02*
X143107142Y-62552380D01*
X143535714Y-62590476D01*
X143492857Y-62552380D01*
X143450000Y-62476190D01*
X143450000Y-62285714D01*
X143492857Y-62209523D01*
X143535714Y-62171428D01*
X143621428Y-62133333D01*
X143835714Y-62133333D01*
X143921428Y-62171428D01*
X143964285Y-62209523D01*
X144007142Y-62285714D01*
X144007142Y-62476190D01*
X143964285Y-62552380D01*
X143921428Y-62590476D01*
X143107142Y-61638095D02*
X143107142Y-61561904D01*
X143150000Y-61485714D01*
X143192857Y-61447619D01*
X143278571Y-61409523D01*
X143450000Y-61371428D01*
X143664285Y-61371428D01*
X143835714Y-61409523D01*
X143921428Y-61447619D01*
X143964285Y-61485714D01*
X144007142Y-61561904D01*
X144007142Y-61638095D01*
X143964285Y-61714285D01*
X143921428Y-61752380D01*
X143835714Y-61790476D01*
X143664285Y-61828571D01*
X143450000Y-61828571D01*
X143278571Y-61790476D01*
X143192857Y-61752380D01*
X143150000Y-61714285D01*
X143107142Y-61638095D01*
X143407142Y-60685714D02*
X144007142Y-60685714D01*
X143064285Y-60876190D02*
X143707142Y-61066666D01*
X143707142Y-60571428D01*
X143664285Y-60266666D02*
X143664285Y-59657142D01*
X143107142Y-59352380D02*
X143107142Y-58857142D01*
X143450000Y-59123809D01*
X143450000Y-59009523D01*
X143492857Y-58933333D01*
X143535714Y-58895238D01*
X143621428Y-58857142D01*
X143835714Y-58857142D01*
X143921428Y-58895238D01*
X143964285Y-58933333D01*
X144007142Y-59009523D01*
X144007142Y-59238095D01*
X143964285Y-59314285D01*
X143921428Y-59352380D01*
X143921428Y-58514285D02*
X143964285Y-58476190D01*
X144007142Y-58514285D01*
X143964285Y-58552380D01*
X143921428Y-58514285D01*
X144007142Y-58514285D01*
X143107142Y-58209523D02*
X143107142Y-57714285D01*
X143450000Y-57980952D01*
X143450000Y-57866666D01*
X143492857Y-57790476D01*
X143535714Y-57752380D01*
X143621428Y-57714285D01*
X143835714Y-57714285D01*
X143921428Y-57752380D01*
X143964285Y-57790476D01*
X144007142Y-57866666D01*
X144007142Y-58095238D01*
X143964285Y-58171428D01*
X143921428Y-58209523D01*
X143578571Y-57219047D02*
X144007142Y-57219047D01*
X143107142Y-57485714D02*
X143578571Y-57219047D01*
X143107142Y-56952380D01*
X144007142Y-56685714D02*
X143107142Y-56685714D01*
X143750000Y-56419047D01*
X143107142Y-56152380D01*
X144007142Y-56152380D01*
X143107142Y-55390476D02*
X143107142Y-55771428D01*
X143535714Y-55809523D01*
X143492857Y-55771428D01*
X143450000Y-55695238D01*
X143450000Y-55504761D01*
X143492857Y-55428571D01*
X143535714Y-55390476D01*
X143621428Y-55352380D01*
X143835714Y-55352380D01*
X143921428Y-55390476D01*
X143964285Y-55428571D01*
X144007142Y-55504761D01*
X144007142Y-55695238D01*
X143964285Y-55771428D01*
X143921428Y-55809523D01*
X157252380Y-92161904D02*
X158061904Y-92161904D01*
X158157142Y-92114285D01*
X158204761Y-92066666D01*
X158252380Y-91971428D01*
X158252380Y-91780952D01*
X158204761Y-91685714D01*
X158157142Y-91638095D01*
X158061904Y-91590476D01*
X157252380Y-91590476D01*
X157252380Y-91209523D02*
X157252380Y-90590476D01*
X157633333Y-90923809D01*
X157633333Y-90780952D01*
X157680952Y-90685714D01*
X157728571Y-90638095D01*
X157823809Y-90590476D01*
X158061904Y-90590476D01*
X158157142Y-90638095D01*
X158204761Y-90685714D01*
X158252380Y-90780952D01*
X158252380Y-91066666D01*
X158204761Y-91161904D01*
X158157142Y-91209523D01*
X168052380Y-93447619D02*
X168052380Y-93923809D01*
X167052380Y-93923809D01*
X167052380Y-93257142D02*
X168052380Y-92923809D01*
X167052380Y-92590476D01*
X167957142Y-91685714D02*
X168004761Y-91733333D01*
X168052380Y-91876190D01*
X168052380Y-91971428D01*
X168004761Y-92114285D01*
X167909523Y-92209523D01*
X167814285Y-92257142D01*
X167623809Y-92304761D01*
X167480952Y-92304761D01*
X167290476Y-92257142D01*
X167195238Y-92209523D01*
X167100000Y-92114285D01*
X167052380Y-91971428D01*
X167052380Y-91876190D01*
X167100000Y-91733333D01*
X167147619Y-91685714D01*
X167147619Y-91304761D02*
X167100000Y-91257142D01*
X167052380Y-91161904D01*
X167052380Y-90923809D01*
X167100000Y-90828571D01*
X167147619Y-90780952D01*
X167242857Y-90733333D01*
X167338095Y-90733333D01*
X167480952Y-90780952D01*
X168052380Y-91352380D01*
X168052380Y-90733333D01*
X167052380Y-89828571D02*
X167052380Y-90304761D01*
X167528571Y-90352380D01*
X167480952Y-90304761D01*
X167433333Y-90209523D01*
X167433333Y-89971428D01*
X167480952Y-89876190D01*
X167528571Y-89828571D01*
X167623809Y-89780952D01*
X167861904Y-89780952D01*
X167957142Y-89828571D01*
X168004761Y-89876190D01*
X168052380Y-89971428D01*
X168052380Y-90209523D01*
X168004761Y-90304761D01*
X167957142Y-90352380D01*
X167052380Y-89447619D02*
X167052380Y-88780952D01*
X168052380Y-89209523D01*
X157252380Y-84361904D02*
X158061904Y-84361904D01*
X158157142Y-84314285D01*
X158204761Y-84266666D01*
X158252380Y-84171428D01*
X158252380Y-83980952D01*
X158204761Y-83885714D01*
X158157142Y-83838095D01*
X158061904Y-83790476D01*
X157252380Y-83790476D01*
X157585714Y-82885714D02*
X158252380Y-82885714D01*
X157204761Y-83123809D02*
X157919047Y-83361904D01*
X157919047Y-82742857D01*
X168052380Y-85647619D02*
X168052380Y-86123809D01*
X167052380Y-86123809D01*
X167052380Y-85457142D02*
X168052380Y-85123809D01*
X167052380Y-84790476D01*
X167957142Y-83885714D02*
X168004761Y-83933333D01*
X168052380Y-84076190D01*
X168052380Y-84171428D01*
X168004761Y-84314285D01*
X167909523Y-84409523D01*
X167814285Y-84457142D01*
X167623809Y-84504761D01*
X167480952Y-84504761D01*
X167290476Y-84457142D01*
X167195238Y-84409523D01*
X167100000Y-84314285D01*
X167052380Y-84171428D01*
X167052380Y-84076190D01*
X167100000Y-83933333D01*
X167147619Y-83885714D01*
X167147619Y-83504761D02*
X167100000Y-83457142D01*
X167052380Y-83361904D01*
X167052380Y-83123809D01*
X167100000Y-83028571D01*
X167147619Y-82980952D01*
X167242857Y-82933333D01*
X167338095Y-82933333D01*
X167480952Y-82980952D01*
X168052380Y-83552380D01*
X168052380Y-82933333D01*
X167385714Y-82076190D02*
X168052380Y-82076190D01*
X167004761Y-82314285D02*
X167719047Y-82552380D01*
X167719047Y-81933333D01*
X167052380Y-81076190D02*
X167052380Y-81552380D01*
X167528571Y-81600000D01*
X167480952Y-81552380D01*
X167433333Y-81457142D01*
X167433333Y-81219047D01*
X167480952Y-81123809D01*
X167528571Y-81076190D01*
X167623809Y-81028571D01*
X167861904Y-81028571D01*
X167957142Y-81076190D01*
X168004761Y-81123809D01*
X168052380Y-81219047D01*
X168052380Y-81457142D01*
X168004761Y-81552380D01*
X167957142Y-81600000D01*
X157252380Y-99961904D02*
X158061904Y-99961904D01*
X158157142Y-99914285D01*
X158204761Y-99866666D01*
X158252380Y-99771428D01*
X158252380Y-99580952D01*
X158204761Y-99485714D01*
X158157142Y-99438095D01*
X158061904Y-99390476D01*
X157252380Y-99390476D01*
X157252380Y-98438095D02*
X157252380Y-98914285D01*
X157728571Y-98961904D01*
X157680952Y-98914285D01*
X157633333Y-98819047D01*
X157633333Y-98580952D01*
X157680952Y-98485714D01*
X157728571Y-98438095D01*
X157823809Y-98390476D01*
X158061904Y-98390476D01*
X158157142Y-98438095D01*
X158204761Y-98485714D01*
X158252380Y-98580952D01*
X158252380Y-98819047D01*
X158204761Y-98914285D01*
X158157142Y-98961904D01*
X168052380Y-101047619D02*
X168052380Y-101523809D01*
X167052380Y-101523809D01*
X167052380Y-100857142D02*
X168052380Y-100523809D01*
X167052380Y-100190476D01*
X167957142Y-99285714D02*
X168004761Y-99333333D01*
X168052380Y-99476190D01*
X168052380Y-99571428D01*
X168004761Y-99714285D01*
X167909523Y-99809523D01*
X167814285Y-99857142D01*
X167623809Y-99904761D01*
X167480952Y-99904761D01*
X167290476Y-99857142D01*
X167195238Y-99809523D01*
X167100000Y-99714285D01*
X167052380Y-99571428D01*
X167052380Y-99476190D01*
X167100000Y-99333333D01*
X167147619Y-99285714D01*
X167147619Y-98904761D02*
X167100000Y-98857142D01*
X167052380Y-98761904D01*
X167052380Y-98523809D01*
X167100000Y-98428571D01*
X167147619Y-98380952D01*
X167242857Y-98333333D01*
X167338095Y-98333333D01*
X167480952Y-98380952D01*
X168052380Y-98952380D01*
X168052380Y-98333333D01*
X167385714Y-97476190D02*
X168052380Y-97476190D01*
X167004761Y-97714285D02*
X167719047Y-97952380D01*
X167719047Y-97333333D01*
X167052380Y-96476190D02*
X167052380Y-96952380D01*
X167528571Y-97000000D01*
X167480952Y-96952380D01*
X167433333Y-96857142D01*
X167433333Y-96619047D01*
X167480952Y-96523809D01*
X167528571Y-96476190D01*
X167623809Y-96428571D01*
X167861904Y-96428571D01*
X167957142Y-96476190D01*
X168004761Y-96523809D01*
X168052380Y-96619047D01*
X168052380Y-96857142D01*
X168004761Y-96952380D01*
X167957142Y-97000000D01*
X153266666Y-53052380D02*
X153266666Y-53766666D01*
X153219047Y-53909523D01*
X153123809Y-54004761D01*
X152980952Y-54052380D01*
X152885714Y-54052380D01*
X153695238Y-53147619D02*
X153742857Y-53100000D01*
X153838095Y-53052380D01*
X154076190Y-53052380D01*
X154171428Y-53100000D01*
X154219047Y-53147619D01*
X154266666Y-53242857D01*
X154266666Y-53338095D01*
X154219047Y-53480952D01*
X153647619Y-54052380D01*
X154266666Y-54052380D01*
X134038095Y-53052380D02*
X134038095Y-53861904D01*
X134085714Y-53957142D01*
X134133333Y-54004761D01*
X134228571Y-54052380D01*
X134419047Y-54052380D01*
X134514285Y-54004761D01*
X134561904Y-53957142D01*
X134609523Y-53861904D01*
X134609523Y-53052380D01*
X135609523Y-54052380D02*
X135038095Y-54052380D01*
X135323809Y-54052380D02*
X135323809Y-53052380D01*
X135228571Y-53195238D01*
X135133333Y-53290476D01*
X135038095Y-53338095D01*
M02*
