%TF.GenerationSoftware,KiCad,Pcbnew,(5.1.5-0-10_14)*%
%TF.CreationDate,2020-11-09T20:11:24+01:00*%
%TF.ProjectId,rfreplacement,72667265-706c-4616-9365-6d656e742e6b,6.1*%
%TF.SameCoordinates,Original*%
%TF.FileFunction,Legend,Top*%
%TF.FilePolarity,Positive*%
%FSLAX46Y46*%
G04 Gerber Fmt 4.6, Leading zero omitted, Abs format (unit mm)*
G04 Created by KiCad (PCBNEW (5.1.5-0-10_14)) date 2020-11-09 20:11:24*
%MOMM*%
%LPD*%
G04 APERTURE LIST*
%ADD10C,0.500000*%
%ADD11C,0.150000*%
%ADD12C,0.250000*%
%ADD13C,0.200000*%
%ADD14C,0.100000*%
%ADD15C,0.120000*%
G04 APERTURE END LIST*
D10*
X128882843Y-91200000D02*
G75*
G03X128882843Y-91200000I-282843J0D01*
G01*
D11*
X134852380Y-109514285D02*
X134852380Y-110085714D01*
X134852380Y-109800000D02*
X133852380Y-109800000D01*
X133995238Y-109895238D01*
X134090476Y-109990476D01*
X134138095Y-110085714D01*
X152947619Y-55885714D02*
X152947619Y-55314285D01*
X152947619Y-55600000D02*
X153947619Y-55600000D01*
X153804761Y-55504761D01*
X153709523Y-55409523D01*
X153661904Y-55314285D01*
D12*
X108414285Y-94282142D02*
X108366666Y-94329761D01*
X108223809Y-94377380D01*
X108128571Y-94377380D01*
X107985714Y-94329761D01*
X107890476Y-94234523D01*
X107842857Y-94139285D01*
X107795238Y-93948809D01*
X107795238Y-93805952D01*
X107842857Y-93615476D01*
X107890476Y-93520238D01*
X107985714Y-93425000D01*
X108128571Y-93377380D01*
X108223809Y-93377380D01*
X108366666Y-93425000D01*
X108414285Y-93472619D01*
X108985714Y-94377380D02*
X108890476Y-94329761D01*
X108842857Y-94234523D01*
X108842857Y-93377380D01*
X109509523Y-94377380D02*
X109414285Y-94329761D01*
X109366666Y-94282142D01*
X109319047Y-94186904D01*
X109319047Y-93901190D01*
X109366666Y-93805952D01*
X109414285Y-93758333D01*
X109509523Y-93710714D01*
X109652380Y-93710714D01*
X109747619Y-93758333D01*
X109795238Y-93805952D01*
X109842857Y-93901190D01*
X109842857Y-94186904D01*
X109795238Y-94282142D01*
X109747619Y-94329761D01*
X109652380Y-94377380D01*
X109509523Y-94377380D01*
X110223809Y-94329761D02*
X110319047Y-94377380D01*
X110509523Y-94377380D01*
X110604761Y-94329761D01*
X110652380Y-94234523D01*
X110652380Y-94186904D01*
X110604761Y-94091666D01*
X110509523Y-94044047D01*
X110366666Y-94044047D01*
X110271428Y-93996428D01*
X110223809Y-93901190D01*
X110223809Y-93853571D01*
X110271428Y-93758333D01*
X110366666Y-93710714D01*
X110509523Y-93710714D01*
X110604761Y-93758333D01*
X111461904Y-94329761D02*
X111366666Y-94377380D01*
X111176190Y-94377380D01*
X111080952Y-94329761D01*
X111033333Y-94234523D01*
X111033333Y-93853571D01*
X111080952Y-93758333D01*
X111176190Y-93710714D01*
X111366666Y-93710714D01*
X111461904Y-93758333D01*
X111509523Y-93853571D01*
X111509523Y-93948809D01*
X111033333Y-94044047D01*
X111938095Y-94282142D02*
X111985714Y-94329761D01*
X111938095Y-94377380D01*
X111890476Y-94329761D01*
X111938095Y-94282142D01*
X111938095Y-94377380D01*
X111938095Y-93758333D02*
X111985714Y-93805952D01*
X111938095Y-93853571D01*
X111890476Y-93805952D01*
X111938095Y-93758333D01*
X111938095Y-93853571D01*
X113700000Y-94377380D02*
X113128571Y-94377380D01*
X113414285Y-94377380D02*
X113414285Y-93377380D01*
X113319047Y-93520238D01*
X113223809Y-93615476D01*
X113128571Y-93663095D01*
X114080952Y-93472619D02*
X114128571Y-93425000D01*
X114223809Y-93377380D01*
X114461904Y-93377380D01*
X114557142Y-93425000D01*
X114604761Y-93472619D01*
X114652380Y-93567857D01*
X114652380Y-93663095D01*
X114604761Y-93805952D01*
X114033333Y-94377380D01*
X114652380Y-94377380D01*
X114938095Y-93377380D02*
X115271428Y-94377380D01*
X115604761Y-93377380D01*
X116557142Y-93377380D02*
X116890476Y-94377380D01*
X117223809Y-93377380D01*
X117557142Y-94377380D02*
X117557142Y-93377380D01*
X118604761Y-94282142D02*
X118557142Y-94329761D01*
X118414285Y-94377380D01*
X118319047Y-94377380D01*
X118176190Y-94329761D01*
X118080952Y-94234523D01*
X118033333Y-94139285D01*
X117985714Y-93948809D01*
X117985714Y-93805952D01*
X118033333Y-93615476D01*
X118080952Y-93520238D01*
X118176190Y-93425000D01*
X118319047Y-93377380D01*
X118414285Y-93377380D01*
X118557142Y-93425000D01*
X118604761Y-93472619D01*
X109461904Y-95127380D02*
X109652380Y-95127380D01*
X109747619Y-95175000D01*
X109842857Y-95270238D01*
X109890476Y-95460714D01*
X109890476Y-95794047D01*
X109842857Y-95984523D01*
X109747619Y-96079761D01*
X109652380Y-96127380D01*
X109461904Y-96127380D01*
X109366666Y-96079761D01*
X109271428Y-95984523D01*
X109223809Y-95794047D01*
X109223809Y-95460714D01*
X109271428Y-95270238D01*
X109366666Y-95175000D01*
X109461904Y-95127380D01*
X110319047Y-95460714D02*
X110319047Y-96460714D01*
X110319047Y-95508333D02*
X110414285Y-95460714D01*
X110604761Y-95460714D01*
X110700000Y-95508333D01*
X110747619Y-95555952D01*
X110795238Y-95651190D01*
X110795238Y-95936904D01*
X110747619Y-96032142D01*
X110700000Y-96079761D01*
X110604761Y-96127380D01*
X110414285Y-96127380D01*
X110319047Y-96079761D01*
X111604761Y-96079761D02*
X111509523Y-96127380D01*
X111319047Y-96127380D01*
X111223809Y-96079761D01*
X111176190Y-95984523D01*
X111176190Y-95603571D01*
X111223809Y-95508333D01*
X111319047Y-95460714D01*
X111509523Y-95460714D01*
X111604761Y-95508333D01*
X111652380Y-95603571D01*
X111652380Y-95698809D01*
X111176190Y-95794047D01*
X112080952Y-95460714D02*
X112080952Y-96127380D01*
X112080952Y-95555952D02*
X112128571Y-95508333D01*
X112223809Y-95460714D01*
X112366666Y-95460714D01*
X112461904Y-95508333D01*
X112509523Y-95603571D01*
X112509523Y-96127380D01*
X112985714Y-96032142D02*
X113033333Y-96079761D01*
X112985714Y-96127380D01*
X112938095Y-96079761D01*
X112985714Y-96032142D01*
X112985714Y-96127380D01*
X112985714Y-95508333D02*
X113033333Y-95555952D01*
X112985714Y-95603571D01*
X112938095Y-95555952D01*
X112985714Y-95508333D01*
X112985714Y-95603571D01*
X114700000Y-95127380D02*
X114223809Y-95127380D01*
X114176190Y-95603571D01*
X114223809Y-95555952D01*
X114319047Y-95508333D01*
X114557142Y-95508333D01*
X114652380Y-95555952D01*
X114700000Y-95603571D01*
X114747619Y-95698809D01*
X114747619Y-95936904D01*
X114700000Y-96032142D01*
X114652380Y-96079761D01*
X114557142Y-96127380D01*
X114319047Y-96127380D01*
X114223809Y-96079761D01*
X114176190Y-96032142D01*
X115033333Y-95127380D02*
X115366666Y-96127380D01*
X115700000Y-95127380D01*
X116652380Y-95127380D02*
X116985714Y-96127380D01*
X117319047Y-95127380D01*
X117652380Y-96127380D02*
X117652380Y-95127380D01*
X118700000Y-96032142D02*
X118652380Y-96079761D01*
X118509523Y-96127380D01*
X118414285Y-96127380D01*
X118271428Y-96079761D01*
X118176190Y-95984523D01*
X118128571Y-95889285D01*
X118080952Y-95698809D01*
X118080952Y-95555952D01*
X118128571Y-95365476D01*
X118176190Y-95270238D01*
X118271428Y-95175000D01*
X118414285Y-95127380D01*
X118509523Y-95127380D01*
X118652380Y-95175000D01*
X118700000Y-95222619D01*
D13*
X142000000Y-109835000D02*
X142000000Y-109200000D01*
X137000000Y-110000000D02*
X142000000Y-110000000D01*
X137000000Y-109165000D02*
X137000000Y-109800000D01*
D14*
X165100000Y-88900000D02*
X165100000Y-53340000D01*
X165100000Y-88900000D02*
X165100000Y-114935000D01*
X165100000Y-50800000D02*
X165100000Y-53340000D01*
X104140000Y-114300000D02*
X104140000Y-114935000D01*
X165100000Y-114935000D02*
X104140000Y-114935000D01*
X104140000Y-50800000D02*
X165100000Y-50800000D01*
X104140000Y-114300000D02*
X104140000Y-50800000D01*
D15*
X118205000Y-66675000D02*
X118205000Y-64725000D01*
X118205000Y-66675000D02*
X118205000Y-68625000D01*
X112935000Y-66675000D02*
X112935000Y-64725000D01*
X112935000Y-66675000D02*
X112935000Y-70125000D01*
D11*
X167000000Y-74200000D02*
X165500000Y-74200000D01*
X165500000Y-68200000D02*
X167000000Y-68200000D01*
X167000000Y-68200000D02*
X167000000Y-74200000D01*
X165500000Y-74200000D02*
X164500000Y-74200000D01*
X165500000Y-68200000D02*
X164500000Y-68200000D01*
X164500000Y-74200000D02*
X164500000Y-75200000D01*
X164500000Y-75200000D02*
X162000000Y-75200000D01*
X160000000Y-75200000D02*
X152000000Y-75200000D01*
X164500000Y-68200000D02*
X164500000Y-67200000D01*
X164500000Y-67200000D02*
X162000000Y-67200000D01*
X160000000Y-67200000D02*
X152000000Y-67200000D01*
D15*
X121200000Y-95500000D02*
G75*
G02X120500000Y-96200000I-700000J0D01*
G01*
X119900000Y-96200000D02*
G75*
G02X119200000Y-95500000I0J700000D01*
G01*
X119200000Y-94100000D02*
G75*
G02X119900000Y-93400000I700000J0D01*
G01*
X120500000Y-93400000D02*
G75*
G02X121200000Y-94100000I0J-700000D01*
G01*
X119900000Y-93400000D02*
X120500000Y-93400000D01*
X119200000Y-95500000D02*
X119200000Y-94100000D01*
X120500000Y-96200000D02*
X119900000Y-96200000D01*
X121200000Y-94100000D02*
X121200000Y-95500000D01*
D11*
X161155000Y-104020000D02*
X161155000Y-89020000D01*
X165155000Y-89020000D02*
X165155000Y-104020000D01*
X165155000Y-97020000D02*
X166655000Y-97020000D01*
X166655000Y-97020000D02*
X166655000Y-96020000D01*
X166655000Y-96020000D02*
X165155000Y-96020000D01*
X161155000Y-104020000D02*
X161155000Y-104420000D01*
X161155000Y-104420000D02*
X165155000Y-104420000D01*
X165155000Y-104420000D02*
X165155000Y-104020000D01*
X161155000Y-89020000D02*
X161155000Y-88620000D01*
X161155000Y-88620000D02*
X165155000Y-88620000D01*
X165155000Y-88620000D02*
X165155000Y-89120000D01*
X165155000Y-89120000D02*
X165155000Y-89020000D01*
D15*
X110300000Y-89950000D02*
X109300000Y-89950000D01*
X109300000Y-91650000D02*
X110300000Y-91650000D01*
X129750000Y-104100000D02*
X129750000Y-105100000D01*
X131450000Y-105100000D02*
X131450000Y-104100000D01*
X159850000Y-111700000D02*
X159850000Y-110700000D01*
X158150000Y-110700000D02*
X158150000Y-111700000D01*
X134500000Y-113450000D02*
X135500000Y-113450000D01*
X135500000Y-111750000D02*
X134500000Y-111750000D01*
X162850000Y-111700000D02*
X162850000Y-110700000D01*
X161150000Y-110700000D02*
X161150000Y-111700000D01*
X108100000Y-77150000D02*
X107100000Y-77150000D01*
X107100000Y-78850000D02*
X108100000Y-78850000D01*
X116050000Y-74100000D02*
X116050000Y-73100000D01*
X114350000Y-73100000D02*
X114350000Y-74100000D01*
X113250000Y-74100000D02*
X113250000Y-73100000D01*
X111550000Y-73100000D02*
X111550000Y-74100000D01*
X117150000Y-73100000D02*
X117150000Y-74100000D01*
X118850000Y-74100000D02*
X118850000Y-73100000D01*
X110650000Y-108300000D02*
X110650000Y-107300000D01*
X108950000Y-107300000D02*
X108950000Y-108300000D01*
X116780000Y-111700000D02*
X118110000Y-111700000D01*
X116780000Y-113030000D02*
X116780000Y-111700000D01*
X116780000Y-114300000D02*
X119440000Y-114300000D01*
X119440000Y-114300000D02*
X119440000Y-114360000D01*
X116780000Y-114300000D02*
X116780000Y-114360000D01*
X116780000Y-114360000D02*
X119440000Y-114360000D01*
X116780000Y-54035000D02*
X119440000Y-54035000D01*
X116780000Y-53975000D02*
X116780000Y-54035000D01*
X119440000Y-53975000D02*
X119440000Y-54035000D01*
X116780000Y-53975000D02*
X119440000Y-53975000D01*
X116780000Y-52705000D02*
X116780000Y-51375000D01*
X116780000Y-51375000D02*
X118110000Y-51375000D01*
X145990000Y-111700000D02*
X147320000Y-111700000D01*
X145990000Y-113030000D02*
X145990000Y-111700000D01*
X145990000Y-114300000D02*
X148650000Y-114300000D01*
X148650000Y-114300000D02*
X148650000Y-114360000D01*
X145990000Y-114300000D02*
X145990000Y-114360000D01*
X145990000Y-114360000D02*
X148650000Y-114360000D01*
X145990000Y-54035000D02*
X148650000Y-54035000D01*
X145990000Y-53975000D02*
X145990000Y-54035000D01*
X148650000Y-53975000D02*
X148650000Y-54035000D01*
X145990000Y-53975000D02*
X148650000Y-53975000D01*
X145990000Y-52705000D02*
X145990000Y-51375000D01*
X145990000Y-51375000D02*
X147320000Y-51375000D01*
X163890000Y-85785000D02*
X162560000Y-85785000D01*
X163890000Y-84455000D02*
X163890000Y-85785000D01*
X163890000Y-83185000D02*
X161230000Y-83185000D01*
X161230000Y-83185000D02*
X161230000Y-80585000D01*
X163890000Y-83185000D02*
X163890000Y-80585000D01*
X163890000Y-80585000D02*
X161230000Y-80585000D01*
X154730000Y-56670000D02*
X154730000Y-58000000D01*
X153400000Y-56670000D02*
X154730000Y-56670000D01*
X154730000Y-59270000D02*
X154730000Y-61870000D01*
X152130000Y-59270000D02*
X154730000Y-59270000D01*
X152130000Y-56670000D02*
X152130000Y-59270000D01*
X154730000Y-61870000D02*
X129210000Y-61870000D01*
X152130000Y-56670000D02*
X129210000Y-56670000D01*
X129210000Y-56670000D02*
X129210000Y-61870000D01*
X133070000Y-109130000D02*
X133070000Y-107800000D01*
X134400000Y-109130000D02*
X133070000Y-109130000D01*
X133070000Y-106530000D02*
X133070000Y-103930000D01*
X135670000Y-106530000D02*
X133070000Y-106530000D01*
X135670000Y-109130000D02*
X135670000Y-106530000D01*
X133070000Y-103930000D02*
X145890000Y-103930000D01*
X135670000Y-109130000D02*
X145890000Y-109130000D01*
X145890000Y-109130000D02*
X145890000Y-103930000D01*
X144400000Y-98970000D02*
X145100000Y-98970000D01*
X144400000Y-98230000D02*
X144400000Y-98970000D01*
X140800000Y-101300000D02*
X140800000Y-100910000D01*
X144400000Y-101300000D02*
X140800000Y-101300000D01*
X144400000Y-100910000D02*
X144400000Y-101300000D01*
X145100000Y-100910000D02*
X144400000Y-100910000D01*
X140800000Y-98970000D02*
X140800000Y-98230000D01*
X144400000Y-95900000D02*
X144400000Y-96290000D01*
X140800000Y-95900000D02*
X144400000Y-95900000D01*
X140800000Y-96290000D02*
X140800000Y-95900000D01*
X155000000Y-110880000D02*
X153800000Y-110880000D01*
X153800000Y-109120000D02*
X155000000Y-109120000D01*
X155000000Y-108680000D02*
X153800000Y-108680000D01*
X153800000Y-106920000D02*
X155000000Y-106920000D01*
X156600000Y-106480000D02*
X155400000Y-106480000D01*
X155400000Y-104720000D02*
X156600000Y-104720000D01*
X155400000Y-102520000D02*
X156600000Y-102520000D01*
X156600000Y-104280000D02*
X155400000Y-104280000D01*
X156600000Y-102080000D02*
X155400000Y-102080000D01*
X155400000Y-100320000D02*
X156600000Y-100320000D01*
X155400000Y-98120000D02*
X156600000Y-98120000D01*
X156600000Y-99880000D02*
X155400000Y-99880000D01*
X155400000Y-95920000D02*
X156600000Y-95920000D01*
X156600000Y-97680000D02*
X155400000Y-97680000D01*
X157000000Y-95480000D02*
X155800000Y-95480000D01*
X155800000Y-93720000D02*
X157000000Y-93720000D01*
X155800000Y-91520000D02*
X157000000Y-91520000D01*
X157000000Y-93280000D02*
X155800000Y-93280000D01*
X157000000Y-91080000D02*
X155800000Y-91080000D01*
X155800000Y-89320000D02*
X157000000Y-89320000D01*
X155800000Y-87120000D02*
X157000000Y-87120000D01*
X157000000Y-88880000D02*
X155800000Y-88880000D01*
X157000000Y-86480000D02*
X155800000Y-86480000D01*
X155800000Y-84720000D02*
X157000000Y-84720000D01*
X155800000Y-82520000D02*
X157000000Y-82520000D01*
X157000000Y-84280000D02*
X155800000Y-84280000D01*
X157000000Y-82080000D02*
X155800000Y-82080000D01*
X155800000Y-80320000D02*
X157000000Y-80320000D01*
X155800000Y-78120000D02*
X157000000Y-78120000D01*
X157000000Y-79880000D02*
X155800000Y-79880000D01*
X157000000Y-77680000D02*
X155800000Y-77680000D01*
X155800000Y-75920000D02*
X157000000Y-75920000D01*
X161600000Y-105720000D02*
X162800000Y-105720000D01*
X162800000Y-107480000D02*
X161600000Y-107480000D01*
X161600000Y-78120000D02*
X162800000Y-78120000D01*
X162800000Y-79880000D02*
X161600000Y-79880000D01*
X161600000Y-75920000D02*
X162800000Y-75920000D01*
X162800000Y-77680000D02*
X161600000Y-77680000D01*
X137120000Y-99200000D02*
X137120000Y-98000000D01*
X138880000Y-98000000D02*
X138880000Y-99200000D01*
X131400000Y-100880000D02*
X130200000Y-100880000D01*
X130200000Y-99120000D02*
X131400000Y-99120000D01*
X131400000Y-98080000D02*
X130200000Y-98080000D01*
X130200000Y-96320000D02*
X131400000Y-96320000D01*
X134320000Y-99200000D02*
X134320000Y-98000000D01*
X136080000Y-98000000D02*
X136080000Y-99200000D01*
X124480000Y-88800000D02*
X124480000Y-90000000D01*
X122720000Y-90000000D02*
X122720000Y-88800000D01*
X122720000Y-84200000D02*
X122720000Y-83000000D01*
X124480000Y-83000000D02*
X124480000Y-84200000D01*
X124480000Y-77200000D02*
X124480000Y-78400000D01*
X122720000Y-78400000D02*
X122720000Y-77200000D01*
X110480000Y-73000000D02*
X110480000Y-74200000D01*
X108720000Y-74200000D02*
X108720000Y-73000000D01*
X121680000Y-73000000D02*
X121680000Y-74200000D01*
X119920000Y-74200000D02*
X119920000Y-73000000D01*
X114320000Y-82000000D02*
X114320000Y-80800000D01*
X116080000Y-80800000D02*
X116080000Y-82000000D01*
X113080000Y-58455000D02*
X113080000Y-59655000D01*
X111320000Y-59655000D02*
X111320000Y-58455000D01*
X115815000Y-58455000D02*
X115815000Y-59655000D01*
X114055000Y-59655000D02*
X114055000Y-58455000D01*
X118480000Y-58455000D02*
X118480000Y-59655000D01*
X116720000Y-59655000D02*
X116720000Y-58455000D01*
X121680000Y-80800000D02*
X121680000Y-82000000D01*
X119920000Y-82000000D02*
X119920000Y-80800000D01*
X118880000Y-80800000D02*
X118880000Y-82000000D01*
X117120000Y-82000000D02*
X117120000Y-80800000D01*
X119720000Y-87800000D02*
X119720000Y-86600000D01*
X121480000Y-86600000D02*
X121480000Y-87800000D01*
X118680000Y-86600000D02*
X118680000Y-87800000D01*
X116920000Y-87800000D02*
X116920000Y-86600000D01*
X114055000Y-87800000D02*
X114055000Y-86600000D01*
X115815000Y-86600000D02*
X115815000Y-87800000D01*
X112700000Y-103390000D02*
X118710000Y-103390000D01*
X114950000Y-110210000D02*
X118710000Y-110210000D01*
X118710000Y-103390000D02*
X118710000Y-104650000D01*
X118710000Y-110210000D02*
X118710000Y-108950000D01*
X112210000Y-82490000D02*
X110950000Y-82490000D01*
X105390000Y-82490000D02*
X106650000Y-82490000D01*
X112210000Y-86250000D02*
X112210000Y-82490000D01*
X105390000Y-88500000D02*
X105390000Y-82490000D01*
X106740000Y-62170000D02*
X104080000Y-62170000D01*
X106740000Y-69850000D02*
X106740000Y-62170000D01*
X104080000Y-69850000D02*
X104080000Y-62170000D01*
X106740000Y-69850000D02*
X104080000Y-69850000D01*
X106740000Y-71120000D02*
X106740000Y-72450000D01*
X106740000Y-72450000D02*
X105410000Y-72450000D01*
X106740000Y-103946000D02*
X105410000Y-103946000D01*
X106740000Y-102616000D02*
X106740000Y-103946000D01*
X106740000Y-101346000D02*
X104080000Y-101346000D01*
X104080000Y-101346000D02*
X104080000Y-93666000D01*
X106740000Y-101346000D02*
X106740000Y-93666000D01*
X106740000Y-93666000D02*
X104080000Y-93666000D01*
X127060000Y-72450000D02*
X125730000Y-72450000D01*
X127060000Y-71120000D02*
X127060000Y-72450000D01*
X127060000Y-69850000D02*
X124400000Y-69850000D01*
X124400000Y-69850000D02*
X124400000Y-62170000D01*
X127060000Y-69850000D02*
X127060000Y-62170000D01*
X127060000Y-62170000D02*
X124400000Y-62170000D01*
X127060000Y-93666000D02*
X124400000Y-93666000D01*
X127060000Y-101346000D02*
X127060000Y-93666000D01*
X124400000Y-101346000D02*
X124400000Y-93666000D01*
X127060000Y-101346000D02*
X124400000Y-101346000D01*
X127060000Y-102616000D02*
X127060000Y-103946000D01*
X127060000Y-103946000D02*
X125730000Y-103946000D01*
X147270000Y-73390000D02*
X147270000Y-72440000D01*
X147270000Y-72440000D02*
X146320000Y-72440000D01*
X147270000Y-91710000D02*
X147270000Y-92660000D01*
X147270000Y-92660000D02*
X146320000Y-92660000D01*
X127050000Y-73390000D02*
X127050000Y-72440000D01*
X127050000Y-72440000D02*
X128000000Y-72440000D01*
X127050000Y-91710000D02*
X127050000Y-92660000D01*
X127050000Y-92660000D02*
X128000000Y-92660000D01*
X128000000Y-92660000D02*
X128000000Y-93950000D01*
X127050000Y-106600000D02*
X125750000Y-106600000D01*
X126400000Y-106000000D02*
X126400000Y-107200000D01*
X126646000Y-114031000D02*
X126154000Y-114031000D01*
X126998000Y-113991000D02*
X125802000Y-113991000D01*
X127214000Y-113951000D02*
X125586000Y-113951000D01*
X127383000Y-113911000D02*
X125417000Y-113911000D01*
X127527000Y-113871000D02*
X125273000Y-113871000D01*
X127654000Y-113831000D02*
X125146000Y-113831000D01*
X127769000Y-113791000D02*
X125031000Y-113791000D01*
X127873000Y-113751000D02*
X124927000Y-113751000D01*
X127970000Y-113711000D02*
X124830000Y-113711000D01*
X128060000Y-113671000D02*
X124740000Y-113671000D01*
X128145000Y-113631000D02*
X124655000Y-113631000D01*
X128226000Y-113591000D02*
X124574000Y-113591000D01*
X128302000Y-113551000D02*
X124498000Y-113551000D01*
X128374000Y-113511000D02*
X124426000Y-113511000D01*
X128443000Y-113471000D02*
X124357000Y-113471000D01*
X128509000Y-113431000D02*
X124291000Y-113431000D01*
X128573000Y-113391000D02*
X124227000Y-113391000D01*
X128634000Y-113351000D02*
X124166000Y-113351000D01*
X128693000Y-113311000D02*
X124107000Y-113311000D01*
X128749000Y-113271000D02*
X124051000Y-113271000D01*
X128804000Y-113231000D02*
X123996000Y-113231000D01*
X128857000Y-113191000D02*
X123943000Y-113191000D01*
X128908000Y-113151000D02*
X123892000Y-113151000D01*
X128957000Y-113111000D02*
X123843000Y-113111000D01*
X129005000Y-113071000D02*
X123795000Y-113071000D01*
X129052000Y-113031000D02*
X123748000Y-113031000D01*
X129097000Y-112991000D02*
X123703000Y-112991000D01*
X129140000Y-112951000D02*
X123660000Y-112951000D01*
X129183000Y-112911000D02*
X123617000Y-112911000D01*
X129224000Y-112871000D02*
X123576000Y-112871000D01*
X129265000Y-112831000D02*
X123535000Y-112831000D01*
X129304000Y-112791000D02*
X123496000Y-112791000D01*
X129342000Y-112751000D02*
X123458000Y-112751000D01*
X129379000Y-112711000D02*
X123421000Y-112711000D01*
X125420000Y-112671000D02*
X123385000Y-112671000D01*
X129415000Y-112671000D02*
X127380000Y-112671000D01*
X125420000Y-112631000D02*
X123350000Y-112631000D01*
X129450000Y-112631000D02*
X127380000Y-112631000D01*
X125420000Y-112591000D02*
X123316000Y-112591000D01*
X129484000Y-112591000D02*
X127380000Y-112591000D01*
X125420000Y-112551000D02*
X123282000Y-112551000D01*
X129518000Y-112551000D02*
X127380000Y-112551000D01*
X125420000Y-112511000D02*
X123250000Y-112511000D01*
X129550000Y-112511000D02*
X127380000Y-112511000D01*
X125420000Y-112471000D02*
X123218000Y-112471000D01*
X129582000Y-112471000D02*
X127380000Y-112471000D01*
X125420000Y-112431000D02*
X123187000Y-112431000D01*
X129613000Y-112431000D02*
X127380000Y-112431000D01*
X125420000Y-112391000D02*
X123157000Y-112391000D01*
X129643000Y-112391000D02*
X127380000Y-112391000D01*
X125420000Y-112351000D02*
X123128000Y-112351000D01*
X129672000Y-112351000D02*
X127380000Y-112351000D01*
X125420000Y-112311000D02*
X123099000Y-112311000D01*
X129701000Y-112311000D02*
X127380000Y-112311000D01*
X125420000Y-112271000D02*
X123071000Y-112271000D01*
X129729000Y-112271000D02*
X127380000Y-112271000D01*
X125420000Y-112231000D02*
X123044000Y-112231000D01*
X129756000Y-112231000D02*
X127380000Y-112231000D01*
X125420000Y-112191000D02*
X123017000Y-112191000D01*
X129783000Y-112191000D02*
X127380000Y-112191000D01*
X125420000Y-112151000D02*
X122992000Y-112151000D01*
X129808000Y-112151000D02*
X127380000Y-112151000D01*
X125420000Y-112111000D02*
X122966000Y-112111000D01*
X129834000Y-112111000D02*
X127380000Y-112111000D01*
X125420000Y-112071000D02*
X122942000Y-112071000D01*
X129858000Y-112071000D02*
X127380000Y-112071000D01*
X125420000Y-112031000D02*
X122918000Y-112031000D01*
X129882000Y-112031000D02*
X127380000Y-112031000D01*
X125420000Y-111991000D02*
X122895000Y-111991000D01*
X129905000Y-111991000D02*
X127380000Y-111991000D01*
X125420000Y-111951000D02*
X122872000Y-111951000D01*
X129928000Y-111951000D02*
X127380000Y-111951000D01*
X125420000Y-111911000D02*
X122850000Y-111911000D01*
X129950000Y-111911000D02*
X127380000Y-111911000D01*
X125420000Y-111871000D02*
X122828000Y-111871000D01*
X129972000Y-111871000D02*
X127380000Y-111871000D01*
X125420000Y-111831000D02*
X122807000Y-111831000D01*
X129993000Y-111831000D02*
X127380000Y-111831000D01*
X125420000Y-111791000D02*
X122787000Y-111791000D01*
X130013000Y-111791000D02*
X127380000Y-111791000D01*
X125420000Y-111751000D02*
X122767000Y-111751000D01*
X130033000Y-111751000D02*
X127380000Y-111751000D01*
X125420000Y-111711000D02*
X122748000Y-111711000D01*
X130052000Y-111711000D02*
X127380000Y-111711000D01*
X125420000Y-111671000D02*
X122729000Y-111671000D01*
X130071000Y-111671000D02*
X127380000Y-111671000D01*
X125420000Y-111631000D02*
X122710000Y-111631000D01*
X130090000Y-111631000D02*
X127380000Y-111631000D01*
X125420000Y-111591000D02*
X122693000Y-111591000D01*
X130107000Y-111591000D02*
X127380000Y-111591000D01*
X125420000Y-111551000D02*
X122675000Y-111551000D01*
X130125000Y-111551000D02*
X127380000Y-111551000D01*
X125420000Y-111511000D02*
X122659000Y-111511000D01*
X130141000Y-111511000D02*
X127380000Y-111511000D01*
X125420000Y-111471000D02*
X122642000Y-111471000D01*
X130158000Y-111471000D02*
X127380000Y-111471000D01*
X125420000Y-111431000D02*
X122627000Y-111431000D01*
X130173000Y-111431000D02*
X127380000Y-111431000D01*
X125420000Y-111391000D02*
X122611000Y-111391000D01*
X130189000Y-111391000D02*
X127380000Y-111391000D01*
X125420000Y-111351000D02*
X122597000Y-111351000D01*
X130203000Y-111351000D02*
X127380000Y-111351000D01*
X125420000Y-111311000D02*
X122582000Y-111311000D01*
X130218000Y-111311000D02*
X127380000Y-111311000D01*
X125420000Y-111271000D02*
X122568000Y-111271000D01*
X130232000Y-111271000D02*
X127380000Y-111271000D01*
X125420000Y-111231000D02*
X122555000Y-111231000D01*
X130245000Y-111231000D02*
X127380000Y-111231000D01*
X125420000Y-111191000D02*
X122542000Y-111191000D01*
X130258000Y-111191000D02*
X127380000Y-111191000D01*
X125420000Y-111151000D02*
X122530000Y-111151000D01*
X130270000Y-111151000D02*
X127380000Y-111151000D01*
X125420000Y-111111000D02*
X122517000Y-111111000D01*
X130283000Y-111111000D02*
X127380000Y-111111000D01*
X125420000Y-111071000D02*
X122506000Y-111071000D01*
X130294000Y-111071000D02*
X127380000Y-111071000D01*
X125420000Y-111031000D02*
X122495000Y-111031000D01*
X130305000Y-111031000D02*
X127380000Y-111031000D01*
X125420000Y-110991000D02*
X122484000Y-110991000D01*
X130316000Y-110991000D02*
X127380000Y-110991000D01*
X125420000Y-110951000D02*
X122474000Y-110951000D01*
X130326000Y-110951000D02*
X127380000Y-110951000D01*
X125420000Y-110911000D02*
X122464000Y-110911000D01*
X130336000Y-110911000D02*
X127380000Y-110911000D01*
X125420000Y-110871000D02*
X122454000Y-110871000D01*
X130346000Y-110871000D02*
X127380000Y-110871000D01*
X125420000Y-110831000D02*
X122445000Y-110831000D01*
X130355000Y-110831000D02*
X127380000Y-110831000D01*
X125420000Y-110791000D02*
X122437000Y-110791000D01*
X130363000Y-110791000D02*
X127380000Y-110791000D01*
X125420000Y-110751000D02*
X122429000Y-110751000D01*
X130371000Y-110751000D02*
X127380000Y-110751000D01*
X130379000Y-110711000D02*
X122421000Y-110711000D01*
X130387000Y-110671000D02*
X122413000Y-110671000D01*
X130394000Y-110630000D02*
X122406000Y-110630000D01*
X130400000Y-110590000D02*
X122400000Y-110590000D01*
X130406000Y-110550000D02*
X122394000Y-110550000D01*
X130412000Y-110510000D02*
X122388000Y-110510000D01*
X130417000Y-110470000D02*
X122383000Y-110470000D01*
X130422000Y-110430000D02*
X122378000Y-110430000D01*
X130427000Y-110390000D02*
X122373000Y-110390000D01*
X130431000Y-110350000D02*
X122369000Y-110350000D01*
X130435000Y-110310000D02*
X122365000Y-110310000D01*
X130438000Y-110270000D02*
X122362000Y-110270000D01*
X130441000Y-110230000D02*
X122359000Y-110230000D01*
X130443000Y-110190000D02*
X122357000Y-110190000D01*
X130446000Y-110150000D02*
X122354000Y-110150000D01*
X130447000Y-110110000D02*
X122353000Y-110110000D01*
X130449000Y-110070000D02*
X122351000Y-110070000D01*
X130450000Y-110030000D02*
X122350000Y-110030000D01*
X130450000Y-109990000D02*
X122350000Y-109990000D01*
X130450000Y-109950000D02*
X122350000Y-109950000D01*
X130490000Y-109950000D02*
G75*
G03X130490000Y-109950000I-4090000J0D01*
G01*
D11*
X112166666Y-68185714D02*
X112166666Y-67709523D01*
X112452380Y-68280952D02*
X111452380Y-67947619D01*
X112452380Y-67614285D01*
X112452380Y-67280952D02*
X111452380Y-67280952D01*
X112166666Y-66947619D01*
X111452380Y-66614285D01*
X112452380Y-66614285D01*
X112452380Y-66138095D02*
X111452380Y-66138095D01*
X111452380Y-65757142D01*
X111500000Y-65661904D01*
X111547619Y-65614285D01*
X111642857Y-65566666D01*
X111785714Y-65566666D01*
X111880952Y-65614285D01*
X111928571Y-65661904D01*
X111976190Y-65757142D01*
X111976190Y-66138095D01*
X111547619Y-65185714D02*
X111500000Y-65138095D01*
X111452380Y-65042857D01*
X111452380Y-64804761D01*
X111500000Y-64709523D01*
X111547619Y-64661904D01*
X111642857Y-64614285D01*
X111738095Y-64614285D01*
X111880952Y-64661904D01*
X112452380Y-65233333D01*
X112452380Y-64614285D01*
X157166666Y-65699380D02*
X157166666Y-66413666D01*
X157119047Y-66556523D01*
X157023809Y-66651761D01*
X156880952Y-66699380D01*
X156785714Y-66699380D01*
X158166666Y-66699380D02*
X157595238Y-66699380D01*
X157880952Y-66699380D02*
X157880952Y-65699380D01*
X157785714Y-65842238D01*
X157690476Y-65937476D01*
X157595238Y-65985095D01*
X117066666Y-96852380D02*
X117066666Y-97566666D01*
X117019047Y-97709523D01*
X116923809Y-97804761D01*
X116780952Y-97852380D01*
X116685714Y-97852380D01*
X117542857Y-97852380D02*
X117542857Y-96852380D01*
X117923809Y-96852380D01*
X118019047Y-96900000D01*
X118066666Y-96947619D01*
X118114285Y-97042857D01*
X118114285Y-97185714D01*
X118066666Y-97280952D01*
X118019047Y-97328571D01*
X117923809Y-97376190D01*
X117542857Y-97376190D01*
X119019047Y-97852380D02*
X118542857Y-97852380D01*
X118542857Y-96852380D01*
X119352380Y-96852380D02*
X119352380Y-97661904D01*
X119400000Y-97757142D01*
X119447619Y-97804761D01*
X119542857Y-97852380D01*
X119733333Y-97852380D01*
X119828571Y-97804761D01*
X119876190Y-97757142D01*
X119923809Y-97661904D01*
X119923809Y-96852380D01*
X120400000Y-97852380D02*
X120400000Y-96852380D01*
X120733333Y-97566666D01*
X121066666Y-96852380D01*
X121066666Y-97852380D01*
X122066666Y-97852380D02*
X121495238Y-97852380D01*
X121780952Y-97852380D02*
X121780952Y-96852380D01*
X121685714Y-96995238D01*
X121590476Y-97090476D01*
X121495238Y-97138095D01*
X160804761Y-98133333D02*
X160852380Y-97990476D01*
X160852380Y-97752380D01*
X160804761Y-97657142D01*
X160757142Y-97609523D01*
X160661904Y-97561904D01*
X160566666Y-97561904D01*
X160471428Y-97609523D01*
X160423809Y-97657142D01*
X160376190Y-97752380D01*
X160328571Y-97942857D01*
X160280952Y-98038095D01*
X160233333Y-98085714D01*
X160138095Y-98133333D01*
X160042857Y-98133333D01*
X159947619Y-98085714D01*
X159900000Y-98038095D01*
X159852380Y-97942857D01*
X159852380Y-97704761D01*
X159900000Y-97561904D01*
X159852380Y-97228571D02*
X160852380Y-96990476D01*
X160138095Y-96800000D01*
X160852380Y-96609523D01*
X159852380Y-96371428D01*
X160852380Y-95466666D02*
X160852380Y-96038095D01*
X160852380Y-95752380D02*
X159852380Y-95752380D01*
X159995238Y-95847619D01*
X160090476Y-95942857D01*
X160138095Y-96038095D01*
X106433333Y-91157142D02*
X106385714Y-91204761D01*
X106242857Y-91252380D01*
X106147619Y-91252380D01*
X106004761Y-91204761D01*
X105909523Y-91109523D01*
X105861904Y-91014285D01*
X105814285Y-90823809D01*
X105814285Y-90680952D01*
X105861904Y-90490476D01*
X105909523Y-90395238D01*
X106004761Y-90300000D01*
X106147619Y-90252380D01*
X106242857Y-90252380D01*
X106385714Y-90300000D01*
X106433333Y-90347619D01*
X107385714Y-91252380D02*
X106814285Y-91252380D01*
X107100000Y-91252380D02*
X107100000Y-90252380D01*
X107004761Y-90395238D01*
X106909523Y-90490476D01*
X106814285Y-90538095D01*
X129557142Y-104566666D02*
X129604761Y-104614285D01*
X129652380Y-104757142D01*
X129652380Y-104852380D01*
X129604761Y-104995238D01*
X129509523Y-105090476D01*
X129414285Y-105138095D01*
X129223809Y-105185714D01*
X129080952Y-105185714D01*
X128890476Y-105138095D01*
X128795238Y-105090476D01*
X128700000Y-104995238D01*
X128652380Y-104852380D01*
X128652380Y-104757142D01*
X128700000Y-104614285D01*
X128747619Y-104566666D01*
X128747619Y-104185714D02*
X128700000Y-104138095D01*
X128652380Y-104042857D01*
X128652380Y-103804761D01*
X128700000Y-103709523D01*
X128747619Y-103661904D01*
X128842857Y-103614285D01*
X128938095Y-103614285D01*
X129080952Y-103661904D01*
X129652380Y-104233333D01*
X129652380Y-103614285D01*
X156833333Y-114157142D02*
X156785714Y-114204761D01*
X156642857Y-114252380D01*
X156547619Y-114252380D01*
X156404761Y-114204761D01*
X156309523Y-114109523D01*
X156261904Y-114014285D01*
X156214285Y-113823809D01*
X156214285Y-113680952D01*
X156261904Y-113490476D01*
X156309523Y-113395238D01*
X156404761Y-113300000D01*
X156547619Y-113252380D01*
X156642857Y-113252380D01*
X156785714Y-113300000D01*
X156833333Y-113347619D01*
X157166666Y-113252380D02*
X157785714Y-113252380D01*
X157452380Y-113633333D01*
X157595238Y-113633333D01*
X157690476Y-113680952D01*
X157738095Y-113728571D01*
X157785714Y-113823809D01*
X157785714Y-114061904D01*
X157738095Y-114157142D01*
X157690476Y-114204761D01*
X157595238Y-114252380D01*
X157309523Y-114252380D01*
X157214285Y-114204761D01*
X157166666Y-114157142D01*
X138233333Y-112957142D02*
X138185714Y-113004761D01*
X138042857Y-113052380D01*
X137947619Y-113052380D01*
X137804761Y-113004761D01*
X137709523Y-112909523D01*
X137661904Y-112814285D01*
X137614285Y-112623809D01*
X137614285Y-112480952D01*
X137661904Y-112290476D01*
X137709523Y-112195238D01*
X137804761Y-112100000D01*
X137947619Y-112052380D01*
X138042857Y-112052380D01*
X138185714Y-112100000D01*
X138233333Y-112147619D01*
X139090476Y-112385714D02*
X139090476Y-113052380D01*
X138852380Y-112004761D02*
X138614285Y-112719047D01*
X139233333Y-112719047D01*
X164107142Y-111366666D02*
X164154761Y-111414285D01*
X164202380Y-111557142D01*
X164202380Y-111652380D01*
X164154761Y-111795238D01*
X164059523Y-111890476D01*
X163964285Y-111938095D01*
X163773809Y-111985714D01*
X163630952Y-111985714D01*
X163440476Y-111938095D01*
X163345238Y-111890476D01*
X163250000Y-111795238D01*
X163202380Y-111652380D01*
X163202380Y-111557142D01*
X163250000Y-111414285D01*
X163297619Y-111366666D01*
X163202380Y-110461904D02*
X163202380Y-110938095D01*
X163678571Y-110985714D01*
X163630952Y-110938095D01*
X163583333Y-110842857D01*
X163583333Y-110604761D01*
X163630952Y-110509523D01*
X163678571Y-110461904D01*
X163773809Y-110414285D01*
X164011904Y-110414285D01*
X164107142Y-110461904D01*
X164154761Y-110509523D01*
X164202380Y-110604761D01*
X164202380Y-110842857D01*
X164154761Y-110938095D01*
X164107142Y-110985714D01*
X106033333Y-76757142D02*
X105985714Y-76804761D01*
X105842857Y-76852380D01*
X105747619Y-76852380D01*
X105604761Y-76804761D01*
X105509523Y-76709523D01*
X105461904Y-76614285D01*
X105414285Y-76423809D01*
X105414285Y-76280952D01*
X105461904Y-76090476D01*
X105509523Y-75995238D01*
X105604761Y-75900000D01*
X105747619Y-75852380D01*
X105842857Y-75852380D01*
X105985714Y-75900000D01*
X106033333Y-75947619D01*
X106509523Y-76852380D02*
X106700000Y-76852380D01*
X106795238Y-76804761D01*
X106842857Y-76757142D01*
X106938095Y-76614285D01*
X106985714Y-76423809D01*
X106985714Y-76042857D01*
X106938095Y-75947619D01*
X106890476Y-75900000D01*
X106795238Y-75852380D01*
X106604761Y-75852380D01*
X106509523Y-75900000D01*
X106461904Y-75947619D01*
X106414285Y-76042857D01*
X106414285Y-76280952D01*
X106461904Y-76376190D01*
X106509523Y-76423809D01*
X106604761Y-76471428D01*
X106795238Y-76471428D01*
X106890476Y-76423809D01*
X106938095Y-76376190D01*
X106985714Y-76280952D01*
X114557142Y-76957142D02*
X114509523Y-77004761D01*
X114366666Y-77052380D01*
X114271428Y-77052380D01*
X114128571Y-77004761D01*
X114033333Y-76909523D01*
X113985714Y-76814285D01*
X113938095Y-76623809D01*
X113938095Y-76480952D01*
X113985714Y-76290476D01*
X114033333Y-76195238D01*
X114128571Y-76100000D01*
X114271428Y-76052380D01*
X114366666Y-76052380D01*
X114509523Y-76100000D01*
X114557142Y-76147619D01*
X115509523Y-77052380D02*
X114938095Y-77052380D01*
X115223809Y-77052380D02*
X115223809Y-76052380D01*
X115128571Y-76195238D01*
X115033333Y-76290476D01*
X114938095Y-76338095D01*
X116128571Y-76052380D02*
X116223809Y-76052380D01*
X116319047Y-76100000D01*
X116366666Y-76147619D01*
X116414285Y-76242857D01*
X116461904Y-76433333D01*
X116461904Y-76671428D01*
X116414285Y-76861904D01*
X116366666Y-76957142D01*
X116319047Y-77004761D01*
X116223809Y-77052380D01*
X116128571Y-77052380D01*
X116033333Y-77004761D01*
X115985714Y-76957142D01*
X115938095Y-76861904D01*
X115890476Y-76671428D01*
X115890476Y-76433333D01*
X115938095Y-76242857D01*
X115985714Y-76147619D01*
X116033333Y-76100000D01*
X116128571Y-76052380D01*
X111157142Y-76957142D02*
X111109523Y-77004761D01*
X110966666Y-77052380D01*
X110871428Y-77052380D01*
X110728571Y-77004761D01*
X110633333Y-76909523D01*
X110585714Y-76814285D01*
X110538095Y-76623809D01*
X110538095Y-76480952D01*
X110585714Y-76290476D01*
X110633333Y-76195238D01*
X110728571Y-76100000D01*
X110871428Y-76052380D01*
X110966666Y-76052380D01*
X111109523Y-76100000D01*
X111157142Y-76147619D01*
X111538095Y-76147619D02*
X111585714Y-76100000D01*
X111680952Y-76052380D01*
X111919047Y-76052380D01*
X112014285Y-76100000D01*
X112061904Y-76147619D01*
X112109523Y-76242857D01*
X112109523Y-76338095D01*
X112061904Y-76480952D01*
X111490476Y-77052380D01*
X112109523Y-77052380D01*
X112680952Y-76480952D02*
X112585714Y-76433333D01*
X112538095Y-76385714D01*
X112490476Y-76290476D01*
X112490476Y-76242857D01*
X112538095Y-76147619D01*
X112585714Y-76100000D01*
X112680952Y-76052380D01*
X112871428Y-76052380D01*
X112966666Y-76100000D01*
X113014285Y-76147619D01*
X113061904Y-76242857D01*
X113061904Y-76290476D01*
X113014285Y-76385714D01*
X112966666Y-76433333D01*
X112871428Y-76480952D01*
X112680952Y-76480952D01*
X112585714Y-76528571D01*
X112538095Y-76576190D01*
X112490476Y-76671428D01*
X112490476Y-76861904D01*
X112538095Y-76957142D01*
X112585714Y-77004761D01*
X112680952Y-77052380D01*
X112871428Y-77052380D01*
X112966666Y-77004761D01*
X113014285Y-76957142D01*
X113061904Y-76861904D01*
X113061904Y-76671428D01*
X113014285Y-76576190D01*
X112966666Y-76528571D01*
X112871428Y-76480952D01*
X117757142Y-76957142D02*
X117709523Y-77004761D01*
X117566666Y-77052380D01*
X117471428Y-77052380D01*
X117328571Y-77004761D01*
X117233333Y-76909523D01*
X117185714Y-76814285D01*
X117138095Y-76623809D01*
X117138095Y-76480952D01*
X117185714Y-76290476D01*
X117233333Y-76195238D01*
X117328571Y-76100000D01*
X117471428Y-76052380D01*
X117566666Y-76052380D01*
X117709523Y-76100000D01*
X117757142Y-76147619D01*
X118138095Y-76147619D02*
X118185714Y-76100000D01*
X118280952Y-76052380D01*
X118519047Y-76052380D01*
X118614285Y-76100000D01*
X118661904Y-76147619D01*
X118709523Y-76242857D01*
X118709523Y-76338095D01*
X118661904Y-76480952D01*
X118090476Y-77052380D01*
X118709523Y-77052380D01*
X119185714Y-77052380D02*
X119376190Y-77052380D01*
X119471428Y-77004761D01*
X119519047Y-76957142D01*
X119614285Y-76814285D01*
X119661904Y-76623809D01*
X119661904Y-76242857D01*
X119614285Y-76147619D01*
X119566666Y-76100000D01*
X119471428Y-76052380D01*
X119280952Y-76052380D01*
X119185714Y-76100000D01*
X119138095Y-76147619D01*
X119090476Y-76242857D01*
X119090476Y-76480952D01*
X119138095Y-76576190D01*
X119185714Y-76623809D01*
X119280952Y-76671428D01*
X119471428Y-76671428D01*
X119566666Y-76623809D01*
X119614285Y-76576190D01*
X119661904Y-76480952D01*
X108557142Y-108242857D02*
X108604761Y-108290476D01*
X108652380Y-108433333D01*
X108652380Y-108528571D01*
X108604761Y-108671428D01*
X108509523Y-108766666D01*
X108414285Y-108814285D01*
X108223809Y-108861904D01*
X108080952Y-108861904D01*
X107890476Y-108814285D01*
X107795238Y-108766666D01*
X107700000Y-108671428D01*
X107652380Y-108528571D01*
X107652380Y-108433333D01*
X107700000Y-108290476D01*
X107747619Y-108242857D01*
X107652380Y-107909523D02*
X107652380Y-107290476D01*
X108033333Y-107623809D01*
X108033333Y-107480952D01*
X108080952Y-107385714D01*
X108128571Y-107338095D01*
X108223809Y-107290476D01*
X108461904Y-107290476D01*
X108557142Y-107338095D01*
X108604761Y-107385714D01*
X108652380Y-107480952D01*
X108652380Y-107766666D01*
X108604761Y-107861904D01*
X108557142Y-107909523D01*
X107652380Y-106671428D02*
X107652380Y-106576190D01*
X107700000Y-106480952D01*
X107747619Y-106433333D01*
X107842857Y-106385714D01*
X108033333Y-106338095D01*
X108271428Y-106338095D01*
X108461904Y-106385714D01*
X108557142Y-106433333D01*
X108604761Y-106480952D01*
X108652380Y-106576190D01*
X108652380Y-106671428D01*
X108604761Y-106766666D01*
X108557142Y-106814285D01*
X108461904Y-106861904D01*
X108271428Y-106909523D01*
X108033333Y-106909523D01*
X107842857Y-106861904D01*
X107747619Y-106814285D01*
X107700000Y-106766666D01*
X107652380Y-106671428D01*
X113361904Y-112500000D02*
X113266666Y-112452380D01*
X113123809Y-112452380D01*
X112980952Y-112500000D01*
X112885714Y-112595238D01*
X112838095Y-112690476D01*
X112790476Y-112880952D01*
X112790476Y-113023809D01*
X112838095Y-113214285D01*
X112885714Y-113309523D01*
X112980952Y-113404761D01*
X113123809Y-113452380D01*
X113219047Y-113452380D01*
X113361904Y-113404761D01*
X113409523Y-113357142D01*
X113409523Y-113023809D01*
X113219047Y-113023809D01*
X113838095Y-113452380D02*
X113838095Y-112452380D01*
X114409523Y-113452380D01*
X114409523Y-112452380D01*
X114885714Y-113452380D02*
X114885714Y-112452380D01*
X115123809Y-112452380D01*
X115266666Y-112500000D01*
X115361904Y-112595238D01*
X115409523Y-112690476D01*
X115457142Y-112880952D01*
X115457142Y-113023809D01*
X115409523Y-113214285D01*
X115361904Y-113309523D01*
X115266666Y-113404761D01*
X115123809Y-113452380D01*
X114885714Y-113452380D01*
X116409523Y-113452380D02*
X115838095Y-113452380D01*
X116123809Y-113452380D02*
X116123809Y-112452380D01*
X116028571Y-112595238D01*
X115933333Y-112690476D01*
X115838095Y-112738095D01*
X113161904Y-52300000D02*
X113066666Y-52252380D01*
X112923809Y-52252380D01*
X112780952Y-52300000D01*
X112685714Y-52395238D01*
X112638095Y-52490476D01*
X112590476Y-52680952D01*
X112590476Y-52823809D01*
X112638095Y-53014285D01*
X112685714Y-53109523D01*
X112780952Y-53204761D01*
X112923809Y-53252380D01*
X113019047Y-53252380D01*
X113161904Y-53204761D01*
X113209523Y-53157142D01*
X113209523Y-52823809D01*
X113019047Y-52823809D01*
X113638095Y-53252380D02*
X113638095Y-52252380D01*
X114209523Y-53252380D01*
X114209523Y-52252380D01*
X114685714Y-53252380D02*
X114685714Y-52252380D01*
X114923809Y-52252380D01*
X115066666Y-52300000D01*
X115161904Y-52395238D01*
X115209523Y-52490476D01*
X115257142Y-52680952D01*
X115257142Y-52823809D01*
X115209523Y-53014285D01*
X115161904Y-53109523D01*
X115066666Y-53204761D01*
X114923809Y-53252380D01*
X114685714Y-53252380D01*
X115638095Y-52347619D02*
X115685714Y-52300000D01*
X115780952Y-52252380D01*
X116019047Y-52252380D01*
X116114285Y-52300000D01*
X116161904Y-52347619D01*
X116209523Y-52442857D01*
X116209523Y-52538095D01*
X116161904Y-52680952D01*
X115590476Y-53252380D01*
X116209523Y-53252380D01*
X142361904Y-112700000D02*
X142266666Y-112652380D01*
X142123809Y-112652380D01*
X141980952Y-112700000D01*
X141885714Y-112795238D01*
X141838095Y-112890476D01*
X141790476Y-113080952D01*
X141790476Y-113223809D01*
X141838095Y-113414285D01*
X141885714Y-113509523D01*
X141980952Y-113604761D01*
X142123809Y-113652380D01*
X142219047Y-113652380D01*
X142361904Y-113604761D01*
X142409523Y-113557142D01*
X142409523Y-113223809D01*
X142219047Y-113223809D01*
X142838095Y-113652380D02*
X142838095Y-112652380D01*
X143409523Y-113652380D01*
X143409523Y-112652380D01*
X143885714Y-113652380D02*
X143885714Y-112652380D01*
X144123809Y-112652380D01*
X144266666Y-112700000D01*
X144361904Y-112795238D01*
X144409523Y-112890476D01*
X144457142Y-113080952D01*
X144457142Y-113223809D01*
X144409523Y-113414285D01*
X144361904Y-113509523D01*
X144266666Y-113604761D01*
X144123809Y-113652380D01*
X143885714Y-113652380D01*
X144790476Y-112652380D02*
X145409523Y-112652380D01*
X145076190Y-113033333D01*
X145219047Y-113033333D01*
X145314285Y-113080952D01*
X145361904Y-113128571D01*
X145409523Y-113223809D01*
X145409523Y-113461904D01*
X145361904Y-113557142D01*
X145314285Y-113604761D01*
X145219047Y-113652380D01*
X144933333Y-113652380D01*
X144838095Y-113604761D01*
X144790476Y-113557142D01*
X142361904Y-52300000D02*
X142266666Y-52252380D01*
X142123809Y-52252380D01*
X141980952Y-52300000D01*
X141885714Y-52395238D01*
X141838095Y-52490476D01*
X141790476Y-52680952D01*
X141790476Y-52823809D01*
X141838095Y-53014285D01*
X141885714Y-53109523D01*
X141980952Y-53204761D01*
X142123809Y-53252380D01*
X142219047Y-53252380D01*
X142361904Y-53204761D01*
X142409523Y-53157142D01*
X142409523Y-52823809D01*
X142219047Y-52823809D01*
X142838095Y-53252380D02*
X142838095Y-52252380D01*
X143409523Y-53252380D01*
X143409523Y-52252380D01*
X143885714Y-53252380D02*
X143885714Y-52252380D01*
X144123809Y-52252380D01*
X144266666Y-52300000D01*
X144361904Y-52395238D01*
X144409523Y-52490476D01*
X144457142Y-52680952D01*
X144457142Y-52823809D01*
X144409523Y-53014285D01*
X144361904Y-53109523D01*
X144266666Y-53204761D01*
X144123809Y-53252380D01*
X143885714Y-53252380D01*
X145314285Y-52585714D02*
X145314285Y-53252380D01*
X145076190Y-52204761D02*
X144838095Y-52919047D01*
X145457142Y-52919047D01*
X161321904Y-86285000D02*
X161226666Y-86237380D01*
X161083809Y-86237380D01*
X160940952Y-86285000D01*
X160845714Y-86380238D01*
X160798095Y-86475476D01*
X160750476Y-86665952D01*
X160750476Y-86808809D01*
X160798095Y-86999285D01*
X160845714Y-87094523D01*
X160940952Y-87189761D01*
X161083809Y-87237380D01*
X161179047Y-87237380D01*
X161321904Y-87189761D01*
X161369523Y-87142142D01*
X161369523Y-86808809D01*
X161179047Y-86808809D01*
X161798095Y-87237380D02*
X161798095Y-86237380D01*
X162369523Y-87237380D01*
X162369523Y-86237380D01*
X162845714Y-87237380D02*
X162845714Y-86237380D01*
X163083809Y-86237380D01*
X163226666Y-86285000D01*
X163321904Y-86380238D01*
X163369523Y-86475476D01*
X163417142Y-86665952D01*
X163417142Y-86808809D01*
X163369523Y-86999285D01*
X163321904Y-87094523D01*
X163226666Y-87189761D01*
X163083809Y-87237380D01*
X162845714Y-87237380D01*
X164321904Y-86237380D02*
X163845714Y-86237380D01*
X163798095Y-86713571D01*
X163845714Y-86665952D01*
X163940952Y-86618333D01*
X164179047Y-86618333D01*
X164274285Y-86665952D01*
X164321904Y-86713571D01*
X164369523Y-86808809D01*
X164369523Y-87046904D01*
X164321904Y-87142142D01*
X164274285Y-87189761D01*
X164179047Y-87237380D01*
X163940952Y-87237380D01*
X163845714Y-87189761D01*
X163798095Y-87142142D01*
X155230000Y-60746190D02*
X155182380Y-60841428D01*
X155182380Y-60984285D01*
X155230000Y-61127142D01*
X155325238Y-61222380D01*
X155420476Y-61270000D01*
X155610952Y-61317619D01*
X155753809Y-61317619D01*
X155944285Y-61270000D01*
X156039523Y-61222380D01*
X156134761Y-61127142D01*
X156182380Y-60984285D01*
X156182380Y-60889047D01*
X156134761Y-60746190D01*
X156087142Y-60698571D01*
X155753809Y-60698571D01*
X155753809Y-60889047D01*
X156182380Y-60270000D02*
X155182380Y-60270000D01*
X155182380Y-59889047D01*
X155230000Y-59793809D01*
X155277619Y-59746190D01*
X155372857Y-59698571D01*
X155515714Y-59698571D01*
X155610952Y-59746190D01*
X155658571Y-59793809D01*
X155706190Y-59889047D01*
X155706190Y-60270000D01*
X156182380Y-59270000D02*
X155182380Y-59270000D01*
X155182380Y-58603333D02*
X155182380Y-58412857D01*
X155230000Y-58317619D01*
X155325238Y-58222380D01*
X155515714Y-58174761D01*
X155849047Y-58174761D01*
X156039523Y-58222380D01*
X156134761Y-58317619D01*
X156182380Y-58412857D01*
X156182380Y-58603333D01*
X156134761Y-58698571D01*
X156039523Y-58793809D01*
X155849047Y-58841428D01*
X155515714Y-58841428D01*
X155325238Y-58793809D01*
X155230000Y-58698571D01*
X155182380Y-58603333D01*
X156182380Y-57222380D02*
X156182380Y-57793809D01*
X156182380Y-57508095D02*
X155182380Y-57508095D01*
X155325238Y-57603333D01*
X155420476Y-57698571D01*
X155468095Y-57793809D01*
X146452380Y-108042857D02*
X147166666Y-108042857D01*
X147309523Y-108090476D01*
X147404761Y-108185714D01*
X147452380Y-108328571D01*
X147452380Y-108423809D01*
X146452380Y-107709523D02*
X146452380Y-107138095D01*
X147452380Y-107423809D02*
X146452380Y-107423809D01*
X147166666Y-106852380D02*
X147166666Y-106376190D01*
X147452380Y-106947619D02*
X146452380Y-106614285D01*
X147452380Y-106280952D01*
X146500000Y-105423809D02*
X146452380Y-105519047D01*
X146452380Y-105661904D01*
X146500000Y-105804761D01*
X146595238Y-105900000D01*
X146690476Y-105947619D01*
X146880952Y-105995238D01*
X147023809Y-105995238D01*
X147214285Y-105947619D01*
X147309523Y-105900000D01*
X147404761Y-105804761D01*
X147452380Y-105661904D01*
X147452380Y-105566666D01*
X147404761Y-105423809D01*
X147357142Y-105376190D01*
X147023809Y-105376190D01*
X147023809Y-105566666D01*
X147452380Y-104423809D02*
X147452380Y-104995238D01*
X147452380Y-104709523D02*
X146452380Y-104709523D01*
X146595238Y-104804761D01*
X146690476Y-104900000D01*
X146738095Y-104995238D01*
X145452380Y-99947619D02*
X145452380Y-99757142D01*
X145500000Y-99661904D01*
X145595238Y-99566666D01*
X145785714Y-99519047D01*
X146119047Y-99519047D01*
X146309523Y-99566666D01*
X146404761Y-99661904D01*
X146452380Y-99757142D01*
X146452380Y-99947619D01*
X146404761Y-100042857D01*
X146309523Y-100138095D01*
X146119047Y-100185714D01*
X145785714Y-100185714D01*
X145595238Y-100138095D01*
X145500000Y-100042857D01*
X145452380Y-99947619D01*
X146404761Y-99138095D02*
X146452380Y-98995238D01*
X146452380Y-98757142D01*
X146404761Y-98661904D01*
X146357142Y-98614285D01*
X146261904Y-98566666D01*
X146166666Y-98566666D01*
X146071428Y-98614285D01*
X146023809Y-98661904D01*
X145976190Y-98757142D01*
X145928571Y-98947619D01*
X145880952Y-99042857D01*
X145833333Y-99090476D01*
X145738095Y-99138095D01*
X145642857Y-99138095D01*
X145547619Y-99090476D01*
X145500000Y-99042857D01*
X145452380Y-98947619D01*
X145452380Y-98709523D01*
X145500000Y-98566666D01*
X146357142Y-97566666D02*
X146404761Y-97614285D01*
X146452380Y-97757142D01*
X146452380Y-97852380D01*
X146404761Y-97995238D01*
X146309523Y-98090476D01*
X146214285Y-98138095D01*
X146023809Y-98185714D01*
X145880952Y-98185714D01*
X145690476Y-98138095D01*
X145595238Y-98090476D01*
X145500000Y-97995238D01*
X145452380Y-97852380D01*
X145452380Y-97757142D01*
X145500000Y-97614285D01*
X145547619Y-97566666D01*
X146452380Y-96614285D02*
X146452380Y-97185714D01*
X146452380Y-96900000D02*
X145452380Y-96900000D01*
X145595238Y-96995238D01*
X145690476Y-97090476D01*
X145738095Y-97185714D01*
X150633333Y-110452380D02*
X150300000Y-109976190D01*
X150061904Y-110452380D02*
X150061904Y-109452380D01*
X150442857Y-109452380D01*
X150538095Y-109500000D01*
X150585714Y-109547619D01*
X150633333Y-109642857D01*
X150633333Y-109785714D01*
X150585714Y-109880952D01*
X150538095Y-109928571D01*
X150442857Y-109976190D01*
X150061904Y-109976190D01*
X151585714Y-110452380D02*
X151014285Y-110452380D01*
X151300000Y-110452380D02*
X151300000Y-109452380D01*
X151204761Y-109595238D01*
X151109523Y-109690476D01*
X151014285Y-109738095D01*
X150633333Y-108452380D02*
X150300000Y-107976190D01*
X150061904Y-108452380D02*
X150061904Y-107452380D01*
X150442857Y-107452380D01*
X150538095Y-107500000D01*
X150585714Y-107547619D01*
X150633333Y-107642857D01*
X150633333Y-107785714D01*
X150585714Y-107880952D01*
X150538095Y-107928571D01*
X150442857Y-107976190D01*
X150061904Y-107976190D01*
X151014285Y-107547619D02*
X151061904Y-107500000D01*
X151157142Y-107452380D01*
X151395238Y-107452380D01*
X151490476Y-107500000D01*
X151538095Y-107547619D01*
X151585714Y-107642857D01*
X151585714Y-107738095D01*
X151538095Y-107880952D01*
X150966666Y-108452380D01*
X151585714Y-108452380D01*
X152233333Y-106052380D02*
X151900000Y-105576190D01*
X151661904Y-106052380D02*
X151661904Y-105052380D01*
X152042857Y-105052380D01*
X152138095Y-105100000D01*
X152185714Y-105147619D01*
X152233333Y-105242857D01*
X152233333Y-105385714D01*
X152185714Y-105480952D01*
X152138095Y-105528571D01*
X152042857Y-105576190D01*
X151661904Y-105576190D01*
X152566666Y-105052380D02*
X153185714Y-105052380D01*
X152852380Y-105433333D01*
X152995238Y-105433333D01*
X153090476Y-105480952D01*
X153138095Y-105528571D01*
X153185714Y-105623809D01*
X153185714Y-105861904D01*
X153138095Y-105957142D01*
X153090476Y-106004761D01*
X152995238Y-106052380D01*
X152709523Y-106052380D01*
X152614285Y-106004761D01*
X152566666Y-105957142D01*
X152233333Y-103852380D02*
X151900000Y-103376190D01*
X151661904Y-103852380D02*
X151661904Y-102852380D01*
X152042857Y-102852380D01*
X152138095Y-102900000D01*
X152185714Y-102947619D01*
X152233333Y-103042857D01*
X152233333Y-103185714D01*
X152185714Y-103280952D01*
X152138095Y-103328571D01*
X152042857Y-103376190D01*
X151661904Y-103376190D01*
X153090476Y-103185714D02*
X153090476Y-103852380D01*
X152852380Y-102804761D02*
X152614285Y-103519047D01*
X153233333Y-103519047D01*
X152233333Y-101852380D02*
X151900000Y-101376190D01*
X151661904Y-101852380D02*
X151661904Y-100852380D01*
X152042857Y-100852380D01*
X152138095Y-100900000D01*
X152185714Y-100947619D01*
X152233333Y-101042857D01*
X152233333Y-101185714D01*
X152185714Y-101280952D01*
X152138095Y-101328571D01*
X152042857Y-101376190D01*
X151661904Y-101376190D01*
X153138095Y-100852380D02*
X152661904Y-100852380D01*
X152614285Y-101328571D01*
X152661904Y-101280952D01*
X152757142Y-101233333D01*
X152995238Y-101233333D01*
X153090476Y-101280952D01*
X153138095Y-101328571D01*
X153185714Y-101423809D01*
X153185714Y-101661904D01*
X153138095Y-101757142D01*
X153090476Y-101804761D01*
X152995238Y-101852380D01*
X152757142Y-101852380D01*
X152661904Y-101804761D01*
X152614285Y-101757142D01*
X152233333Y-99652380D02*
X151900000Y-99176190D01*
X151661904Y-99652380D02*
X151661904Y-98652380D01*
X152042857Y-98652380D01*
X152138095Y-98700000D01*
X152185714Y-98747619D01*
X152233333Y-98842857D01*
X152233333Y-98985714D01*
X152185714Y-99080952D01*
X152138095Y-99128571D01*
X152042857Y-99176190D01*
X151661904Y-99176190D01*
X153090476Y-98652380D02*
X152900000Y-98652380D01*
X152804761Y-98700000D01*
X152757142Y-98747619D01*
X152661904Y-98890476D01*
X152614285Y-99080952D01*
X152614285Y-99461904D01*
X152661904Y-99557142D01*
X152709523Y-99604761D01*
X152804761Y-99652380D01*
X152995238Y-99652380D01*
X153090476Y-99604761D01*
X153138095Y-99557142D01*
X153185714Y-99461904D01*
X153185714Y-99223809D01*
X153138095Y-99128571D01*
X153090476Y-99080952D01*
X152995238Y-99033333D01*
X152804761Y-99033333D01*
X152709523Y-99080952D01*
X152661904Y-99128571D01*
X152614285Y-99223809D01*
X152233333Y-97452380D02*
X151900000Y-96976190D01*
X151661904Y-97452380D02*
X151661904Y-96452380D01*
X152042857Y-96452380D01*
X152138095Y-96500000D01*
X152185714Y-96547619D01*
X152233333Y-96642857D01*
X152233333Y-96785714D01*
X152185714Y-96880952D01*
X152138095Y-96928571D01*
X152042857Y-96976190D01*
X151661904Y-96976190D01*
X152566666Y-96452380D02*
X153233333Y-96452380D01*
X152804761Y-97452380D01*
X152633333Y-95052380D02*
X152300000Y-94576190D01*
X152061904Y-95052380D02*
X152061904Y-94052380D01*
X152442857Y-94052380D01*
X152538095Y-94100000D01*
X152585714Y-94147619D01*
X152633333Y-94242857D01*
X152633333Y-94385714D01*
X152585714Y-94480952D01*
X152538095Y-94528571D01*
X152442857Y-94576190D01*
X152061904Y-94576190D01*
X153204761Y-94480952D02*
X153109523Y-94433333D01*
X153061904Y-94385714D01*
X153014285Y-94290476D01*
X153014285Y-94242857D01*
X153061904Y-94147619D01*
X153109523Y-94100000D01*
X153204761Y-94052380D01*
X153395238Y-94052380D01*
X153490476Y-94100000D01*
X153538095Y-94147619D01*
X153585714Y-94242857D01*
X153585714Y-94290476D01*
X153538095Y-94385714D01*
X153490476Y-94433333D01*
X153395238Y-94480952D01*
X153204761Y-94480952D01*
X153109523Y-94528571D01*
X153061904Y-94576190D01*
X153014285Y-94671428D01*
X153014285Y-94861904D01*
X153061904Y-94957142D01*
X153109523Y-95004761D01*
X153204761Y-95052380D01*
X153395238Y-95052380D01*
X153490476Y-95004761D01*
X153538095Y-94957142D01*
X153585714Y-94861904D01*
X153585714Y-94671428D01*
X153538095Y-94576190D01*
X153490476Y-94528571D01*
X153395238Y-94480952D01*
X152633333Y-93052380D02*
X152300000Y-92576190D01*
X152061904Y-93052380D02*
X152061904Y-92052380D01*
X152442857Y-92052380D01*
X152538095Y-92100000D01*
X152585714Y-92147619D01*
X152633333Y-92242857D01*
X152633333Y-92385714D01*
X152585714Y-92480952D01*
X152538095Y-92528571D01*
X152442857Y-92576190D01*
X152061904Y-92576190D01*
X153109523Y-93052380D02*
X153300000Y-93052380D01*
X153395238Y-93004761D01*
X153442857Y-92957142D01*
X153538095Y-92814285D01*
X153585714Y-92623809D01*
X153585714Y-92242857D01*
X153538095Y-92147619D01*
X153490476Y-92100000D01*
X153395238Y-92052380D01*
X153204761Y-92052380D01*
X153109523Y-92100000D01*
X153061904Y-92147619D01*
X153014285Y-92242857D01*
X153014285Y-92480952D01*
X153061904Y-92576190D01*
X153109523Y-92623809D01*
X153204761Y-92671428D01*
X153395238Y-92671428D01*
X153490476Y-92623809D01*
X153538095Y-92576190D01*
X153585714Y-92480952D01*
X151757142Y-90852380D02*
X151423809Y-90376190D01*
X151185714Y-90852380D02*
X151185714Y-89852380D01*
X151566666Y-89852380D01*
X151661904Y-89900000D01*
X151709523Y-89947619D01*
X151757142Y-90042857D01*
X151757142Y-90185714D01*
X151709523Y-90280952D01*
X151661904Y-90328571D01*
X151566666Y-90376190D01*
X151185714Y-90376190D01*
X152709523Y-90852380D02*
X152138095Y-90852380D01*
X152423809Y-90852380D02*
X152423809Y-89852380D01*
X152328571Y-89995238D01*
X152233333Y-90090476D01*
X152138095Y-90138095D01*
X153328571Y-89852380D02*
X153423809Y-89852380D01*
X153519047Y-89900000D01*
X153566666Y-89947619D01*
X153614285Y-90042857D01*
X153661904Y-90233333D01*
X153661904Y-90471428D01*
X153614285Y-90661904D01*
X153566666Y-90757142D01*
X153519047Y-90804761D01*
X153423809Y-90852380D01*
X153328571Y-90852380D01*
X153233333Y-90804761D01*
X153185714Y-90757142D01*
X153138095Y-90661904D01*
X153090476Y-90471428D01*
X153090476Y-90233333D01*
X153138095Y-90042857D01*
X153185714Y-89947619D01*
X153233333Y-89900000D01*
X153328571Y-89852380D01*
X151757142Y-88652380D02*
X151423809Y-88176190D01*
X151185714Y-88652380D02*
X151185714Y-87652380D01*
X151566666Y-87652380D01*
X151661904Y-87700000D01*
X151709523Y-87747619D01*
X151757142Y-87842857D01*
X151757142Y-87985714D01*
X151709523Y-88080952D01*
X151661904Y-88128571D01*
X151566666Y-88176190D01*
X151185714Y-88176190D01*
X152709523Y-88652380D02*
X152138095Y-88652380D01*
X152423809Y-88652380D02*
X152423809Y-87652380D01*
X152328571Y-87795238D01*
X152233333Y-87890476D01*
X152138095Y-87938095D01*
X153661904Y-88652380D02*
X153090476Y-88652380D01*
X153376190Y-88652380D02*
X153376190Y-87652380D01*
X153280952Y-87795238D01*
X153185714Y-87890476D01*
X153090476Y-87938095D01*
X151757142Y-86252380D02*
X151423809Y-85776190D01*
X151185714Y-86252380D02*
X151185714Y-85252380D01*
X151566666Y-85252380D01*
X151661904Y-85300000D01*
X151709523Y-85347619D01*
X151757142Y-85442857D01*
X151757142Y-85585714D01*
X151709523Y-85680952D01*
X151661904Y-85728571D01*
X151566666Y-85776190D01*
X151185714Y-85776190D01*
X152709523Y-86252380D02*
X152138095Y-86252380D01*
X152423809Y-86252380D02*
X152423809Y-85252380D01*
X152328571Y-85395238D01*
X152233333Y-85490476D01*
X152138095Y-85538095D01*
X153090476Y-85347619D02*
X153138095Y-85300000D01*
X153233333Y-85252380D01*
X153471428Y-85252380D01*
X153566666Y-85300000D01*
X153614285Y-85347619D01*
X153661904Y-85442857D01*
X153661904Y-85538095D01*
X153614285Y-85680952D01*
X153042857Y-86252380D01*
X153661904Y-86252380D01*
X151757142Y-84052380D02*
X151423809Y-83576190D01*
X151185714Y-84052380D02*
X151185714Y-83052380D01*
X151566666Y-83052380D01*
X151661904Y-83100000D01*
X151709523Y-83147619D01*
X151757142Y-83242857D01*
X151757142Y-83385714D01*
X151709523Y-83480952D01*
X151661904Y-83528571D01*
X151566666Y-83576190D01*
X151185714Y-83576190D01*
X152709523Y-84052380D02*
X152138095Y-84052380D01*
X152423809Y-84052380D02*
X152423809Y-83052380D01*
X152328571Y-83195238D01*
X152233333Y-83290476D01*
X152138095Y-83338095D01*
X153042857Y-83052380D02*
X153661904Y-83052380D01*
X153328571Y-83433333D01*
X153471428Y-83433333D01*
X153566666Y-83480952D01*
X153614285Y-83528571D01*
X153661904Y-83623809D01*
X153661904Y-83861904D01*
X153614285Y-83957142D01*
X153566666Y-84004761D01*
X153471428Y-84052380D01*
X153185714Y-84052380D01*
X153090476Y-84004761D01*
X153042857Y-83957142D01*
X151757142Y-81852380D02*
X151423809Y-81376190D01*
X151185714Y-81852380D02*
X151185714Y-80852380D01*
X151566666Y-80852380D01*
X151661904Y-80900000D01*
X151709523Y-80947619D01*
X151757142Y-81042857D01*
X151757142Y-81185714D01*
X151709523Y-81280952D01*
X151661904Y-81328571D01*
X151566666Y-81376190D01*
X151185714Y-81376190D01*
X152709523Y-81852380D02*
X152138095Y-81852380D01*
X152423809Y-81852380D02*
X152423809Y-80852380D01*
X152328571Y-80995238D01*
X152233333Y-81090476D01*
X152138095Y-81138095D01*
X153566666Y-81185714D02*
X153566666Y-81852380D01*
X153328571Y-80804761D02*
X153090476Y-81519047D01*
X153709523Y-81519047D01*
X151757142Y-79652380D02*
X151423809Y-79176190D01*
X151185714Y-79652380D02*
X151185714Y-78652380D01*
X151566666Y-78652380D01*
X151661904Y-78700000D01*
X151709523Y-78747619D01*
X151757142Y-78842857D01*
X151757142Y-78985714D01*
X151709523Y-79080952D01*
X151661904Y-79128571D01*
X151566666Y-79176190D01*
X151185714Y-79176190D01*
X152709523Y-79652380D02*
X152138095Y-79652380D01*
X152423809Y-79652380D02*
X152423809Y-78652380D01*
X152328571Y-78795238D01*
X152233333Y-78890476D01*
X152138095Y-78938095D01*
X153614285Y-78652380D02*
X153138095Y-78652380D01*
X153090476Y-79128571D01*
X153138095Y-79080952D01*
X153233333Y-79033333D01*
X153471428Y-79033333D01*
X153566666Y-79080952D01*
X153614285Y-79128571D01*
X153661904Y-79223809D01*
X153661904Y-79461904D01*
X153614285Y-79557142D01*
X153566666Y-79604761D01*
X153471428Y-79652380D01*
X153233333Y-79652380D01*
X153138095Y-79604761D01*
X153090476Y-79557142D01*
X151757142Y-77452380D02*
X151423809Y-76976190D01*
X151185714Y-77452380D02*
X151185714Y-76452380D01*
X151566666Y-76452380D01*
X151661904Y-76500000D01*
X151709523Y-76547619D01*
X151757142Y-76642857D01*
X151757142Y-76785714D01*
X151709523Y-76880952D01*
X151661904Y-76928571D01*
X151566666Y-76976190D01*
X151185714Y-76976190D01*
X152709523Y-77452380D02*
X152138095Y-77452380D01*
X152423809Y-77452380D02*
X152423809Y-76452380D01*
X152328571Y-76595238D01*
X152233333Y-76690476D01*
X152138095Y-76738095D01*
X153566666Y-76452380D02*
X153376190Y-76452380D01*
X153280952Y-76500000D01*
X153233333Y-76547619D01*
X153138095Y-76690476D01*
X153090476Y-76880952D01*
X153090476Y-77261904D01*
X153138095Y-77357142D01*
X153185714Y-77404761D01*
X153280952Y-77452380D01*
X153471428Y-77452380D01*
X153566666Y-77404761D01*
X153614285Y-77357142D01*
X153661904Y-77261904D01*
X153661904Y-77023809D01*
X153614285Y-76928571D01*
X153566666Y-76880952D01*
X153471428Y-76833333D01*
X153280952Y-76833333D01*
X153185714Y-76880952D01*
X153138095Y-76928571D01*
X153090476Y-77023809D01*
X161357142Y-105652380D02*
X161023809Y-105176190D01*
X160785714Y-105652380D02*
X160785714Y-104652380D01*
X161166666Y-104652380D01*
X161261904Y-104700000D01*
X161309523Y-104747619D01*
X161357142Y-104842857D01*
X161357142Y-104985714D01*
X161309523Y-105080952D01*
X161261904Y-105128571D01*
X161166666Y-105176190D01*
X160785714Y-105176190D01*
X162309523Y-105652380D02*
X161738095Y-105652380D01*
X162023809Y-105652380D02*
X162023809Y-104652380D01*
X161928571Y-104795238D01*
X161833333Y-104890476D01*
X161738095Y-104938095D01*
X162642857Y-104652380D02*
X163309523Y-104652380D01*
X162880952Y-105652380D01*
X160452380Y-82242857D02*
X159976190Y-82576190D01*
X160452380Y-82814285D02*
X159452380Y-82814285D01*
X159452380Y-82433333D01*
X159500000Y-82338095D01*
X159547619Y-82290476D01*
X159642857Y-82242857D01*
X159785714Y-82242857D01*
X159880952Y-82290476D01*
X159928571Y-82338095D01*
X159976190Y-82433333D01*
X159976190Y-82814285D01*
X160452380Y-81290476D02*
X160452380Y-81861904D01*
X160452380Y-81576190D02*
X159452380Y-81576190D01*
X159595238Y-81671428D01*
X159690476Y-81766666D01*
X159738095Y-81861904D01*
X159880952Y-80719047D02*
X159833333Y-80814285D01*
X159785714Y-80861904D01*
X159690476Y-80909523D01*
X159642857Y-80909523D01*
X159547619Y-80861904D01*
X159500000Y-80814285D01*
X159452380Y-80719047D01*
X159452380Y-80528571D01*
X159500000Y-80433333D01*
X159547619Y-80385714D01*
X159642857Y-80338095D01*
X159690476Y-80338095D01*
X159785714Y-80385714D01*
X159833333Y-80433333D01*
X159880952Y-80528571D01*
X159880952Y-80719047D01*
X159928571Y-80814285D01*
X159976190Y-80861904D01*
X160071428Y-80909523D01*
X160261904Y-80909523D01*
X160357142Y-80861904D01*
X160404761Y-80814285D01*
X160452380Y-80719047D01*
X160452380Y-80528571D01*
X160404761Y-80433333D01*
X160357142Y-80385714D01*
X160261904Y-80338095D01*
X160071428Y-80338095D01*
X159976190Y-80385714D01*
X159928571Y-80433333D01*
X159880952Y-80528571D01*
X164052380Y-75042857D02*
X163576190Y-75376190D01*
X164052380Y-75614285D02*
X163052380Y-75614285D01*
X163052380Y-75233333D01*
X163100000Y-75138095D01*
X163147619Y-75090476D01*
X163242857Y-75042857D01*
X163385714Y-75042857D01*
X163480952Y-75090476D01*
X163528571Y-75138095D01*
X163576190Y-75233333D01*
X163576190Y-75614285D01*
X164052380Y-74090476D02*
X164052380Y-74661904D01*
X164052380Y-74376190D02*
X163052380Y-74376190D01*
X163195238Y-74471428D01*
X163290476Y-74566666D01*
X163338095Y-74661904D01*
X164052380Y-73614285D02*
X164052380Y-73423809D01*
X164004761Y-73328571D01*
X163957142Y-73280952D01*
X163814285Y-73185714D01*
X163623809Y-73138095D01*
X163242857Y-73138095D01*
X163147619Y-73185714D01*
X163100000Y-73233333D01*
X163052380Y-73328571D01*
X163052380Y-73519047D01*
X163100000Y-73614285D01*
X163147619Y-73661904D01*
X163242857Y-73709523D01*
X163480952Y-73709523D01*
X163576190Y-73661904D01*
X163623809Y-73614285D01*
X163671428Y-73519047D01*
X163671428Y-73328571D01*
X163623809Y-73233333D01*
X163576190Y-73185714D01*
X163480952Y-73138095D01*
X137757142Y-102252380D02*
X137423809Y-101776190D01*
X137185714Y-102252380D02*
X137185714Y-101252380D01*
X137566666Y-101252380D01*
X137661904Y-101300000D01*
X137709523Y-101347619D01*
X137757142Y-101442857D01*
X137757142Y-101585714D01*
X137709523Y-101680952D01*
X137661904Y-101728571D01*
X137566666Y-101776190D01*
X137185714Y-101776190D01*
X138138095Y-101347619D02*
X138185714Y-101300000D01*
X138280952Y-101252380D01*
X138519047Y-101252380D01*
X138614285Y-101300000D01*
X138661904Y-101347619D01*
X138709523Y-101442857D01*
X138709523Y-101538095D01*
X138661904Y-101680952D01*
X138090476Y-102252380D01*
X138709523Y-102252380D01*
X139328571Y-101252380D02*
X139423809Y-101252380D01*
X139519047Y-101300000D01*
X139566666Y-101347619D01*
X139614285Y-101442857D01*
X139661904Y-101633333D01*
X139661904Y-101871428D01*
X139614285Y-102061904D01*
X139566666Y-102157142D01*
X139519047Y-102204761D01*
X139423809Y-102252380D01*
X139328571Y-102252380D01*
X139233333Y-102204761D01*
X139185714Y-102157142D01*
X139138095Y-102061904D01*
X139090476Y-101871428D01*
X139090476Y-101633333D01*
X139138095Y-101442857D01*
X139185714Y-101347619D01*
X139233333Y-101300000D01*
X139328571Y-101252380D01*
X130157142Y-102052380D02*
X129823809Y-101576190D01*
X129585714Y-102052380D02*
X129585714Y-101052380D01*
X129966666Y-101052380D01*
X130061904Y-101100000D01*
X130109523Y-101147619D01*
X130157142Y-101242857D01*
X130157142Y-101385714D01*
X130109523Y-101480952D01*
X130061904Y-101528571D01*
X129966666Y-101576190D01*
X129585714Y-101576190D01*
X130538095Y-101147619D02*
X130585714Y-101100000D01*
X130680952Y-101052380D01*
X130919047Y-101052380D01*
X131014285Y-101100000D01*
X131061904Y-101147619D01*
X131109523Y-101242857D01*
X131109523Y-101338095D01*
X131061904Y-101480952D01*
X130490476Y-102052380D01*
X131109523Y-102052380D01*
X132061904Y-102052380D02*
X131490476Y-102052380D01*
X131776190Y-102052380D02*
X131776190Y-101052380D01*
X131680952Y-101195238D01*
X131585714Y-101290476D01*
X131490476Y-101338095D01*
X130157142Y-96052380D02*
X129823809Y-95576190D01*
X129585714Y-96052380D02*
X129585714Y-95052380D01*
X129966666Y-95052380D01*
X130061904Y-95100000D01*
X130109523Y-95147619D01*
X130157142Y-95242857D01*
X130157142Y-95385714D01*
X130109523Y-95480952D01*
X130061904Y-95528571D01*
X129966666Y-95576190D01*
X129585714Y-95576190D01*
X130538095Y-95147619D02*
X130585714Y-95100000D01*
X130680952Y-95052380D01*
X130919047Y-95052380D01*
X131014285Y-95100000D01*
X131061904Y-95147619D01*
X131109523Y-95242857D01*
X131109523Y-95338095D01*
X131061904Y-95480952D01*
X130490476Y-96052380D01*
X131109523Y-96052380D01*
X131490476Y-95147619D02*
X131538095Y-95100000D01*
X131633333Y-95052380D01*
X131871428Y-95052380D01*
X131966666Y-95100000D01*
X132014285Y-95147619D01*
X132061904Y-95242857D01*
X132061904Y-95338095D01*
X132014285Y-95480952D01*
X131442857Y-96052380D01*
X132061904Y-96052380D01*
X134157142Y-102252380D02*
X133823809Y-101776190D01*
X133585714Y-102252380D02*
X133585714Y-101252380D01*
X133966666Y-101252380D01*
X134061904Y-101300000D01*
X134109523Y-101347619D01*
X134157142Y-101442857D01*
X134157142Y-101585714D01*
X134109523Y-101680952D01*
X134061904Y-101728571D01*
X133966666Y-101776190D01*
X133585714Y-101776190D01*
X134538095Y-101347619D02*
X134585714Y-101300000D01*
X134680952Y-101252380D01*
X134919047Y-101252380D01*
X135014285Y-101300000D01*
X135061904Y-101347619D01*
X135109523Y-101442857D01*
X135109523Y-101538095D01*
X135061904Y-101680952D01*
X134490476Y-102252380D01*
X135109523Y-102252380D01*
X135442857Y-101252380D02*
X136061904Y-101252380D01*
X135728571Y-101633333D01*
X135871428Y-101633333D01*
X135966666Y-101680952D01*
X136014285Y-101728571D01*
X136061904Y-101823809D01*
X136061904Y-102061904D01*
X136014285Y-102157142D01*
X135966666Y-102204761D01*
X135871428Y-102252380D01*
X135585714Y-102252380D01*
X135490476Y-102204761D01*
X135442857Y-102157142D01*
X122652380Y-91042857D02*
X122176190Y-91376190D01*
X122652380Y-91614285D02*
X121652380Y-91614285D01*
X121652380Y-91233333D01*
X121700000Y-91138095D01*
X121747619Y-91090476D01*
X121842857Y-91042857D01*
X121985714Y-91042857D01*
X122080952Y-91090476D01*
X122128571Y-91138095D01*
X122176190Y-91233333D01*
X122176190Y-91614285D01*
X121747619Y-90661904D02*
X121700000Y-90614285D01*
X121652380Y-90519047D01*
X121652380Y-90280952D01*
X121700000Y-90185714D01*
X121747619Y-90138095D01*
X121842857Y-90090476D01*
X121938095Y-90090476D01*
X122080952Y-90138095D01*
X122652380Y-90709523D01*
X122652380Y-90090476D01*
X121985714Y-89233333D02*
X122652380Y-89233333D01*
X121604761Y-89471428D02*
X122319047Y-89709523D01*
X122319047Y-89090476D01*
X122652380Y-84242857D02*
X122176190Y-84576190D01*
X122652380Y-84814285D02*
X121652380Y-84814285D01*
X121652380Y-84433333D01*
X121700000Y-84338095D01*
X121747619Y-84290476D01*
X121842857Y-84242857D01*
X121985714Y-84242857D01*
X122080952Y-84290476D01*
X122128571Y-84338095D01*
X122176190Y-84433333D01*
X122176190Y-84814285D01*
X121747619Y-83861904D02*
X121700000Y-83814285D01*
X121652380Y-83719047D01*
X121652380Y-83480952D01*
X121700000Y-83385714D01*
X121747619Y-83338095D01*
X121842857Y-83290476D01*
X121938095Y-83290476D01*
X122080952Y-83338095D01*
X122652380Y-83909523D01*
X122652380Y-83290476D01*
X121652380Y-82385714D02*
X121652380Y-82861904D01*
X122128571Y-82909523D01*
X122080952Y-82861904D01*
X122033333Y-82766666D01*
X122033333Y-82528571D01*
X122080952Y-82433333D01*
X122128571Y-82385714D01*
X122223809Y-82338095D01*
X122461904Y-82338095D01*
X122557142Y-82385714D01*
X122604761Y-82433333D01*
X122652380Y-82528571D01*
X122652380Y-82766666D01*
X122604761Y-82861904D01*
X122557142Y-82909523D01*
X122652380Y-78442857D02*
X122176190Y-78776190D01*
X122652380Y-79014285D02*
X121652380Y-79014285D01*
X121652380Y-78633333D01*
X121700000Y-78538095D01*
X121747619Y-78490476D01*
X121842857Y-78442857D01*
X121985714Y-78442857D01*
X122080952Y-78490476D01*
X122128571Y-78538095D01*
X122176190Y-78633333D01*
X122176190Y-79014285D01*
X121747619Y-78061904D02*
X121700000Y-78014285D01*
X121652380Y-77919047D01*
X121652380Y-77680952D01*
X121700000Y-77585714D01*
X121747619Y-77538095D01*
X121842857Y-77490476D01*
X121938095Y-77490476D01*
X122080952Y-77538095D01*
X122652380Y-78109523D01*
X122652380Y-77490476D01*
X121652380Y-76633333D02*
X121652380Y-76823809D01*
X121700000Y-76919047D01*
X121747619Y-76966666D01*
X121890476Y-77061904D01*
X122080952Y-77109523D01*
X122461904Y-77109523D01*
X122557142Y-77061904D01*
X122604761Y-77014285D01*
X122652380Y-76919047D01*
X122652380Y-76728571D01*
X122604761Y-76633333D01*
X122557142Y-76585714D01*
X122461904Y-76538095D01*
X122223809Y-76538095D01*
X122128571Y-76585714D01*
X122080952Y-76633333D01*
X122033333Y-76728571D01*
X122033333Y-76919047D01*
X122080952Y-77014285D01*
X122128571Y-77061904D01*
X122223809Y-77109523D01*
X108452380Y-74242857D02*
X107976190Y-74576190D01*
X108452380Y-74814285D02*
X107452380Y-74814285D01*
X107452380Y-74433333D01*
X107500000Y-74338095D01*
X107547619Y-74290476D01*
X107642857Y-74242857D01*
X107785714Y-74242857D01*
X107880952Y-74290476D01*
X107928571Y-74338095D01*
X107976190Y-74433333D01*
X107976190Y-74814285D01*
X107452380Y-73909523D02*
X107452380Y-73290476D01*
X107833333Y-73623809D01*
X107833333Y-73480952D01*
X107880952Y-73385714D01*
X107928571Y-73338095D01*
X108023809Y-73290476D01*
X108261904Y-73290476D01*
X108357142Y-73338095D01*
X108404761Y-73385714D01*
X108452380Y-73480952D01*
X108452380Y-73766666D01*
X108404761Y-73861904D01*
X108357142Y-73909523D01*
X107452380Y-72671428D02*
X107452380Y-72576190D01*
X107500000Y-72480952D01*
X107547619Y-72433333D01*
X107642857Y-72385714D01*
X107833333Y-72338095D01*
X108071428Y-72338095D01*
X108261904Y-72385714D01*
X108357142Y-72433333D01*
X108404761Y-72480952D01*
X108452380Y-72576190D01*
X108452380Y-72671428D01*
X108404761Y-72766666D01*
X108357142Y-72814285D01*
X108261904Y-72861904D01*
X108071428Y-72909523D01*
X107833333Y-72909523D01*
X107642857Y-72861904D01*
X107547619Y-72814285D01*
X107500000Y-72766666D01*
X107452380Y-72671428D01*
X122952380Y-74242857D02*
X122476190Y-74576190D01*
X122952380Y-74814285D02*
X121952380Y-74814285D01*
X121952380Y-74433333D01*
X122000000Y-74338095D01*
X122047619Y-74290476D01*
X122142857Y-74242857D01*
X122285714Y-74242857D01*
X122380952Y-74290476D01*
X122428571Y-74338095D01*
X122476190Y-74433333D01*
X122476190Y-74814285D01*
X121952380Y-73909523D02*
X121952380Y-73290476D01*
X122333333Y-73623809D01*
X122333333Y-73480952D01*
X122380952Y-73385714D01*
X122428571Y-73338095D01*
X122523809Y-73290476D01*
X122761904Y-73290476D01*
X122857142Y-73338095D01*
X122904761Y-73385714D01*
X122952380Y-73480952D01*
X122952380Y-73766666D01*
X122904761Y-73861904D01*
X122857142Y-73909523D01*
X122952380Y-72338095D02*
X122952380Y-72909523D01*
X122952380Y-72623809D02*
X121952380Y-72623809D01*
X122095238Y-72719047D01*
X122190476Y-72814285D01*
X122238095Y-72909523D01*
X114052380Y-82042857D02*
X113576190Y-82376190D01*
X114052380Y-82614285D02*
X113052380Y-82614285D01*
X113052380Y-82233333D01*
X113100000Y-82138095D01*
X113147619Y-82090476D01*
X113242857Y-82042857D01*
X113385714Y-82042857D01*
X113480952Y-82090476D01*
X113528571Y-82138095D01*
X113576190Y-82233333D01*
X113576190Y-82614285D01*
X113052380Y-81709523D02*
X113052380Y-81090476D01*
X113433333Y-81423809D01*
X113433333Y-81280952D01*
X113480952Y-81185714D01*
X113528571Y-81138095D01*
X113623809Y-81090476D01*
X113861904Y-81090476D01*
X113957142Y-81138095D01*
X114004761Y-81185714D01*
X114052380Y-81280952D01*
X114052380Y-81566666D01*
X114004761Y-81661904D01*
X113957142Y-81709523D01*
X113147619Y-80709523D02*
X113100000Y-80661904D01*
X113052380Y-80566666D01*
X113052380Y-80328571D01*
X113100000Y-80233333D01*
X113147619Y-80185714D01*
X113242857Y-80138095D01*
X113338095Y-80138095D01*
X113480952Y-80185714D01*
X114052380Y-80757142D01*
X114052380Y-80138095D01*
X110852380Y-59642857D02*
X110376190Y-59976190D01*
X110852380Y-60214285D02*
X109852380Y-60214285D01*
X109852380Y-59833333D01*
X109900000Y-59738095D01*
X109947619Y-59690476D01*
X110042857Y-59642857D01*
X110185714Y-59642857D01*
X110280952Y-59690476D01*
X110328571Y-59738095D01*
X110376190Y-59833333D01*
X110376190Y-60214285D01*
X109852380Y-59309523D02*
X109852380Y-58690476D01*
X110233333Y-59023809D01*
X110233333Y-58880952D01*
X110280952Y-58785714D01*
X110328571Y-58738095D01*
X110423809Y-58690476D01*
X110661904Y-58690476D01*
X110757142Y-58738095D01*
X110804761Y-58785714D01*
X110852380Y-58880952D01*
X110852380Y-59166666D01*
X110804761Y-59261904D01*
X110757142Y-59309523D01*
X109852380Y-58357142D02*
X109852380Y-57738095D01*
X110233333Y-58071428D01*
X110233333Y-57928571D01*
X110280952Y-57833333D01*
X110328571Y-57785714D01*
X110423809Y-57738095D01*
X110661904Y-57738095D01*
X110757142Y-57785714D01*
X110804761Y-57833333D01*
X110852380Y-57928571D01*
X110852380Y-58214285D01*
X110804761Y-58309523D01*
X110757142Y-58357142D01*
X114357142Y-56452380D02*
X114023809Y-55976190D01*
X113785714Y-56452380D02*
X113785714Y-55452380D01*
X114166666Y-55452380D01*
X114261904Y-55500000D01*
X114309523Y-55547619D01*
X114357142Y-55642857D01*
X114357142Y-55785714D01*
X114309523Y-55880952D01*
X114261904Y-55928571D01*
X114166666Y-55976190D01*
X113785714Y-55976190D01*
X114690476Y-55452380D02*
X115309523Y-55452380D01*
X114976190Y-55833333D01*
X115119047Y-55833333D01*
X115214285Y-55880952D01*
X115261904Y-55928571D01*
X115309523Y-56023809D01*
X115309523Y-56261904D01*
X115261904Y-56357142D01*
X115214285Y-56404761D01*
X115119047Y-56452380D01*
X114833333Y-56452380D01*
X114738095Y-56404761D01*
X114690476Y-56357142D01*
X116166666Y-55785714D02*
X116166666Y-56452380D01*
X115928571Y-55404761D02*
X115690476Y-56119047D01*
X116309523Y-56119047D01*
X119752380Y-59697857D02*
X119276190Y-60031190D01*
X119752380Y-60269285D02*
X118752380Y-60269285D01*
X118752380Y-59888333D01*
X118800000Y-59793095D01*
X118847619Y-59745476D01*
X118942857Y-59697857D01*
X119085714Y-59697857D01*
X119180952Y-59745476D01*
X119228571Y-59793095D01*
X119276190Y-59888333D01*
X119276190Y-60269285D01*
X118752380Y-59364523D02*
X118752380Y-58745476D01*
X119133333Y-59078809D01*
X119133333Y-58935952D01*
X119180952Y-58840714D01*
X119228571Y-58793095D01*
X119323809Y-58745476D01*
X119561904Y-58745476D01*
X119657142Y-58793095D01*
X119704761Y-58840714D01*
X119752380Y-58935952D01*
X119752380Y-59221666D01*
X119704761Y-59316904D01*
X119657142Y-59364523D01*
X118752380Y-57840714D02*
X118752380Y-58316904D01*
X119228571Y-58364523D01*
X119180952Y-58316904D01*
X119133333Y-58221666D01*
X119133333Y-57983571D01*
X119180952Y-57888333D01*
X119228571Y-57840714D01*
X119323809Y-57793095D01*
X119561904Y-57793095D01*
X119657142Y-57840714D01*
X119704761Y-57888333D01*
X119752380Y-57983571D01*
X119752380Y-58221666D01*
X119704761Y-58316904D01*
X119657142Y-58364523D01*
X119357142Y-78852380D02*
X119023809Y-78376190D01*
X118785714Y-78852380D02*
X118785714Y-77852380D01*
X119166666Y-77852380D01*
X119261904Y-77900000D01*
X119309523Y-77947619D01*
X119357142Y-78042857D01*
X119357142Y-78185714D01*
X119309523Y-78280952D01*
X119261904Y-78328571D01*
X119166666Y-78376190D01*
X118785714Y-78376190D01*
X119690476Y-77852380D02*
X120309523Y-77852380D01*
X119976190Y-78233333D01*
X120119047Y-78233333D01*
X120214285Y-78280952D01*
X120261904Y-78328571D01*
X120309523Y-78423809D01*
X120309523Y-78661904D01*
X120261904Y-78757142D01*
X120214285Y-78804761D01*
X120119047Y-78852380D01*
X119833333Y-78852380D01*
X119738095Y-78804761D01*
X119690476Y-78757142D01*
X121166666Y-77852380D02*
X120976190Y-77852380D01*
X120880952Y-77900000D01*
X120833333Y-77947619D01*
X120738095Y-78090476D01*
X120690476Y-78280952D01*
X120690476Y-78661904D01*
X120738095Y-78757142D01*
X120785714Y-78804761D01*
X120880952Y-78852380D01*
X121071428Y-78852380D01*
X121166666Y-78804761D01*
X121214285Y-78757142D01*
X121261904Y-78661904D01*
X121261904Y-78423809D01*
X121214285Y-78328571D01*
X121166666Y-78280952D01*
X121071428Y-78233333D01*
X120880952Y-78233333D01*
X120785714Y-78280952D01*
X120738095Y-78328571D01*
X120690476Y-78423809D01*
X116357142Y-78852380D02*
X116023809Y-78376190D01*
X115785714Y-78852380D02*
X115785714Y-77852380D01*
X116166666Y-77852380D01*
X116261904Y-77900000D01*
X116309523Y-77947619D01*
X116357142Y-78042857D01*
X116357142Y-78185714D01*
X116309523Y-78280952D01*
X116261904Y-78328571D01*
X116166666Y-78376190D01*
X115785714Y-78376190D01*
X116690476Y-77852380D02*
X117309523Y-77852380D01*
X116976190Y-78233333D01*
X117119047Y-78233333D01*
X117214285Y-78280952D01*
X117261904Y-78328571D01*
X117309523Y-78423809D01*
X117309523Y-78661904D01*
X117261904Y-78757142D01*
X117214285Y-78804761D01*
X117119047Y-78852380D01*
X116833333Y-78852380D01*
X116738095Y-78804761D01*
X116690476Y-78757142D01*
X117642857Y-77852380D02*
X118309523Y-77852380D01*
X117880952Y-78852380D01*
X121052380Y-91642857D02*
X120576190Y-91976190D01*
X121052380Y-92214285D02*
X120052380Y-92214285D01*
X120052380Y-91833333D01*
X120100000Y-91738095D01*
X120147619Y-91690476D01*
X120242857Y-91642857D01*
X120385714Y-91642857D01*
X120480952Y-91690476D01*
X120528571Y-91738095D01*
X120576190Y-91833333D01*
X120576190Y-92214285D01*
X120052380Y-91309523D02*
X120052380Y-90690476D01*
X120433333Y-91023809D01*
X120433333Y-90880952D01*
X120480952Y-90785714D01*
X120528571Y-90738095D01*
X120623809Y-90690476D01*
X120861904Y-90690476D01*
X120957142Y-90738095D01*
X121004761Y-90785714D01*
X121052380Y-90880952D01*
X121052380Y-91166666D01*
X121004761Y-91261904D01*
X120957142Y-91309523D01*
X120480952Y-90119047D02*
X120433333Y-90214285D01*
X120385714Y-90261904D01*
X120290476Y-90309523D01*
X120242857Y-90309523D01*
X120147619Y-90261904D01*
X120100000Y-90214285D01*
X120052380Y-90119047D01*
X120052380Y-89928571D01*
X120100000Y-89833333D01*
X120147619Y-89785714D01*
X120242857Y-89738095D01*
X120290476Y-89738095D01*
X120385714Y-89785714D01*
X120433333Y-89833333D01*
X120480952Y-89928571D01*
X120480952Y-90119047D01*
X120528571Y-90214285D01*
X120576190Y-90261904D01*
X120671428Y-90309523D01*
X120861904Y-90309523D01*
X120957142Y-90261904D01*
X121004761Y-90214285D01*
X121052380Y-90119047D01*
X121052380Y-89928571D01*
X121004761Y-89833333D01*
X120957142Y-89785714D01*
X120861904Y-89738095D01*
X120671428Y-89738095D01*
X120576190Y-89785714D01*
X120528571Y-89833333D01*
X120480952Y-89928571D01*
X116557142Y-90852380D02*
X116223809Y-90376190D01*
X115985714Y-90852380D02*
X115985714Y-89852380D01*
X116366666Y-89852380D01*
X116461904Y-89900000D01*
X116509523Y-89947619D01*
X116557142Y-90042857D01*
X116557142Y-90185714D01*
X116509523Y-90280952D01*
X116461904Y-90328571D01*
X116366666Y-90376190D01*
X115985714Y-90376190D01*
X116890476Y-89852380D02*
X117509523Y-89852380D01*
X117176190Y-90233333D01*
X117319047Y-90233333D01*
X117414285Y-90280952D01*
X117461904Y-90328571D01*
X117509523Y-90423809D01*
X117509523Y-90661904D01*
X117461904Y-90757142D01*
X117414285Y-90804761D01*
X117319047Y-90852380D01*
X117033333Y-90852380D01*
X116938095Y-90804761D01*
X116890476Y-90757142D01*
X117985714Y-90852380D02*
X118176190Y-90852380D01*
X118271428Y-90804761D01*
X118319047Y-90757142D01*
X118414285Y-90614285D01*
X118461904Y-90423809D01*
X118461904Y-90042857D01*
X118414285Y-89947619D01*
X118366666Y-89900000D01*
X118271428Y-89852380D01*
X118080952Y-89852380D01*
X117985714Y-89900000D01*
X117938095Y-89947619D01*
X117890476Y-90042857D01*
X117890476Y-90280952D01*
X117938095Y-90376190D01*
X117985714Y-90423809D01*
X118080952Y-90471428D01*
X118271428Y-90471428D01*
X118366666Y-90423809D01*
X118414285Y-90376190D01*
X118461904Y-90280952D01*
X113852380Y-87842857D02*
X113376190Y-88176190D01*
X113852380Y-88414285D02*
X112852380Y-88414285D01*
X112852380Y-88033333D01*
X112900000Y-87938095D01*
X112947619Y-87890476D01*
X113042857Y-87842857D01*
X113185714Y-87842857D01*
X113280952Y-87890476D01*
X113328571Y-87938095D01*
X113376190Y-88033333D01*
X113376190Y-88414285D01*
X113185714Y-86985714D02*
X113852380Y-86985714D01*
X112804761Y-87223809D02*
X113519047Y-87461904D01*
X113519047Y-86842857D01*
X112852380Y-86271428D02*
X112852380Y-86176190D01*
X112900000Y-86080952D01*
X112947619Y-86033333D01*
X113042857Y-85985714D01*
X113233333Y-85938095D01*
X113471428Y-85938095D01*
X113661904Y-85985714D01*
X113757142Y-86033333D01*
X113804761Y-86080952D01*
X113852380Y-86176190D01*
X113852380Y-86271428D01*
X113804761Y-86366666D01*
X113757142Y-86414285D01*
X113661904Y-86461904D01*
X113471428Y-86509523D01*
X113233333Y-86509523D01*
X113042857Y-86461904D01*
X112947619Y-86414285D01*
X112900000Y-86366666D01*
X112852380Y-86271428D01*
X115480952Y-102852380D02*
X115147619Y-102376190D01*
X114909523Y-102852380D02*
X114909523Y-101852380D01*
X115290476Y-101852380D01*
X115385714Y-101900000D01*
X115433333Y-101947619D01*
X115480952Y-102042857D01*
X115480952Y-102185714D01*
X115433333Y-102280952D01*
X115385714Y-102328571D01*
X115290476Y-102376190D01*
X114909523Y-102376190D01*
X115909523Y-102328571D02*
X116242857Y-102328571D01*
X116385714Y-102852380D02*
X115909523Y-102852380D01*
X115909523Y-101852380D01*
X116385714Y-101852380D01*
X117338095Y-101900000D02*
X117242857Y-101852380D01*
X117100000Y-101852380D01*
X116957142Y-101900000D01*
X116861904Y-101995238D01*
X116814285Y-102090476D01*
X116766666Y-102280952D01*
X116766666Y-102423809D01*
X116814285Y-102614285D01*
X116861904Y-102709523D01*
X116957142Y-102804761D01*
X117100000Y-102852380D01*
X117195238Y-102852380D01*
X117338095Y-102804761D01*
X117385714Y-102757142D01*
X117385714Y-102423809D01*
X117195238Y-102423809D01*
X118338095Y-102852380D02*
X117766666Y-102852380D01*
X118052380Y-102852380D02*
X118052380Y-101852380D01*
X117957142Y-101995238D01*
X117861904Y-102090476D01*
X117766666Y-102138095D01*
X109480952Y-79852380D02*
X109147619Y-79376190D01*
X108909523Y-79852380D02*
X108909523Y-78852380D01*
X109290476Y-78852380D01*
X109385714Y-78900000D01*
X109433333Y-78947619D01*
X109480952Y-79042857D01*
X109480952Y-79185714D01*
X109433333Y-79280952D01*
X109385714Y-79328571D01*
X109290476Y-79376190D01*
X108909523Y-79376190D01*
X109909523Y-79328571D02*
X110242857Y-79328571D01*
X110385714Y-79852380D02*
X109909523Y-79852380D01*
X109909523Y-78852380D01*
X110385714Y-78852380D01*
X111338095Y-78900000D02*
X111242857Y-78852380D01*
X111100000Y-78852380D01*
X110957142Y-78900000D01*
X110861904Y-78995238D01*
X110814285Y-79090476D01*
X110766666Y-79280952D01*
X110766666Y-79423809D01*
X110814285Y-79614285D01*
X110861904Y-79709523D01*
X110957142Y-79804761D01*
X111100000Y-79852380D01*
X111195238Y-79852380D01*
X111338095Y-79804761D01*
X111385714Y-79757142D01*
X111385714Y-79423809D01*
X111195238Y-79423809D01*
X111766666Y-78947619D02*
X111814285Y-78900000D01*
X111909523Y-78852380D01*
X112147619Y-78852380D01*
X112242857Y-78900000D01*
X112290476Y-78947619D01*
X112338095Y-79042857D01*
X112338095Y-79138095D01*
X112290476Y-79280952D01*
X111719047Y-79852380D01*
X112338095Y-79852380D01*
X108252380Y-69142857D02*
X107776190Y-69476190D01*
X108252380Y-69714285D02*
X107252380Y-69714285D01*
X107252380Y-69333333D01*
X107300000Y-69238095D01*
X107347619Y-69190476D01*
X107442857Y-69142857D01*
X107585714Y-69142857D01*
X107680952Y-69190476D01*
X107728571Y-69238095D01*
X107776190Y-69333333D01*
X107776190Y-69714285D01*
X107728571Y-68380952D02*
X107728571Y-68714285D01*
X108252380Y-68714285D02*
X107252380Y-68714285D01*
X107252380Y-68238095D01*
X108157142Y-67285714D02*
X108204761Y-67333333D01*
X108252380Y-67476190D01*
X108252380Y-67571428D01*
X108204761Y-67714285D01*
X108109523Y-67809523D01*
X108014285Y-67857142D01*
X107823809Y-67904761D01*
X107680952Y-67904761D01*
X107490476Y-67857142D01*
X107395238Y-67809523D01*
X107300000Y-67714285D01*
X107252380Y-67571428D01*
X107252380Y-67476190D01*
X107300000Y-67333333D01*
X107347619Y-67285714D01*
X107252380Y-66666666D02*
X107252380Y-66476190D01*
X107300000Y-66380952D01*
X107395238Y-66285714D01*
X107585714Y-66238095D01*
X107919047Y-66238095D01*
X108109523Y-66285714D01*
X108204761Y-66380952D01*
X108252380Y-66476190D01*
X108252380Y-66666666D01*
X108204761Y-66761904D01*
X108109523Y-66857142D01*
X107919047Y-66904761D01*
X107585714Y-66904761D01*
X107395238Y-66857142D01*
X107300000Y-66761904D01*
X107252380Y-66666666D01*
X108252380Y-65809523D02*
X107252380Y-65809523D01*
X108252380Y-65238095D01*
X107252380Y-65238095D01*
X108252380Y-64238095D02*
X108252380Y-64809523D01*
X108252380Y-64523809D02*
X107252380Y-64523809D01*
X107395238Y-64619047D01*
X107490476Y-64714285D01*
X107538095Y-64809523D01*
X108252380Y-100942857D02*
X107776190Y-101276190D01*
X108252380Y-101514285D02*
X107252380Y-101514285D01*
X107252380Y-101133333D01*
X107300000Y-101038095D01*
X107347619Y-100990476D01*
X107442857Y-100942857D01*
X107585714Y-100942857D01*
X107680952Y-100990476D01*
X107728571Y-101038095D01*
X107776190Y-101133333D01*
X107776190Y-101514285D01*
X107728571Y-100180952D02*
X107728571Y-100514285D01*
X108252380Y-100514285D02*
X107252380Y-100514285D01*
X107252380Y-100038095D01*
X108157142Y-99085714D02*
X108204761Y-99133333D01*
X108252380Y-99276190D01*
X108252380Y-99371428D01*
X108204761Y-99514285D01*
X108109523Y-99609523D01*
X108014285Y-99657142D01*
X107823809Y-99704761D01*
X107680952Y-99704761D01*
X107490476Y-99657142D01*
X107395238Y-99609523D01*
X107300000Y-99514285D01*
X107252380Y-99371428D01*
X107252380Y-99276190D01*
X107300000Y-99133333D01*
X107347619Y-99085714D01*
X107252380Y-98466666D02*
X107252380Y-98276190D01*
X107300000Y-98180952D01*
X107395238Y-98085714D01*
X107585714Y-98038095D01*
X107919047Y-98038095D01*
X108109523Y-98085714D01*
X108204761Y-98180952D01*
X108252380Y-98276190D01*
X108252380Y-98466666D01*
X108204761Y-98561904D01*
X108109523Y-98657142D01*
X107919047Y-98704761D01*
X107585714Y-98704761D01*
X107395238Y-98657142D01*
X107300000Y-98561904D01*
X107252380Y-98466666D01*
X108252380Y-97609523D02*
X107252380Y-97609523D01*
X108252380Y-97038095D01*
X107252380Y-97038095D01*
X107347619Y-96609523D02*
X107300000Y-96561904D01*
X107252380Y-96466666D01*
X107252380Y-96228571D01*
X107300000Y-96133333D01*
X107347619Y-96085714D01*
X107442857Y-96038095D01*
X107538095Y-96038095D01*
X107680952Y-96085714D01*
X108252380Y-96657142D01*
X108252380Y-96038095D01*
X123852380Y-69242857D02*
X123376190Y-69576190D01*
X123852380Y-69814285D02*
X122852380Y-69814285D01*
X122852380Y-69433333D01*
X122900000Y-69338095D01*
X122947619Y-69290476D01*
X123042857Y-69242857D01*
X123185714Y-69242857D01*
X123280952Y-69290476D01*
X123328571Y-69338095D01*
X123376190Y-69433333D01*
X123376190Y-69814285D01*
X123328571Y-68480952D02*
X123328571Y-68814285D01*
X123852380Y-68814285D02*
X122852380Y-68814285D01*
X122852380Y-68338095D01*
X123757142Y-67385714D02*
X123804761Y-67433333D01*
X123852380Y-67576190D01*
X123852380Y-67671428D01*
X123804761Y-67814285D01*
X123709523Y-67909523D01*
X123614285Y-67957142D01*
X123423809Y-68004761D01*
X123280952Y-68004761D01*
X123090476Y-67957142D01*
X122995238Y-67909523D01*
X122900000Y-67814285D01*
X122852380Y-67671428D01*
X122852380Y-67576190D01*
X122900000Y-67433333D01*
X122947619Y-67385714D01*
X122852380Y-66766666D02*
X122852380Y-66576190D01*
X122900000Y-66480952D01*
X122995238Y-66385714D01*
X123185714Y-66338095D01*
X123519047Y-66338095D01*
X123709523Y-66385714D01*
X123804761Y-66480952D01*
X123852380Y-66576190D01*
X123852380Y-66766666D01*
X123804761Y-66861904D01*
X123709523Y-66957142D01*
X123519047Y-67004761D01*
X123185714Y-67004761D01*
X122995238Y-66957142D01*
X122900000Y-66861904D01*
X122852380Y-66766666D01*
X123852380Y-65909523D02*
X122852380Y-65909523D01*
X123852380Y-65338095D01*
X122852380Y-65338095D01*
X123757142Y-64290476D02*
X123804761Y-64338095D01*
X123852380Y-64480952D01*
X123852380Y-64576190D01*
X123804761Y-64719047D01*
X123709523Y-64814285D01*
X123614285Y-64861904D01*
X123423809Y-64909523D01*
X123280952Y-64909523D01*
X123090476Y-64861904D01*
X122995238Y-64814285D01*
X122900000Y-64719047D01*
X122852380Y-64576190D01*
X122852380Y-64480952D01*
X122900000Y-64338095D01*
X122947619Y-64290476D01*
X123852380Y-63338095D02*
X123852380Y-63909523D01*
X123852380Y-63623809D02*
X122852380Y-63623809D01*
X122995238Y-63719047D01*
X123090476Y-63814285D01*
X123138095Y-63909523D01*
X123852380Y-101042857D02*
X123376190Y-101376190D01*
X123852380Y-101614285D02*
X122852380Y-101614285D01*
X122852380Y-101233333D01*
X122900000Y-101138095D01*
X122947619Y-101090476D01*
X123042857Y-101042857D01*
X123185714Y-101042857D01*
X123280952Y-101090476D01*
X123328571Y-101138095D01*
X123376190Y-101233333D01*
X123376190Y-101614285D01*
X123328571Y-100280952D02*
X123328571Y-100614285D01*
X123852380Y-100614285D02*
X122852380Y-100614285D01*
X122852380Y-100138095D01*
X123757142Y-99185714D02*
X123804761Y-99233333D01*
X123852380Y-99376190D01*
X123852380Y-99471428D01*
X123804761Y-99614285D01*
X123709523Y-99709523D01*
X123614285Y-99757142D01*
X123423809Y-99804761D01*
X123280952Y-99804761D01*
X123090476Y-99757142D01*
X122995238Y-99709523D01*
X122900000Y-99614285D01*
X122852380Y-99471428D01*
X122852380Y-99376190D01*
X122900000Y-99233333D01*
X122947619Y-99185714D01*
X122852380Y-98566666D02*
X122852380Y-98376190D01*
X122900000Y-98280952D01*
X122995238Y-98185714D01*
X123185714Y-98138095D01*
X123519047Y-98138095D01*
X123709523Y-98185714D01*
X123804761Y-98280952D01*
X123852380Y-98376190D01*
X123852380Y-98566666D01*
X123804761Y-98661904D01*
X123709523Y-98757142D01*
X123519047Y-98804761D01*
X123185714Y-98804761D01*
X122995238Y-98757142D01*
X122900000Y-98661904D01*
X122852380Y-98566666D01*
X123852380Y-97709523D02*
X122852380Y-97709523D01*
X123852380Y-97138095D01*
X122852380Y-97138095D01*
X123757142Y-96090476D02*
X123804761Y-96138095D01*
X123852380Y-96280952D01*
X123852380Y-96376190D01*
X123804761Y-96519047D01*
X123709523Y-96614285D01*
X123614285Y-96661904D01*
X123423809Y-96709523D01*
X123280952Y-96709523D01*
X123090476Y-96661904D01*
X122995238Y-96614285D01*
X122900000Y-96519047D01*
X122852380Y-96376190D01*
X122852380Y-96280952D01*
X122900000Y-96138095D01*
X122947619Y-96090476D01*
X122947619Y-95709523D02*
X122900000Y-95661904D01*
X122852380Y-95566666D01*
X122852380Y-95328571D01*
X122900000Y-95233333D01*
X122947619Y-95185714D01*
X123042857Y-95138095D01*
X123138095Y-95138095D01*
X123280952Y-95185714D01*
X123852380Y-95757142D01*
X123852380Y-95138095D01*
X135638095Y-69452380D02*
X135638095Y-70261904D01*
X135685714Y-70357142D01*
X135733333Y-70404761D01*
X135828571Y-70452380D01*
X136019047Y-70452380D01*
X136114285Y-70404761D01*
X136161904Y-70357142D01*
X136209523Y-70261904D01*
X136209523Y-69452380D01*
X136638095Y-69547619D02*
X136685714Y-69500000D01*
X136780952Y-69452380D01*
X137019047Y-69452380D01*
X137114285Y-69500000D01*
X137161904Y-69547619D01*
X137209523Y-69642857D01*
X137209523Y-69738095D01*
X137161904Y-69880952D01*
X136590476Y-70452380D01*
X137209523Y-70452380D01*
X132228571Y-75852380D02*
X131657142Y-75852380D01*
X131942857Y-75852380D02*
X131942857Y-74852380D01*
X131847619Y-74995238D01*
X131752380Y-75090476D01*
X131657142Y-75138095D01*
X132847619Y-74852380D02*
X132942857Y-74852380D01*
X133038095Y-74900000D01*
X133085714Y-74947619D01*
X133133333Y-75042857D01*
X133180952Y-75233333D01*
X133180952Y-75471428D01*
X133133333Y-75661904D01*
X133085714Y-75757142D01*
X133038095Y-75804761D01*
X132942857Y-75852380D01*
X132847619Y-75852380D01*
X132752380Y-75804761D01*
X132704761Y-75757142D01*
X132657142Y-75661904D01*
X132609523Y-75471428D01*
X132609523Y-75233333D01*
X132657142Y-75042857D01*
X132704761Y-74947619D01*
X132752380Y-74900000D01*
X132847619Y-74852380D01*
X133609523Y-75852380D02*
X133609523Y-74852380D01*
X133942857Y-75566666D01*
X134276190Y-74852380D01*
X134276190Y-75852380D01*
X134942857Y-74852380D02*
X135038095Y-74852380D01*
X135133333Y-74900000D01*
X135180952Y-74947619D01*
X135228571Y-75042857D01*
X135276190Y-75233333D01*
X135276190Y-75471428D01*
X135228571Y-75661904D01*
X135180952Y-75757142D01*
X135133333Y-75804761D01*
X135038095Y-75852380D01*
X134942857Y-75852380D01*
X134847619Y-75804761D01*
X134800000Y-75757142D01*
X134752380Y-75661904D01*
X134704761Y-75471428D01*
X134704761Y-75233333D01*
X134752380Y-75042857D01*
X134800000Y-74947619D01*
X134847619Y-74900000D01*
X134942857Y-74852380D01*
X135657142Y-74947619D02*
X135704761Y-74900000D01*
X135800000Y-74852380D01*
X136038095Y-74852380D01*
X136133333Y-74900000D01*
X136180952Y-74947619D01*
X136228571Y-75042857D01*
X136228571Y-75138095D01*
X136180952Y-75280952D01*
X135609523Y-75852380D01*
X136228571Y-75852380D01*
X136609523Y-75804761D02*
X136752380Y-75852380D01*
X136990476Y-75852380D01*
X137085714Y-75804761D01*
X137133333Y-75757142D01*
X137180952Y-75661904D01*
X137180952Y-75566666D01*
X137133333Y-75471428D01*
X137085714Y-75423809D01*
X136990476Y-75376190D01*
X136800000Y-75328571D01*
X136704761Y-75280952D01*
X136657142Y-75233333D01*
X136609523Y-75138095D01*
X136609523Y-75042857D01*
X136657142Y-74947619D01*
X136704761Y-74900000D01*
X136800000Y-74852380D01*
X137038095Y-74852380D01*
X137180952Y-74900000D01*
X138180952Y-75757142D02*
X138133333Y-75804761D01*
X137990476Y-75852380D01*
X137895238Y-75852380D01*
X137752380Y-75804761D01*
X137657142Y-75709523D01*
X137609523Y-75614285D01*
X137561904Y-75423809D01*
X137561904Y-75280952D01*
X137609523Y-75090476D01*
X137657142Y-74995238D01*
X137752380Y-74900000D01*
X137895238Y-74852380D01*
X137990476Y-74852380D01*
X138133333Y-74900000D01*
X138180952Y-74947619D01*
X138609523Y-75328571D02*
X138942857Y-75328571D01*
X139085714Y-75852380D02*
X138609523Y-75852380D01*
X138609523Y-74852380D01*
X139085714Y-74852380D01*
X140038095Y-75852380D02*
X139466666Y-75852380D01*
X139752380Y-75852380D02*
X139752380Y-74852380D01*
X139657142Y-74995238D01*
X139561904Y-75090476D01*
X139466666Y-75138095D01*
X140895238Y-75185714D02*
X140895238Y-75852380D01*
X140657142Y-74804761D02*
X140419047Y-75519047D01*
X141038095Y-75519047D01*
X141847619Y-75185714D02*
X141847619Y-75852380D01*
X141609523Y-74804761D02*
X141371428Y-75519047D01*
X141990476Y-75519047D01*
X123833333Y-108957142D02*
X123785714Y-109004761D01*
X123642857Y-109052380D01*
X123547619Y-109052380D01*
X123404761Y-109004761D01*
X123309523Y-108909523D01*
X123261904Y-108814285D01*
X123214285Y-108623809D01*
X123214285Y-108480952D01*
X123261904Y-108290476D01*
X123309523Y-108195238D01*
X123404761Y-108100000D01*
X123547619Y-108052380D01*
X123642857Y-108052380D01*
X123785714Y-108100000D01*
X123833333Y-108147619D01*
X124404761Y-108480952D02*
X124309523Y-108433333D01*
X124261904Y-108385714D01*
X124214285Y-108290476D01*
X124214285Y-108242857D01*
X124261904Y-108147619D01*
X124309523Y-108100000D01*
X124404761Y-108052380D01*
X124595238Y-108052380D01*
X124690476Y-108100000D01*
X124738095Y-108147619D01*
X124785714Y-108242857D01*
X124785714Y-108290476D01*
X124738095Y-108385714D01*
X124690476Y-108433333D01*
X124595238Y-108480952D01*
X124404761Y-108480952D01*
X124309523Y-108528571D01*
X124261904Y-108576190D01*
X124214285Y-108671428D01*
X124214285Y-108861904D01*
X124261904Y-108957142D01*
X124309523Y-109004761D01*
X124404761Y-109052380D01*
X124595238Y-109052380D01*
X124690476Y-109004761D01*
X124738095Y-108957142D01*
X124785714Y-108861904D01*
X124785714Y-108671428D01*
X124738095Y-108576190D01*
X124690476Y-108528571D01*
X124595238Y-108480952D01*
M02*
