M48
; DRILL file {KiCad (5.1.5-0-10_14)} date Montag, 09. November 2020 um 20:12:30
; FORMAT={-:-/ absolute / metric / decimal}
; #@! TF.CreationDate,2020-11-09T20:12:30+01:00
; #@! TF.GenerationSoftware,Kicad,Pcbnew,(5.1.5-0-10_14)
; #@! TF.FileFunction,Plated,1,2,PTH
FMAT,2
METRIC
T1C0.200
T2C0.300
T3C0.400
T4C0.800
T5C1.000
T6C1.100
T7C1.200
%
G90
G05
T1
X133.56Y-78.95
X133.56Y-80.15
X133.56Y-81.35
X133.56Y-82.55
X133.56Y-83.75
X133.56Y-84.95
X133.56Y-86.15
X134.76Y-78.95
X134.76Y-80.15
X134.76Y-81.35
X134.76Y-82.55
X134.76Y-83.75
X134.76Y-84.95
X134.76Y-86.15
X135.96Y-78.95
X135.96Y-80.15
X135.96Y-81.35
X135.96Y-82.55
X135.96Y-83.75
X135.96Y-84.95
X135.96Y-86.15
X137.16Y-78.95
X137.16Y-80.15
X137.16Y-81.35
X137.16Y-82.55
X137.16Y-83.75
X137.16Y-84.95
X137.16Y-86.15
X138.36Y-78.95
X138.36Y-80.15
X138.36Y-81.35
X138.36Y-82.55
X138.36Y-83.75
X138.36Y-84.95
X138.36Y-86.15
X139.56Y-78.95
X139.56Y-80.15
X139.56Y-81.35
X139.56Y-82.55
X139.56Y-83.75
X139.56Y-84.95
X139.56Y-86.15
X140.76Y-78.95
X140.76Y-80.15
X140.76Y-81.35
X140.76Y-82.55
X140.76Y-83.75
X140.76Y-84.95
X140.76Y-86.15
T2
X113.665Y-64.0
X115.2Y-82.8
X116.205Y-64.0
X118.4Y-62.2
X120.2Y-100.0
X123.6Y-76.4
X125.0Y-85.8
X127.8Y-91.0
X128.4Y-70.2
X130.4Y-91.4
X130.6Y-105.8
X131.4Y-112.6
X132.6Y-91.6
X135.2Y-97.2
X137.8Y-91.6
X138.0Y-97.25
X140.4Y-94.8
X140.6Y-111.6
X142.4Y-91.2
X145.8Y-89.6
X146.0Y-76.8
X146.2Y-75.0
X146.2Y-86.8
X146.6Y-89.4
X146.6Y-90.2
X147.8Y-93.6
X148.6Y-93.0
X148.6Y-97.8
X148.6Y-99.2
X157.75Y-90.45
X160.2Y-94.0
X160.4Y-113.8
X163.6Y-76.8
X163.6Y-79.0
X163.6Y-106.6
T3
X106.4Y-78.0
X106.4Y-87.6
X108.6Y-90.8
X108.825Y-81.225
X109.6Y-72.4
X109.6Y-75.0
X111.0Y-90.8
X111.0Y-101.4
X114.817Y-85.9
X115.0Y-57.8
X115.0Y-67.6
X115.2Y-75.0
X118.0Y-80.05
X120.2Y-95.4
X120.8Y-72.2
X120.8Y-75.0
X120.8Y-80.0
X129.4Y-75.8
X129.4Y-78.232
X129.4Y-81.2
X129.4Y-84.2
X129.4Y-87.249
X129.4Y-90.0
X130.6Y-73.4
X130.81Y-88.79
X131.0Y-76.2
X132.34Y-74.8
X134.0Y-90.2
X135.2Y-100.0
X135.6Y-69.0
X135.8Y-74.8
X136.2Y-112.6
X138.0Y-100.0
X138.6Y-74.8
X139.0Y-90.2
X140.0Y-73.6
X140.2Y-103.0
X140.5Y-90.3
X141.2Y-100.0
X141.4Y-74.8
X143.4Y-76.2
X143.51Y-88.89
X143.8Y-74.8
X144.0Y-100.0
X145.0Y-79.4
X145.0Y-82.4
X145.0Y-88.4
X145.4Y-96.0
X146.8Y-95.0
X147.2Y-107.0
X150.6Y-82.4
X157.35Y-99.0
X157.75Y-85.6
X159.0Y-110.0
X162.0Y-110.0
T4
X126.4Y-108.2
X126.4Y-111.7
X163.195Y-91.44
X163.195Y-96.52
X163.195Y-99.06
X163.195Y-101.6
T5
X125.73Y-63.5
X125.73Y-66.04
X125.73Y-68.58
X125.73Y-71.12
X147.32Y-113.03
X134.4Y-105.26
X134.4Y-107.8
X136.94Y-105.26
X136.94Y-107.8
X139.48Y-105.26
X139.48Y-107.8
X142.02Y-105.26
X142.02Y-107.8
X144.56Y-105.26
X144.56Y-107.8
X105.41Y-94.996
X105.41Y-97.536
X105.41Y-100.076
X105.41Y-102.616
X105.41Y-63.5
X105.41Y-66.04
X105.41Y-68.58
X105.41Y-71.12
X147.32Y-52.705
X130.54Y-58.0
X130.54Y-60.54
X133.08Y-58.0
X133.08Y-60.54
X135.62Y-58.0
X135.62Y-60.54
X138.16Y-58.0
X138.16Y-60.54
X140.7Y-58.0
X140.7Y-60.54
X143.24Y-58.0
X143.24Y-60.54
X145.78Y-58.0
X145.78Y-60.54
X148.32Y-58.0
X148.32Y-60.54
X150.86Y-58.0
X150.86Y-60.54
X153.4Y-58.0
X153.4Y-60.54
X125.73Y-94.996
X125.73Y-97.536
X125.73Y-100.076
X125.73Y-102.616
X118.11Y-113.03
X162.56Y-81.915
X162.56Y-84.455
X118.11Y-52.705
T6
X155.5Y-71.2
X162.5Y-71.2
T5
G00X152.3Y-71.6
M15
G01X152.3Y-70.8
M16
G05
G00X153.4Y-68.4
M15
G01X152.6Y-68.4
M16
G05
G00X153.4Y-74.0
M15
G01X152.6Y-74.0
M16
G05
T7
G00X161.3Y-68.3
M15
G01X160.7Y-68.3
M16
G05
G00X161.3Y-74.1
M15
G01X160.7Y-74.1
M16
G05
T0
M30
