%TF.GenerationSoftware,KiCad,Pcbnew,(5.1.5-0-10_14)*%
%TF.CreationDate,2020-11-09T20:11:24+01:00*%
%TF.ProjectId,rfreplacement,72667265-706c-4616-9365-6d656e742e6b,6.1*%
%TF.SameCoordinates,Original*%
%TF.FileFunction,Legend,Bot*%
%TF.FilePolarity,Positive*%
%FSLAX46Y46*%
G04 Gerber Fmt 4.6, Leading zero omitted, Abs format (unit mm)*
G04 Created by KiCad (PCBNEW (5.1.5-0-10_14)) date 2020-11-09 20:11:24*
%MOMM*%
%LPD*%
G04 APERTURE LIST*
%ADD10C,0.200000*%
%ADD11C,0.100000*%
%ADD12C,0.120000*%
%ADD13C,0.150000*%
G04 APERTURE END LIST*
D10*
X116542857Y-107657142D02*
X116495238Y-107704761D01*
X116447619Y-107847619D01*
X116447619Y-107942857D01*
X116495238Y-108085714D01*
X116590476Y-108180952D01*
X116685714Y-108228571D01*
X116876190Y-108276190D01*
X117019047Y-108276190D01*
X117209523Y-108228571D01*
X117304761Y-108180952D01*
X117400000Y-108085714D01*
X117447619Y-107942857D01*
X117447619Y-107847619D01*
X117400000Y-107704761D01*
X117352380Y-107657142D01*
X117447619Y-106800000D02*
X117447619Y-106990476D01*
X117400000Y-107085714D01*
X117352380Y-107133333D01*
X117209523Y-107228571D01*
X117019047Y-107276190D01*
X116638095Y-107276190D01*
X116542857Y-107228571D01*
X116495238Y-107180952D01*
X116447619Y-107085714D01*
X116447619Y-106895238D01*
X116495238Y-106800000D01*
X116542857Y-106752380D01*
X116638095Y-106704761D01*
X116876190Y-106704761D01*
X116971428Y-106752380D01*
X117019047Y-106800000D01*
X117066666Y-106895238D01*
X117066666Y-107085714D01*
X117019047Y-107180952D01*
X116971428Y-107228571D01*
X116876190Y-107276190D01*
X117114285Y-105847619D02*
X116447619Y-105847619D01*
X117495238Y-106085714D02*
X116780952Y-106323809D01*
X116780952Y-105704761D01*
X117447619Y-104704761D02*
X116447619Y-104371428D01*
X117447619Y-104038095D01*
X116447619Y-103704761D02*
X117114285Y-103704761D01*
X117447619Y-103704761D02*
X117400000Y-103752380D01*
X117352380Y-103704761D01*
X117400000Y-103657142D01*
X117447619Y-103704761D01*
X117352380Y-103704761D01*
X116447619Y-102800000D02*
X117447619Y-102800000D01*
X116495238Y-102800000D02*
X116447619Y-102895238D01*
X116447619Y-103085714D01*
X116495238Y-103180952D01*
X116542857Y-103228571D01*
X116638095Y-103276190D01*
X116923809Y-103276190D01*
X117019047Y-103228571D01*
X117066666Y-103180952D01*
X117114285Y-103085714D01*
X117114285Y-102895238D01*
X117066666Y-102800000D01*
X116495238Y-101942857D02*
X116447619Y-102038095D01*
X116447619Y-102228571D01*
X116495238Y-102323809D01*
X116590476Y-102371428D01*
X116971428Y-102371428D01*
X117066666Y-102323809D01*
X117114285Y-102228571D01*
X117114285Y-102038095D01*
X117066666Y-101942857D01*
X116971428Y-101895238D01*
X116876190Y-101895238D01*
X116780952Y-102371428D01*
X116447619Y-101323809D02*
X116495238Y-101419047D01*
X116542857Y-101466666D01*
X116638095Y-101514285D01*
X116923809Y-101514285D01*
X117019047Y-101466666D01*
X117066666Y-101419047D01*
X117114285Y-101323809D01*
X117114285Y-101180952D01*
X117066666Y-101085714D01*
X117019047Y-101038095D01*
X116923809Y-100990476D01*
X116638095Y-100990476D01*
X116542857Y-101038095D01*
X116495238Y-101085714D01*
X116447619Y-101180952D01*
X116447619Y-101323809D01*
X116971428Y-99800000D02*
X116971428Y-99466666D01*
X116447619Y-99323809D02*
X116447619Y-99800000D01*
X117447619Y-99800000D01*
X117447619Y-99323809D01*
X117114285Y-98895238D02*
X116447619Y-98895238D01*
X117019047Y-98895238D02*
X117066666Y-98847619D01*
X117114285Y-98752380D01*
X117114285Y-98609523D01*
X117066666Y-98514285D01*
X116971428Y-98466666D01*
X116447619Y-98466666D01*
X116447619Y-97990476D02*
X117447619Y-97990476D01*
X116447619Y-97561904D02*
X116971428Y-97561904D01*
X117066666Y-97609523D01*
X117114285Y-97704761D01*
X117114285Y-97847619D01*
X117066666Y-97942857D01*
X117019047Y-97990476D01*
X116447619Y-96657142D02*
X116971428Y-96657142D01*
X117066666Y-96704761D01*
X117114285Y-96800000D01*
X117114285Y-96990476D01*
X117066666Y-97085714D01*
X116495238Y-96657142D02*
X116447619Y-96752380D01*
X116447619Y-96990476D01*
X116495238Y-97085714D01*
X116590476Y-97133333D01*
X116685714Y-97133333D01*
X116780952Y-97085714D01*
X116828571Y-96990476D01*
X116828571Y-96752380D01*
X116876190Y-96657142D01*
X117114285Y-96180952D02*
X116447619Y-96180952D01*
X117019047Y-96180952D02*
X117066666Y-96133333D01*
X117114285Y-96038095D01*
X117114285Y-95895238D01*
X117066666Y-95800000D01*
X116971428Y-95752380D01*
X116447619Y-95752380D01*
X116495238Y-94847619D02*
X116447619Y-94942857D01*
X116447619Y-95133333D01*
X116495238Y-95228571D01*
X116542857Y-95276190D01*
X116638095Y-95323809D01*
X116923809Y-95323809D01*
X117019047Y-95276190D01*
X117066666Y-95228571D01*
X117114285Y-95133333D01*
X117114285Y-94942857D01*
X117066666Y-94847619D01*
X116495238Y-94038095D02*
X116447619Y-94133333D01*
X116447619Y-94323809D01*
X116495238Y-94419047D01*
X116590476Y-94466666D01*
X116971428Y-94466666D01*
X117066666Y-94419047D01*
X117114285Y-94323809D01*
X117114285Y-94133333D01*
X117066666Y-94038095D01*
X116971428Y-93990476D01*
X116876190Y-93990476D01*
X116780952Y-94466666D01*
X116447619Y-93561904D02*
X117114285Y-93561904D01*
X117019047Y-93561904D02*
X117066666Y-93514285D01*
X117114285Y-93419047D01*
X117114285Y-93276190D01*
X117066666Y-93180952D01*
X116971428Y-93133333D01*
X116447619Y-93133333D01*
X116971428Y-93133333D02*
X117066666Y-93085714D01*
X117114285Y-92990476D01*
X117114285Y-92847619D01*
X117066666Y-92752380D01*
X116971428Y-92704761D01*
X116447619Y-92704761D01*
X116495238Y-91847619D02*
X116447619Y-91942857D01*
X116447619Y-92133333D01*
X116495238Y-92228571D01*
X116590476Y-92276190D01*
X116971428Y-92276190D01*
X117066666Y-92228571D01*
X117114285Y-92133333D01*
X117114285Y-91942857D01*
X117066666Y-91847619D01*
X116971428Y-91800000D01*
X116876190Y-91800000D01*
X116780952Y-92276190D01*
X117114285Y-91371428D02*
X116447619Y-91371428D01*
X117019047Y-91371428D02*
X117066666Y-91323809D01*
X117114285Y-91228571D01*
X117114285Y-91085714D01*
X117066666Y-90990476D01*
X116971428Y-90942857D01*
X116447619Y-90942857D01*
X117114285Y-90609523D02*
X117114285Y-90228571D01*
X117447619Y-90466666D02*
X116590476Y-90466666D01*
X116495238Y-90419047D01*
X116447619Y-90323809D01*
X116447619Y-90228571D01*
X116447619Y-88561904D02*
X116923809Y-88895238D01*
X116447619Y-89133333D02*
X117447619Y-89133333D01*
X117447619Y-88752380D01*
X117400000Y-88657142D01*
X117352380Y-88609523D01*
X117257142Y-88561904D01*
X117114285Y-88561904D01*
X117019047Y-88609523D01*
X116971428Y-88657142D01*
X116923809Y-88752380D01*
X116923809Y-89133333D01*
X116495238Y-87752380D02*
X116447619Y-87847619D01*
X116447619Y-88038095D01*
X116495238Y-88133333D01*
X116590476Y-88180952D01*
X116971428Y-88180952D01*
X117066666Y-88133333D01*
X117114285Y-88038095D01*
X117114285Y-87847619D01*
X117066666Y-87752380D01*
X116971428Y-87704761D01*
X116876190Y-87704761D01*
X116780952Y-88180952D01*
X117114285Y-87371428D02*
X116447619Y-87133333D01*
X117114285Y-86895238D01*
X116542857Y-86514285D02*
X116495238Y-86466666D01*
X116447619Y-86514285D01*
X116495238Y-86561904D01*
X116542857Y-86514285D01*
X116447619Y-86514285D01*
X117447619Y-84847619D02*
X117447619Y-85038095D01*
X117400000Y-85133333D01*
X117352380Y-85180952D01*
X117209523Y-85276190D01*
X117019047Y-85323809D01*
X116638095Y-85323809D01*
X116542857Y-85276190D01*
X116495238Y-85228571D01*
X116447619Y-85133333D01*
X116447619Y-84942857D01*
X116495238Y-84847619D01*
X116542857Y-84800000D01*
X116638095Y-84752380D01*
X116876190Y-84752380D01*
X116971428Y-84800000D01*
X117019047Y-84847619D01*
X117066666Y-84942857D01*
X117066666Y-85133333D01*
X117019047Y-85228571D01*
X116971428Y-85276190D01*
X116876190Y-85323809D01*
X116542857Y-84323809D02*
X116495238Y-84276190D01*
X116447619Y-84323809D01*
X116495238Y-84371428D01*
X116542857Y-84323809D01*
X116447619Y-84323809D01*
X116447619Y-83323809D02*
X116447619Y-83895238D01*
X116447619Y-83609523D02*
X117447619Y-83609523D01*
X117304761Y-83704761D01*
X117209523Y-83800000D01*
X117161904Y-83895238D01*
X114747619Y-109109523D02*
X115747619Y-109109523D01*
X115747619Y-108871428D01*
X115700000Y-108728571D01*
X115604761Y-108633333D01*
X115509523Y-108585714D01*
X115319047Y-108538095D01*
X115176190Y-108538095D01*
X114985714Y-108585714D01*
X114890476Y-108633333D01*
X114795238Y-108728571D01*
X114747619Y-108871428D01*
X114747619Y-109109523D01*
X114795238Y-107728571D02*
X114747619Y-107823809D01*
X114747619Y-108014285D01*
X114795238Y-108109523D01*
X114890476Y-108157142D01*
X115271428Y-108157142D01*
X115366666Y-108109523D01*
X115414285Y-108014285D01*
X115414285Y-107823809D01*
X115366666Y-107728571D01*
X115271428Y-107680952D01*
X115176190Y-107680952D01*
X115080952Y-108157142D01*
X114795238Y-107300000D02*
X114747619Y-107204761D01*
X114747619Y-107014285D01*
X114795238Y-106919047D01*
X114890476Y-106871428D01*
X114938095Y-106871428D01*
X115033333Y-106919047D01*
X115080952Y-107014285D01*
X115080952Y-107157142D01*
X115128571Y-107252380D01*
X115223809Y-107300000D01*
X115271428Y-107300000D01*
X115366666Y-107252380D01*
X115414285Y-107157142D01*
X115414285Y-107014285D01*
X115366666Y-106919047D01*
X114747619Y-106442857D02*
X115414285Y-106442857D01*
X115747619Y-106442857D02*
X115700000Y-106490476D01*
X115652380Y-106442857D01*
X115700000Y-106395238D01*
X115747619Y-106442857D01*
X115652380Y-106442857D01*
X115414285Y-105538095D02*
X114604761Y-105538095D01*
X114509523Y-105585714D01*
X114461904Y-105633333D01*
X114414285Y-105728571D01*
X114414285Y-105871428D01*
X114461904Y-105966666D01*
X114795238Y-105538095D02*
X114747619Y-105633333D01*
X114747619Y-105823809D01*
X114795238Y-105919047D01*
X114842857Y-105966666D01*
X114938095Y-106014285D01*
X115223809Y-106014285D01*
X115319047Y-105966666D01*
X115366666Y-105919047D01*
X115414285Y-105823809D01*
X115414285Y-105633333D01*
X115366666Y-105538095D01*
X115414285Y-105061904D02*
X114747619Y-105061904D01*
X115319047Y-105061904D02*
X115366666Y-105014285D01*
X115414285Y-104919047D01*
X115414285Y-104776190D01*
X115366666Y-104680952D01*
X115271428Y-104633333D01*
X114747619Y-104633333D01*
X114795238Y-102966666D02*
X114747619Y-103061904D01*
X114747619Y-103252380D01*
X114795238Y-103347619D01*
X114842857Y-103395238D01*
X114938095Y-103442857D01*
X115223809Y-103442857D01*
X115319047Y-103395238D01*
X115366666Y-103347619D01*
X115414285Y-103252380D01*
X115414285Y-103061904D01*
X115366666Y-102966666D01*
X115747619Y-102347619D02*
X115747619Y-102252380D01*
X115700000Y-102157142D01*
X115652380Y-102109523D01*
X115557142Y-102061904D01*
X115366666Y-102014285D01*
X115128571Y-102014285D01*
X114938095Y-102061904D01*
X114842857Y-102109523D01*
X114795238Y-102157142D01*
X114747619Y-102252380D01*
X114747619Y-102347619D01*
X114795238Y-102442857D01*
X114842857Y-102490476D01*
X114938095Y-102538095D01*
X115128571Y-102585714D01*
X115366666Y-102585714D01*
X115557142Y-102538095D01*
X115652380Y-102490476D01*
X115700000Y-102442857D01*
X115747619Y-102347619D01*
X115414285Y-101585714D02*
X114414285Y-101585714D01*
X115366666Y-101585714D02*
X115414285Y-101490476D01*
X115414285Y-101300000D01*
X115366666Y-101204761D01*
X115319047Y-101157142D01*
X115223809Y-101109523D01*
X114938095Y-101109523D01*
X114842857Y-101157142D01*
X114795238Y-101204761D01*
X114747619Y-101300000D01*
X114747619Y-101490476D01*
X114795238Y-101585714D01*
X115414285Y-100680952D02*
X114414285Y-100680952D01*
X115366666Y-100680952D02*
X115414285Y-100585714D01*
X115414285Y-100395238D01*
X115366666Y-100300000D01*
X115319047Y-100252380D01*
X115223809Y-100204761D01*
X114938095Y-100204761D01*
X114842857Y-100252380D01*
X114795238Y-100300000D01*
X114747619Y-100395238D01*
X114747619Y-100585714D01*
X114795238Y-100680952D01*
X114795238Y-99395238D02*
X114747619Y-99490476D01*
X114747619Y-99680952D01*
X114795238Y-99776190D01*
X114890476Y-99823809D01*
X115271428Y-99823809D01*
X115366666Y-99776190D01*
X115414285Y-99680952D01*
X115414285Y-99490476D01*
X115366666Y-99395238D01*
X115271428Y-99347619D01*
X115176190Y-99347619D01*
X115080952Y-99823809D01*
X114747619Y-98919047D02*
X115414285Y-98919047D01*
X115223809Y-98919047D02*
X115319047Y-98871428D01*
X115366666Y-98823809D01*
X115414285Y-98728571D01*
X115414285Y-98633333D01*
X114747619Y-97871428D02*
X115747619Y-97871428D01*
X114795238Y-97871428D02*
X114747619Y-97966666D01*
X114747619Y-98157142D01*
X114795238Y-98252380D01*
X114842857Y-98300000D01*
X114938095Y-98347619D01*
X115223809Y-98347619D01*
X115319047Y-98300000D01*
X115366666Y-98252380D01*
X115414285Y-98157142D01*
X115414285Y-97966666D01*
X115366666Y-97871428D01*
X114747619Y-97395238D02*
X115414285Y-97395238D01*
X115223809Y-97395238D02*
X115319047Y-97347619D01*
X115366666Y-97300000D01*
X115414285Y-97204761D01*
X115414285Y-97109523D01*
X114747619Y-96347619D02*
X115271428Y-96347619D01*
X115366666Y-96395238D01*
X115414285Y-96490476D01*
X115414285Y-96680952D01*
X115366666Y-96776190D01*
X114795238Y-96347619D02*
X114747619Y-96442857D01*
X114747619Y-96680952D01*
X114795238Y-96776190D01*
X114890476Y-96823809D01*
X114985714Y-96823809D01*
X115080952Y-96776190D01*
X115128571Y-96680952D01*
X115128571Y-96442857D01*
X115176190Y-96347619D01*
X115414285Y-95442857D02*
X114604761Y-95442857D01*
X114509523Y-95490476D01*
X114461904Y-95538095D01*
X114414285Y-95633333D01*
X114414285Y-95776190D01*
X114461904Y-95871428D01*
X114795238Y-95442857D02*
X114747619Y-95538095D01*
X114747619Y-95728571D01*
X114795238Y-95823809D01*
X114842857Y-95871428D01*
X114938095Y-95919047D01*
X115223809Y-95919047D01*
X115319047Y-95871428D01*
X115366666Y-95823809D01*
X115414285Y-95728571D01*
X115414285Y-95538095D01*
X115366666Y-95442857D01*
X114747619Y-94823809D02*
X114795238Y-94919047D01*
X114842857Y-94966666D01*
X114938095Y-95014285D01*
X115223809Y-95014285D01*
X115319047Y-94966666D01*
X115366666Y-94919047D01*
X115414285Y-94823809D01*
X115414285Y-94680952D01*
X115366666Y-94585714D01*
X115319047Y-94538095D01*
X115223809Y-94490476D01*
X114938095Y-94490476D01*
X114842857Y-94538095D01*
X114795238Y-94585714D01*
X114747619Y-94680952D01*
X114747619Y-94823809D01*
X115414285Y-94061904D02*
X114747619Y-94061904D01*
X115319047Y-94061904D02*
X115366666Y-94014285D01*
X115414285Y-93919047D01*
X115414285Y-93776190D01*
X115366666Y-93680952D01*
X115271428Y-93633333D01*
X114747619Y-93633333D01*
X115795238Y-91680952D02*
X114509523Y-92538095D01*
X114747619Y-90109523D02*
X114747619Y-90585714D01*
X115747619Y-90585714D01*
X114747619Y-89347619D02*
X115271428Y-89347619D01*
X115366666Y-89395238D01*
X115414285Y-89490476D01*
X115414285Y-89680952D01*
X115366666Y-89776190D01*
X114795238Y-89347619D02*
X114747619Y-89442857D01*
X114747619Y-89680952D01*
X114795238Y-89776190D01*
X114890476Y-89823809D01*
X114985714Y-89823809D01*
X115080952Y-89776190D01*
X115128571Y-89680952D01*
X115128571Y-89442857D01*
X115176190Y-89347619D01*
X115414285Y-88966666D02*
X114747619Y-88728571D01*
X115414285Y-88490476D02*
X114747619Y-88728571D01*
X114509523Y-88823809D01*
X114461904Y-88871428D01*
X114414285Y-88966666D01*
X114747619Y-87966666D02*
X114795238Y-88061904D01*
X114842857Y-88109523D01*
X114938095Y-88157142D01*
X115223809Y-88157142D01*
X115319047Y-88109523D01*
X115366666Y-88061904D01*
X115414285Y-87966666D01*
X115414285Y-87823809D01*
X115366666Y-87728571D01*
X115319047Y-87680952D01*
X115223809Y-87633333D01*
X114938095Y-87633333D01*
X114842857Y-87680952D01*
X114795238Y-87728571D01*
X114747619Y-87823809D01*
X114747619Y-87966666D01*
X115414285Y-86776190D02*
X114747619Y-86776190D01*
X115414285Y-87204761D02*
X114890476Y-87204761D01*
X114795238Y-87157142D01*
X114747619Y-87061904D01*
X114747619Y-86919047D01*
X114795238Y-86823809D01*
X114842857Y-86776190D01*
X115414285Y-86442857D02*
X115414285Y-86061904D01*
X115747619Y-86300000D02*
X114890476Y-86300000D01*
X114795238Y-86252380D01*
X114747619Y-86157142D01*
X114747619Y-86061904D01*
X115747619Y-85109523D02*
X115747619Y-84538095D01*
X114747619Y-84823809D02*
X115747619Y-84823809D01*
X114747619Y-84204761D02*
X115747619Y-84204761D01*
X115033333Y-83871428D01*
X115747619Y-83538095D01*
X114747619Y-83538095D01*
X115747619Y-82871428D02*
X115747619Y-82680952D01*
X115700000Y-82585714D01*
X115604761Y-82490476D01*
X115414285Y-82442857D01*
X115080952Y-82442857D01*
X114890476Y-82490476D01*
X114795238Y-82585714D01*
X114747619Y-82680952D01*
X114747619Y-82871428D01*
X114795238Y-82966666D01*
X114890476Y-83061904D01*
X115080952Y-83109523D01*
X115414285Y-83109523D01*
X115604761Y-83061904D01*
X115700000Y-82966666D01*
X115747619Y-82871428D01*
X113952380Y-97514285D02*
X114000000Y-97466666D01*
X114047619Y-97371428D01*
X114047619Y-97133333D01*
X114000000Y-97038095D01*
X113952380Y-96990476D01*
X113857142Y-96942857D01*
X113761904Y-96942857D01*
X113619047Y-96990476D01*
X113047619Y-97561904D01*
X113047619Y-96942857D01*
X114047619Y-96323809D02*
X114047619Y-96228571D01*
X114000000Y-96133333D01*
X113952380Y-96085714D01*
X113857142Y-96038095D01*
X113666666Y-95990476D01*
X113428571Y-95990476D01*
X113238095Y-96038095D01*
X113142857Y-96085714D01*
X113095238Y-96133333D01*
X113047619Y-96228571D01*
X113047619Y-96323809D01*
X113095238Y-96419047D01*
X113142857Y-96466666D01*
X113238095Y-96514285D01*
X113428571Y-96561904D01*
X113666666Y-96561904D01*
X113857142Y-96514285D01*
X113952380Y-96466666D01*
X114000000Y-96419047D01*
X114047619Y-96323809D01*
X113952380Y-95609523D02*
X114000000Y-95561904D01*
X114047619Y-95466666D01*
X114047619Y-95228571D01*
X114000000Y-95133333D01*
X113952380Y-95085714D01*
X113857142Y-95038095D01*
X113761904Y-95038095D01*
X113619047Y-95085714D01*
X113047619Y-95657142D01*
X113047619Y-95038095D01*
X114047619Y-94419047D02*
X114047619Y-94323809D01*
X114000000Y-94228571D01*
X113952380Y-94180952D01*
X113857142Y-94133333D01*
X113666666Y-94085714D01*
X113428571Y-94085714D01*
X113238095Y-94133333D01*
X113142857Y-94180952D01*
X113095238Y-94228571D01*
X113047619Y-94323809D01*
X113047619Y-94419047D01*
X113095238Y-94514285D01*
X113142857Y-94561904D01*
X113238095Y-94609523D01*
X113428571Y-94657142D01*
X113666666Y-94657142D01*
X113857142Y-94609523D01*
X113952380Y-94561904D01*
X114000000Y-94514285D01*
X114047619Y-94419047D01*
D11*
X165100000Y-88900000D02*
X165100000Y-53340000D01*
X165100000Y-88900000D02*
X165100000Y-114935000D01*
X165100000Y-50800000D02*
X165100000Y-53340000D01*
X104140000Y-114300000D02*
X104140000Y-114935000D01*
X165100000Y-114935000D02*
X104140000Y-114935000D01*
X104140000Y-50800000D02*
X165100000Y-50800000D01*
X104140000Y-114300000D02*
X104140000Y-50800000D01*
D12*
X134708000Y-94350000D02*
X134708000Y-95350000D01*
X133008000Y-95350000D02*
X133008000Y-94350000D01*
X146250000Y-99900000D02*
X146250000Y-100900000D01*
X144550000Y-100900000D02*
X144550000Y-99900000D01*
X156700000Y-92350000D02*
X157700000Y-92350000D01*
X157700000Y-94050000D02*
X156700000Y-94050000D01*
X125300000Y-76050000D02*
X124300000Y-76050000D01*
X124300000Y-74350000D02*
X125300000Y-74350000D01*
X145450000Y-69700000D02*
X145450000Y-70700000D01*
X143750000Y-70700000D02*
X143750000Y-69700000D01*
X148900000Y-78525000D02*
X149900000Y-78525000D01*
X149900000Y-80225000D02*
X148900000Y-80225000D01*
X138150000Y-95300000D02*
X138150000Y-94300000D01*
X139850000Y-94300000D02*
X139850000Y-95300000D01*
X125250000Y-88050000D02*
X124250000Y-88050000D01*
X124250000Y-86350000D02*
X125250000Y-86350000D01*
X124300000Y-80350000D02*
X125300000Y-80350000D01*
X125300000Y-82050000D02*
X124300000Y-82050000D01*
X125300000Y-85050000D02*
X124300000Y-85050000D01*
X124300000Y-83350000D02*
X125300000Y-83350000D01*
X149900000Y-89129000D02*
X148900000Y-89129000D01*
X148900000Y-87429000D02*
X149900000Y-87429000D01*
X130250000Y-94300000D02*
X130250000Y-95300000D01*
X128550000Y-95300000D02*
X128550000Y-94300000D01*
X133450000Y-69700000D02*
X133450000Y-70700000D01*
X131750000Y-70700000D02*
X131750000Y-69700000D01*
X143250000Y-94300000D02*
X143250000Y-95300000D01*
X141550000Y-95300000D02*
X141550000Y-94300000D01*
X139450000Y-69700000D02*
X139450000Y-70700000D01*
X137750000Y-70700000D02*
X137750000Y-69700000D01*
X125300000Y-79050000D02*
X124300000Y-79050000D01*
X124300000Y-77350000D02*
X125300000Y-77350000D01*
X148900000Y-81550000D02*
X149900000Y-81550000D01*
X149900000Y-83250000D02*
X148900000Y-83250000D01*
X142450000Y-69700000D02*
X142450000Y-70700000D01*
X140750000Y-70700000D02*
X140750000Y-69700000D01*
X134750000Y-70700000D02*
X134750000Y-69700000D01*
X136450000Y-69700000D02*
X136450000Y-70700000D01*
X125250000Y-91050000D02*
X124250000Y-91050000D01*
X124250000Y-89350000D02*
X125250000Y-89350000D01*
X130450000Y-69700000D02*
X130450000Y-70700000D01*
X128750000Y-70700000D02*
X128750000Y-69700000D01*
X147300000Y-73700000D02*
X147300000Y-72700000D01*
X149000000Y-72700000D02*
X149000000Y-73700000D01*
X144550000Y-95300000D02*
X144550000Y-94300000D01*
X146250000Y-94300000D02*
X146250000Y-95300000D01*
X135600000Y-111720000D02*
X134400000Y-111720000D01*
X134400000Y-113480000D02*
X135600000Y-113480000D01*
X159880000Y-111800000D02*
X159880000Y-110600000D01*
X158120000Y-110600000D02*
X158120000Y-111800000D01*
X161120000Y-110600000D02*
X161120000Y-111800000D01*
X162880000Y-111800000D02*
X162880000Y-110600000D01*
X160680000Y-79900000D02*
X160680000Y-78700000D01*
X158920000Y-78700000D02*
X158920000Y-79900000D01*
X156120000Y-78696000D02*
X156120000Y-79896000D01*
X157880000Y-79896000D02*
X157880000Y-78696000D01*
X155080000Y-79896000D02*
X155080000Y-78696000D01*
X153320000Y-78696000D02*
X153320000Y-79896000D01*
X159835000Y-86200000D02*
X159835000Y-89650000D01*
X159835000Y-86200000D02*
X159835000Y-84250000D01*
X154565000Y-86200000D02*
X154565000Y-88150000D01*
X154565000Y-86200000D02*
X154565000Y-84250000D01*
D13*
X134357142Y-98157142D02*
X134404761Y-98109523D01*
X134452380Y-97966666D01*
X134452380Y-97871428D01*
X134404761Y-97728571D01*
X134309523Y-97633333D01*
X134214285Y-97585714D01*
X134023809Y-97538095D01*
X133880952Y-97538095D01*
X133690476Y-97585714D01*
X133595238Y-97633333D01*
X133500000Y-97728571D01*
X133452380Y-97871428D01*
X133452380Y-97966666D01*
X133500000Y-98109523D01*
X133547619Y-98157142D01*
X134452380Y-99109523D02*
X134452380Y-98538095D01*
X134452380Y-98823809D02*
X133452380Y-98823809D01*
X133595238Y-98728571D01*
X133690476Y-98633333D01*
X133738095Y-98538095D01*
X134452380Y-99585714D02*
X134452380Y-99776190D01*
X134404761Y-99871428D01*
X134357142Y-99919047D01*
X134214285Y-100014285D01*
X134023809Y-100061904D01*
X133642857Y-100061904D01*
X133547619Y-100014285D01*
X133500000Y-99966666D01*
X133452380Y-99871428D01*
X133452380Y-99680952D01*
X133500000Y-99585714D01*
X133547619Y-99538095D01*
X133642857Y-99490476D01*
X133880952Y-99490476D01*
X133976190Y-99538095D01*
X134023809Y-99585714D01*
X134071428Y-99680952D01*
X134071428Y-99871428D01*
X134023809Y-99966666D01*
X133976190Y-100014285D01*
X133880952Y-100061904D01*
X147557142Y-100033333D02*
X147604761Y-99985714D01*
X147652380Y-99842857D01*
X147652380Y-99747619D01*
X147604761Y-99604761D01*
X147509523Y-99509523D01*
X147414285Y-99461904D01*
X147223809Y-99414285D01*
X147080952Y-99414285D01*
X146890476Y-99461904D01*
X146795238Y-99509523D01*
X146700000Y-99604761D01*
X146652380Y-99747619D01*
X146652380Y-99842857D01*
X146700000Y-99985714D01*
X146747619Y-100033333D01*
X146652380Y-100890476D02*
X146652380Y-100700000D01*
X146700000Y-100604761D01*
X146747619Y-100557142D01*
X146890476Y-100461904D01*
X147080952Y-100414285D01*
X147461904Y-100414285D01*
X147557142Y-100461904D01*
X147604761Y-100509523D01*
X147652380Y-100604761D01*
X147652380Y-100795238D01*
X147604761Y-100890476D01*
X147557142Y-100938095D01*
X147461904Y-100985714D01*
X147223809Y-100985714D01*
X147128571Y-100938095D01*
X147080952Y-100890476D01*
X147033333Y-100795238D01*
X147033333Y-100604761D01*
X147080952Y-100509523D01*
X147128571Y-100461904D01*
X147223809Y-100414285D01*
X157366666Y-95307142D02*
X157414285Y-95354761D01*
X157557142Y-95402380D01*
X157652380Y-95402380D01*
X157795238Y-95354761D01*
X157890476Y-95259523D01*
X157938095Y-95164285D01*
X157985714Y-94973809D01*
X157985714Y-94830952D01*
X157938095Y-94640476D01*
X157890476Y-94545238D01*
X157795238Y-94450000D01*
X157652380Y-94402380D01*
X157557142Y-94402380D01*
X157414285Y-94450000D01*
X157366666Y-94497619D01*
X157033333Y-94402380D02*
X156366666Y-94402380D01*
X156795238Y-95402380D01*
X121642857Y-75557142D02*
X121690476Y-75604761D01*
X121833333Y-75652380D01*
X121928571Y-75652380D01*
X122071428Y-75604761D01*
X122166666Y-75509523D01*
X122214285Y-75414285D01*
X122261904Y-75223809D01*
X122261904Y-75080952D01*
X122214285Y-74890476D01*
X122166666Y-74795238D01*
X122071428Y-74700000D01*
X121928571Y-74652380D01*
X121833333Y-74652380D01*
X121690476Y-74700000D01*
X121642857Y-74747619D01*
X120690476Y-75652380D02*
X121261904Y-75652380D01*
X120976190Y-75652380D02*
X120976190Y-74652380D01*
X121071428Y-74795238D01*
X121166666Y-74890476D01*
X121261904Y-74938095D01*
X119738095Y-75652380D02*
X120309523Y-75652380D01*
X120023809Y-75652380D02*
X120023809Y-74652380D01*
X120119047Y-74795238D01*
X120214285Y-74890476D01*
X120309523Y-74938095D01*
X144957142Y-65557142D02*
X145004761Y-65509523D01*
X145052380Y-65366666D01*
X145052380Y-65271428D01*
X145004761Y-65128571D01*
X144909523Y-65033333D01*
X144814285Y-64985714D01*
X144623809Y-64938095D01*
X144480952Y-64938095D01*
X144290476Y-64985714D01*
X144195238Y-65033333D01*
X144100000Y-65128571D01*
X144052380Y-65271428D01*
X144052380Y-65366666D01*
X144100000Y-65509523D01*
X144147619Y-65557142D01*
X145052380Y-66509523D02*
X145052380Y-65938095D01*
X145052380Y-66223809D02*
X144052380Y-66223809D01*
X144195238Y-66128571D01*
X144290476Y-66033333D01*
X144338095Y-65938095D01*
X144147619Y-66890476D02*
X144100000Y-66938095D01*
X144052380Y-67033333D01*
X144052380Y-67271428D01*
X144100000Y-67366666D01*
X144147619Y-67414285D01*
X144242857Y-67461904D01*
X144338095Y-67461904D01*
X144480952Y-67414285D01*
X145052380Y-66842857D01*
X145052380Y-67461904D01*
X150042857Y-78157142D02*
X150090476Y-78204761D01*
X150233333Y-78252380D01*
X150328571Y-78252380D01*
X150471428Y-78204761D01*
X150566666Y-78109523D01*
X150614285Y-78014285D01*
X150661904Y-77823809D01*
X150661904Y-77680952D01*
X150614285Y-77490476D01*
X150566666Y-77395238D01*
X150471428Y-77300000D01*
X150328571Y-77252380D01*
X150233333Y-77252380D01*
X150090476Y-77300000D01*
X150042857Y-77347619D01*
X149090476Y-78252380D02*
X149661904Y-78252380D01*
X149376190Y-78252380D02*
X149376190Y-77252380D01*
X149471428Y-77395238D01*
X149566666Y-77490476D01*
X149661904Y-77538095D01*
X148757142Y-77252380D02*
X148138095Y-77252380D01*
X148471428Y-77633333D01*
X148328571Y-77633333D01*
X148233333Y-77680952D01*
X148185714Y-77728571D01*
X148138095Y-77823809D01*
X148138095Y-78061904D01*
X148185714Y-78157142D01*
X148233333Y-78204761D01*
X148328571Y-78252380D01*
X148614285Y-78252380D01*
X148709523Y-78204761D01*
X148757142Y-78157142D01*
X139357142Y-97957142D02*
X139404761Y-97909523D01*
X139452380Y-97766666D01*
X139452380Y-97671428D01*
X139404761Y-97528571D01*
X139309523Y-97433333D01*
X139214285Y-97385714D01*
X139023809Y-97338095D01*
X138880952Y-97338095D01*
X138690476Y-97385714D01*
X138595238Y-97433333D01*
X138500000Y-97528571D01*
X138452380Y-97671428D01*
X138452380Y-97766666D01*
X138500000Y-97909523D01*
X138547619Y-97957142D01*
X139452380Y-98909523D02*
X139452380Y-98338095D01*
X139452380Y-98623809D02*
X138452380Y-98623809D01*
X138595238Y-98528571D01*
X138690476Y-98433333D01*
X138738095Y-98338095D01*
X138785714Y-99766666D02*
X139452380Y-99766666D01*
X138404761Y-99528571D02*
X139119047Y-99290476D01*
X139119047Y-99909523D01*
X121642857Y-87557142D02*
X121690476Y-87604761D01*
X121833333Y-87652380D01*
X121928571Y-87652380D01*
X122071428Y-87604761D01*
X122166666Y-87509523D01*
X122214285Y-87414285D01*
X122261904Y-87223809D01*
X122261904Y-87080952D01*
X122214285Y-86890476D01*
X122166666Y-86795238D01*
X122071428Y-86700000D01*
X121928571Y-86652380D01*
X121833333Y-86652380D01*
X121690476Y-86700000D01*
X121642857Y-86747619D01*
X120690476Y-87652380D02*
X121261904Y-87652380D01*
X120976190Y-87652380D02*
X120976190Y-86652380D01*
X121071428Y-86795238D01*
X121166666Y-86890476D01*
X121261904Y-86938095D01*
X119785714Y-86652380D02*
X120261904Y-86652380D01*
X120309523Y-87128571D01*
X120261904Y-87080952D01*
X120166666Y-87033333D01*
X119928571Y-87033333D01*
X119833333Y-87080952D01*
X119785714Y-87128571D01*
X119738095Y-87223809D01*
X119738095Y-87461904D01*
X119785714Y-87557142D01*
X119833333Y-87604761D01*
X119928571Y-87652380D01*
X120166666Y-87652380D01*
X120261904Y-87604761D01*
X120309523Y-87557142D01*
X121642857Y-81557142D02*
X121690476Y-81604761D01*
X121833333Y-81652380D01*
X121928571Y-81652380D01*
X122071428Y-81604761D01*
X122166666Y-81509523D01*
X122214285Y-81414285D01*
X122261904Y-81223809D01*
X122261904Y-81080952D01*
X122214285Y-80890476D01*
X122166666Y-80795238D01*
X122071428Y-80700000D01*
X121928571Y-80652380D01*
X121833333Y-80652380D01*
X121690476Y-80700000D01*
X121642857Y-80747619D01*
X120690476Y-81652380D02*
X121261904Y-81652380D01*
X120976190Y-81652380D02*
X120976190Y-80652380D01*
X121071428Y-80795238D01*
X121166666Y-80890476D01*
X121261904Y-80938095D01*
X119833333Y-80652380D02*
X120023809Y-80652380D01*
X120119047Y-80700000D01*
X120166666Y-80747619D01*
X120261904Y-80890476D01*
X120309523Y-81080952D01*
X120309523Y-81461904D01*
X120261904Y-81557142D01*
X120214285Y-81604761D01*
X120119047Y-81652380D01*
X119928571Y-81652380D01*
X119833333Y-81604761D01*
X119785714Y-81557142D01*
X119738095Y-81461904D01*
X119738095Y-81223809D01*
X119785714Y-81128571D01*
X119833333Y-81080952D01*
X119928571Y-81033333D01*
X120119047Y-81033333D01*
X120214285Y-81080952D01*
X120261904Y-81128571D01*
X120309523Y-81223809D01*
X121642857Y-84557142D02*
X121690476Y-84604761D01*
X121833333Y-84652380D01*
X121928571Y-84652380D01*
X122071428Y-84604761D01*
X122166666Y-84509523D01*
X122214285Y-84414285D01*
X122261904Y-84223809D01*
X122261904Y-84080952D01*
X122214285Y-83890476D01*
X122166666Y-83795238D01*
X122071428Y-83700000D01*
X121928571Y-83652380D01*
X121833333Y-83652380D01*
X121690476Y-83700000D01*
X121642857Y-83747619D01*
X120690476Y-84652380D02*
X121261904Y-84652380D01*
X120976190Y-84652380D02*
X120976190Y-83652380D01*
X121071428Y-83795238D01*
X121166666Y-83890476D01*
X121261904Y-83938095D01*
X120357142Y-83652380D02*
X119690476Y-83652380D01*
X120119047Y-84652380D01*
X150042857Y-90386142D02*
X150090476Y-90433761D01*
X150233333Y-90481380D01*
X150328571Y-90481380D01*
X150471428Y-90433761D01*
X150566666Y-90338523D01*
X150614285Y-90243285D01*
X150661904Y-90052809D01*
X150661904Y-89909952D01*
X150614285Y-89719476D01*
X150566666Y-89624238D01*
X150471428Y-89529000D01*
X150328571Y-89481380D01*
X150233333Y-89481380D01*
X150090476Y-89529000D01*
X150042857Y-89576619D01*
X149090476Y-90481380D02*
X149661904Y-90481380D01*
X149376190Y-90481380D02*
X149376190Y-89481380D01*
X149471428Y-89624238D01*
X149566666Y-89719476D01*
X149661904Y-89767095D01*
X148519047Y-89909952D02*
X148614285Y-89862333D01*
X148661904Y-89814714D01*
X148709523Y-89719476D01*
X148709523Y-89671857D01*
X148661904Y-89576619D01*
X148614285Y-89529000D01*
X148519047Y-89481380D01*
X148328571Y-89481380D01*
X148233333Y-89529000D01*
X148185714Y-89576619D01*
X148138095Y-89671857D01*
X148138095Y-89719476D01*
X148185714Y-89814714D01*
X148233333Y-89862333D01*
X148328571Y-89909952D01*
X148519047Y-89909952D01*
X148614285Y-89957571D01*
X148661904Y-90005190D01*
X148709523Y-90100428D01*
X148709523Y-90290904D01*
X148661904Y-90386142D01*
X148614285Y-90433761D01*
X148519047Y-90481380D01*
X148328571Y-90481380D01*
X148233333Y-90433761D01*
X148185714Y-90386142D01*
X148138095Y-90290904D01*
X148138095Y-90100428D01*
X148185714Y-90005190D01*
X148233333Y-89957571D01*
X148328571Y-89909952D01*
X129757142Y-97957142D02*
X129804761Y-97909523D01*
X129852380Y-97766666D01*
X129852380Y-97671428D01*
X129804761Y-97528571D01*
X129709523Y-97433333D01*
X129614285Y-97385714D01*
X129423809Y-97338095D01*
X129280952Y-97338095D01*
X129090476Y-97385714D01*
X128995238Y-97433333D01*
X128900000Y-97528571D01*
X128852380Y-97671428D01*
X128852380Y-97766666D01*
X128900000Y-97909523D01*
X128947619Y-97957142D01*
X128947619Y-98338095D02*
X128900000Y-98385714D01*
X128852380Y-98480952D01*
X128852380Y-98719047D01*
X128900000Y-98814285D01*
X128947619Y-98861904D01*
X129042857Y-98909523D01*
X129138095Y-98909523D01*
X129280952Y-98861904D01*
X129852380Y-98290476D01*
X129852380Y-98909523D01*
X128852380Y-99528571D02*
X128852380Y-99623809D01*
X128900000Y-99719047D01*
X128947619Y-99766666D01*
X129042857Y-99814285D01*
X129233333Y-99861904D01*
X129471428Y-99861904D01*
X129661904Y-99814285D01*
X129757142Y-99766666D01*
X129804761Y-99719047D01*
X129852380Y-99623809D01*
X129852380Y-99528571D01*
X129804761Y-99433333D01*
X129757142Y-99385714D01*
X129661904Y-99338095D01*
X129471428Y-99290476D01*
X129233333Y-99290476D01*
X129042857Y-99338095D01*
X128947619Y-99385714D01*
X128900000Y-99433333D01*
X128852380Y-99528571D01*
X132957142Y-65757142D02*
X133004761Y-65709523D01*
X133052380Y-65566666D01*
X133052380Y-65471428D01*
X133004761Y-65328571D01*
X132909523Y-65233333D01*
X132814285Y-65185714D01*
X132623809Y-65138095D01*
X132480952Y-65138095D01*
X132290476Y-65185714D01*
X132195238Y-65233333D01*
X132100000Y-65328571D01*
X132052380Y-65471428D01*
X132052380Y-65566666D01*
X132100000Y-65709523D01*
X132147619Y-65757142D01*
X132147619Y-66138095D02*
X132100000Y-66185714D01*
X132052380Y-66280952D01*
X132052380Y-66519047D01*
X132100000Y-66614285D01*
X132147619Y-66661904D01*
X132242857Y-66709523D01*
X132338095Y-66709523D01*
X132480952Y-66661904D01*
X133052380Y-66090476D01*
X133052380Y-66709523D01*
X133052380Y-67661904D02*
X133052380Y-67090476D01*
X133052380Y-67376190D02*
X132052380Y-67376190D01*
X132195238Y-67280952D01*
X132290476Y-67185714D01*
X132338095Y-67090476D01*
X142757142Y-97957142D02*
X142804761Y-97909523D01*
X142852380Y-97766666D01*
X142852380Y-97671428D01*
X142804761Y-97528571D01*
X142709523Y-97433333D01*
X142614285Y-97385714D01*
X142423809Y-97338095D01*
X142280952Y-97338095D01*
X142090476Y-97385714D01*
X141995238Y-97433333D01*
X141900000Y-97528571D01*
X141852380Y-97671428D01*
X141852380Y-97766666D01*
X141900000Y-97909523D01*
X141947619Y-97957142D01*
X141947619Y-98338095D02*
X141900000Y-98385714D01*
X141852380Y-98480952D01*
X141852380Y-98719047D01*
X141900000Y-98814285D01*
X141947619Y-98861904D01*
X142042857Y-98909523D01*
X142138095Y-98909523D01*
X142280952Y-98861904D01*
X142852380Y-98290476D01*
X142852380Y-98909523D01*
X141947619Y-99290476D02*
X141900000Y-99338095D01*
X141852380Y-99433333D01*
X141852380Y-99671428D01*
X141900000Y-99766666D01*
X141947619Y-99814285D01*
X142042857Y-99861904D01*
X142138095Y-99861904D01*
X142280952Y-99814285D01*
X142852380Y-99242857D01*
X142852380Y-99861904D01*
X138957142Y-65557142D02*
X139004761Y-65509523D01*
X139052380Y-65366666D01*
X139052380Y-65271428D01*
X139004761Y-65128571D01*
X138909523Y-65033333D01*
X138814285Y-64985714D01*
X138623809Y-64938095D01*
X138480952Y-64938095D01*
X138290476Y-64985714D01*
X138195238Y-65033333D01*
X138100000Y-65128571D01*
X138052380Y-65271428D01*
X138052380Y-65366666D01*
X138100000Y-65509523D01*
X138147619Y-65557142D01*
X138147619Y-65938095D02*
X138100000Y-65985714D01*
X138052380Y-66080952D01*
X138052380Y-66319047D01*
X138100000Y-66414285D01*
X138147619Y-66461904D01*
X138242857Y-66509523D01*
X138338095Y-66509523D01*
X138480952Y-66461904D01*
X139052380Y-65890476D01*
X139052380Y-66509523D01*
X138052380Y-66842857D02*
X138052380Y-67461904D01*
X138433333Y-67128571D01*
X138433333Y-67271428D01*
X138480952Y-67366666D01*
X138528571Y-67414285D01*
X138623809Y-67461904D01*
X138861904Y-67461904D01*
X138957142Y-67414285D01*
X139004761Y-67366666D01*
X139052380Y-67271428D01*
X139052380Y-66985714D01*
X139004761Y-66890476D01*
X138957142Y-66842857D01*
X121642857Y-78557142D02*
X121690476Y-78604761D01*
X121833333Y-78652380D01*
X121928571Y-78652380D01*
X122071428Y-78604761D01*
X122166666Y-78509523D01*
X122214285Y-78414285D01*
X122261904Y-78223809D01*
X122261904Y-78080952D01*
X122214285Y-77890476D01*
X122166666Y-77795238D01*
X122071428Y-77700000D01*
X121928571Y-77652380D01*
X121833333Y-77652380D01*
X121690476Y-77700000D01*
X121642857Y-77747619D01*
X121261904Y-77747619D02*
X121214285Y-77700000D01*
X121119047Y-77652380D01*
X120880952Y-77652380D01*
X120785714Y-77700000D01*
X120738095Y-77747619D01*
X120690476Y-77842857D01*
X120690476Y-77938095D01*
X120738095Y-78080952D01*
X121309523Y-78652380D01*
X120690476Y-78652380D01*
X119833333Y-77985714D02*
X119833333Y-78652380D01*
X120071428Y-77604761D02*
X120309523Y-78319047D01*
X119690476Y-78319047D01*
X150042857Y-84507142D02*
X150090476Y-84554761D01*
X150233333Y-84602380D01*
X150328571Y-84602380D01*
X150471428Y-84554761D01*
X150566666Y-84459523D01*
X150614285Y-84364285D01*
X150661904Y-84173809D01*
X150661904Y-84030952D01*
X150614285Y-83840476D01*
X150566666Y-83745238D01*
X150471428Y-83650000D01*
X150328571Y-83602380D01*
X150233333Y-83602380D01*
X150090476Y-83650000D01*
X150042857Y-83697619D01*
X149661904Y-83697619D02*
X149614285Y-83650000D01*
X149519047Y-83602380D01*
X149280952Y-83602380D01*
X149185714Y-83650000D01*
X149138095Y-83697619D01*
X149090476Y-83792857D01*
X149090476Y-83888095D01*
X149138095Y-84030952D01*
X149709523Y-84602380D01*
X149090476Y-84602380D01*
X148185714Y-83602380D02*
X148661904Y-83602380D01*
X148709523Y-84078571D01*
X148661904Y-84030952D01*
X148566666Y-83983333D01*
X148328571Y-83983333D01*
X148233333Y-84030952D01*
X148185714Y-84078571D01*
X148138095Y-84173809D01*
X148138095Y-84411904D01*
X148185714Y-84507142D01*
X148233333Y-84554761D01*
X148328571Y-84602380D01*
X148566666Y-84602380D01*
X148661904Y-84554761D01*
X148709523Y-84507142D01*
X141957142Y-65557142D02*
X142004761Y-65509523D01*
X142052380Y-65366666D01*
X142052380Y-65271428D01*
X142004761Y-65128571D01*
X141909523Y-65033333D01*
X141814285Y-64985714D01*
X141623809Y-64938095D01*
X141480952Y-64938095D01*
X141290476Y-64985714D01*
X141195238Y-65033333D01*
X141100000Y-65128571D01*
X141052380Y-65271428D01*
X141052380Y-65366666D01*
X141100000Y-65509523D01*
X141147619Y-65557142D01*
X141147619Y-65938095D02*
X141100000Y-65985714D01*
X141052380Y-66080952D01*
X141052380Y-66319047D01*
X141100000Y-66414285D01*
X141147619Y-66461904D01*
X141242857Y-66509523D01*
X141338095Y-66509523D01*
X141480952Y-66461904D01*
X142052380Y-65890476D01*
X142052380Y-66509523D01*
X141052380Y-67366666D02*
X141052380Y-67176190D01*
X141100000Y-67080952D01*
X141147619Y-67033333D01*
X141290476Y-66938095D01*
X141480952Y-66890476D01*
X141861904Y-66890476D01*
X141957142Y-66938095D01*
X142004761Y-66985714D01*
X142052380Y-67080952D01*
X142052380Y-67271428D01*
X142004761Y-67366666D01*
X141957142Y-67414285D01*
X141861904Y-67461904D01*
X141623809Y-67461904D01*
X141528571Y-67414285D01*
X141480952Y-67366666D01*
X141433333Y-67271428D01*
X141433333Y-67080952D01*
X141480952Y-66985714D01*
X141528571Y-66938095D01*
X141623809Y-66890476D01*
X136157142Y-65557142D02*
X136204761Y-65509523D01*
X136252380Y-65366666D01*
X136252380Y-65271428D01*
X136204761Y-65128571D01*
X136109523Y-65033333D01*
X136014285Y-64985714D01*
X135823809Y-64938095D01*
X135680952Y-64938095D01*
X135490476Y-64985714D01*
X135395238Y-65033333D01*
X135300000Y-65128571D01*
X135252380Y-65271428D01*
X135252380Y-65366666D01*
X135300000Y-65509523D01*
X135347619Y-65557142D01*
X135347619Y-65938095D02*
X135300000Y-65985714D01*
X135252380Y-66080952D01*
X135252380Y-66319047D01*
X135300000Y-66414285D01*
X135347619Y-66461904D01*
X135442857Y-66509523D01*
X135538095Y-66509523D01*
X135680952Y-66461904D01*
X136252380Y-65890476D01*
X136252380Y-66509523D01*
X135252380Y-66842857D02*
X135252380Y-67509523D01*
X136252380Y-67080952D01*
X121442857Y-90557142D02*
X121490476Y-90604761D01*
X121633333Y-90652380D01*
X121728571Y-90652380D01*
X121871428Y-90604761D01*
X121966666Y-90509523D01*
X122014285Y-90414285D01*
X122061904Y-90223809D01*
X122061904Y-90080952D01*
X122014285Y-89890476D01*
X121966666Y-89795238D01*
X121871428Y-89700000D01*
X121728571Y-89652380D01*
X121633333Y-89652380D01*
X121490476Y-89700000D01*
X121442857Y-89747619D01*
X121109523Y-89652380D02*
X120490476Y-89652380D01*
X120823809Y-90033333D01*
X120680952Y-90033333D01*
X120585714Y-90080952D01*
X120538095Y-90128571D01*
X120490476Y-90223809D01*
X120490476Y-90461904D01*
X120538095Y-90557142D01*
X120585714Y-90604761D01*
X120680952Y-90652380D01*
X120966666Y-90652380D01*
X121061904Y-90604761D01*
X121109523Y-90557142D01*
X119538095Y-90652380D02*
X120109523Y-90652380D01*
X119823809Y-90652380D02*
X119823809Y-89652380D01*
X119919047Y-89795238D01*
X120014285Y-89890476D01*
X120109523Y-89938095D01*
X129957142Y-65557142D02*
X130004761Y-65509523D01*
X130052380Y-65366666D01*
X130052380Y-65271428D01*
X130004761Y-65128571D01*
X129909523Y-65033333D01*
X129814285Y-64985714D01*
X129623809Y-64938095D01*
X129480952Y-64938095D01*
X129290476Y-64985714D01*
X129195238Y-65033333D01*
X129100000Y-65128571D01*
X129052380Y-65271428D01*
X129052380Y-65366666D01*
X129100000Y-65509523D01*
X129147619Y-65557142D01*
X129052380Y-65890476D02*
X129052380Y-66509523D01*
X129433333Y-66176190D01*
X129433333Y-66319047D01*
X129480952Y-66414285D01*
X129528571Y-66461904D01*
X129623809Y-66509523D01*
X129861904Y-66509523D01*
X129957142Y-66461904D01*
X130004761Y-66414285D01*
X130052380Y-66319047D01*
X130052380Y-66033333D01*
X130004761Y-65938095D01*
X129957142Y-65890476D01*
X129147619Y-66890476D02*
X129100000Y-66938095D01*
X129052380Y-67033333D01*
X129052380Y-67271428D01*
X129100000Y-67366666D01*
X129147619Y-67414285D01*
X129242857Y-67461904D01*
X129338095Y-67461904D01*
X129480952Y-67414285D01*
X130052380Y-66842857D01*
X130052380Y-67461904D01*
X150257142Y-72557142D02*
X150304761Y-72509523D01*
X150352380Y-72366666D01*
X150352380Y-72271428D01*
X150304761Y-72128571D01*
X150209523Y-72033333D01*
X150114285Y-71985714D01*
X149923809Y-71938095D01*
X149780952Y-71938095D01*
X149590476Y-71985714D01*
X149495238Y-72033333D01*
X149400000Y-72128571D01*
X149352380Y-72271428D01*
X149352380Y-72366666D01*
X149400000Y-72509523D01*
X149447619Y-72557142D01*
X149352380Y-72890476D02*
X149352380Y-73509523D01*
X149733333Y-73176190D01*
X149733333Y-73319047D01*
X149780952Y-73414285D01*
X149828571Y-73461904D01*
X149923809Y-73509523D01*
X150161904Y-73509523D01*
X150257142Y-73461904D01*
X150304761Y-73414285D01*
X150352380Y-73319047D01*
X150352380Y-73033333D01*
X150304761Y-72938095D01*
X150257142Y-72890476D01*
X149352380Y-73842857D02*
X149352380Y-74461904D01*
X149733333Y-74128571D01*
X149733333Y-74271428D01*
X149780952Y-74366666D01*
X149828571Y-74414285D01*
X149923809Y-74461904D01*
X150161904Y-74461904D01*
X150257142Y-74414285D01*
X150304761Y-74366666D01*
X150352380Y-74271428D01*
X150352380Y-73985714D01*
X150304761Y-73890476D01*
X150257142Y-73842857D01*
X147557142Y-94157142D02*
X147604761Y-94109523D01*
X147652380Y-93966666D01*
X147652380Y-93871428D01*
X147604761Y-93728571D01*
X147509523Y-93633333D01*
X147414285Y-93585714D01*
X147223809Y-93538095D01*
X147080952Y-93538095D01*
X146890476Y-93585714D01*
X146795238Y-93633333D01*
X146700000Y-93728571D01*
X146652380Y-93871428D01*
X146652380Y-93966666D01*
X146700000Y-94109523D01*
X146747619Y-94157142D01*
X146652380Y-94490476D02*
X146652380Y-95109523D01*
X147033333Y-94776190D01*
X147033333Y-94919047D01*
X147080952Y-95014285D01*
X147128571Y-95061904D01*
X147223809Y-95109523D01*
X147461904Y-95109523D01*
X147557142Y-95061904D01*
X147604761Y-95014285D01*
X147652380Y-94919047D01*
X147652380Y-94633333D01*
X147604761Y-94538095D01*
X147557142Y-94490476D01*
X146985714Y-95966666D02*
X147652380Y-95966666D01*
X146604761Y-95728571D02*
X147319047Y-95490476D01*
X147319047Y-96109523D01*
X135166666Y-110952380D02*
X135642857Y-110952380D01*
X135642857Y-109952380D01*
X134309523Y-110952380D02*
X134880952Y-110952380D01*
X134595238Y-110952380D02*
X134595238Y-109952380D01*
X134690476Y-110095238D01*
X134785714Y-110190476D01*
X134880952Y-110238095D01*
X159452380Y-107433333D02*
X159452380Y-106957142D01*
X158452380Y-106957142D01*
X158547619Y-107719047D02*
X158500000Y-107766666D01*
X158452380Y-107861904D01*
X158452380Y-108100000D01*
X158500000Y-108195238D01*
X158547619Y-108242857D01*
X158642857Y-108290476D01*
X158738095Y-108290476D01*
X158880952Y-108242857D01*
X159452380Y-107671428D01*
X159452380Y-108290476D01*
X162452380Y-107433333D02*
X162452380Y-106957142D01*
X161452380Y-106957142D01*
X161452380Y-107671428D02*
X161452380Y-108290476D01*
X161833333Y-107957142D01*
X161833333Y-108100000D01*
X161880952Y-108195238D01*
X161928571Y-108242857D01*
X162023809Y-108290476D01*
X162261904Y-108290476D01*
X162357142Y-108242857D01*
X162404761Y-108195238D01*
X162452380Y-108100000D01*
X162452380Y-107814285D01*
X162404761Y-107719047D01*
X162357142Y-107671428D01*
X161852380Y-78557142D02*
X161376190Y-78223809D01*
X161852380Y-77985714D02*
X160852380Y-77985714D01*
X160852380Y-78366666D01*
X160900000Y-78461904D01*
X160947619Y-78509523D01*
X161042857Y-78557142D01*
X161185714Y-78557142D01*
X161280952Y-78509523D01*
X161328571Y-78461904D01*
X161376190Y-78366666D01*
X161376190Y-77985714D01*
X160947619Y-78938095D02*
X160900000Y-78985714D01*
X160852380Y-79080952D01*
X160852380Y-79319047D01*
X160900000Y-79414285D01*
X160947619Y-79461904D01*
X161042857Y-79509523D01*
X161138095Y-79509523D01*
X161280952Y-79461904D01*
X161852380Y-78890476D01*
X161852380Y-79509523D01*
X160852380Y-79842857D02*
X160852380Y-80509523D01*
X161852380Y-80080952D01*
X157642857Y-76852380D02*
X157976190Y-76376190D01*
X158214285Y-76852380D02*
X158214285Y-75852380D01*
X157833333Y-75852380D01*
X157738095Y-75900000D01*
X157690476Y-75947619D01*
X157642857Y-76042857D01*
X157642857Y-76185714D01*
X157690476Y-76280952D01*
X157738095Y-76328571D01*
X157833333Y-76376190D01*
X158214285Y-76376190D01*
X157261904Y-75947619D02*
X157214285Y-75900000D01*
X157119047Y-75852380D01*
X156880952Y-75852380D01*
X156785714Y-75900000D01*
X156738095Y-75947619D01*
X156690476Y-76042857D01*
X156690476Y-76138095D01*
X156738095Y-76280952D01*
X157309523Y-76852380D01*
X156690476Y-76852380D01*
X156119047Y-76280952D02*
X156214285Y-76233333D01*
X156261904Y-76185714D01*
X156309523Y-76090476D01*
X156309523Y-76042857D01*
X156261904Y-75947619D01*
X156214285Y-75900000D01*
X156119047Y-75852380D01*
X155928571Y-75852380D01*
X155833333Y-75900000D01*
X155785714Y-75947619D01*
X155738095Y-76042857D01*
X155738095Y-76090476D01*
X155785714Y-76185714D01*
X155833333Y-76233333D01*
X155928571Y-76280952D01*
X156119047Y-76280952D01*
X156214285Y-76328571D01*
X156261904Y-76376190D01*
X156309523Y-76471428D01*
X156309523Y-76661904D01*
X156261904Y-76757142D01*
X156214285Y-76804761D01*
X156119047Y-76852380D01*
X155928571Y-76852380D01*
X155833333Y-76804761D01*
X155785714Y-76757142D01*
X155738095Y-76661904D01*
X155738095Y-76471428D01*
X155785714Y-76376190D01*
X155833333Y-76328571D01*
X155928571Y-76280952D01*
X153052380Y-78653142D02*
X152576190Y-78319809D01*
X153052380Y-78081714D02*
X152052380Y-78081714D01*
X152052380Y-78462666D01*
X152100000Y-78557904D01*
X152147619Y-78605523D01*
X152242857Y-78653142D01*
X152385714Y-78653142D01*
X152480952Y-78605523D01*
X152528571Y-78557904D01*
X152576190Y-78462666D01*
X152576190Y-78081714D01*
X152147619Y-79034095D02*
X152100000Y-79081714D01*
X152052380Y-79176952D01*
X152052380Y-79415047D01*
X152100000Y-79510285D01*
X152147619Y-79557904D01*
X152242857Y-79605523D01*
X152338095Y-79605523D01*
X152480952Y-79557904D01*
X153052380Y-78986476D01*
X153052380Y-79605523D01*
X153052380Y-80081714D02*
X153052380Y-80272190D01*
X153004761Y-80367428D01*
X152957142Y-80415047D01*
X152814285Y-80510285D01*
X152623809Y-80557904D01*
X152242857Y-80557904D01*
X152147619Y-80510285D01*
X152100000Y-80462666D01*
X152052380Y-80367428D01*
X152052380Y-80176952D01*
X152100000Y-80081714D01*
X152147619Y-80034095D01*
X152242857Y-79986476D01*
X152480952Y-79986476D01*
X152576190Y-80034095D01*
X152623809Y-80081714D01*
X152671428Y-80176952D01*
X152671428Y-80367428D01*
X152623809Y-80462666D01*
X152576190Y-80510285D01*
X152480952Y-80557904D01*
X153766666Y-84614285D02*
X153766666Y-85090476D01*
X154052380Y-84519047D02*
X153052380Y-84852380D01*
X154052380Y-85185714D01*
X154052380Y-85519047D02*
X153052380Y-85519047D01*
X153766666Y-85852380D01*
X153052380Y-86185714D01*
X154052380Y-86185714D01*
X154052380Y-86661904D02*
X153052380Y-86661904D01*
X153052380Y-87042857D01*
X153100000Y-87138095D01*
X153147619Y-87185714D01*
X153242857Y-87233333D01*
X153385714Y-87233333D01*
X153480952Y-87185714D01*
X153528571Y-87138095D01*
X153576190Y-87042857D01*
X153576190Y-86661904D01*
X154052380Y-88185714D02*
X154052380Y-87614285D01*
X154052380Y-87900000D02*
X153052380Y-87900000D01*
X153195238Y-87804761D01*
X153290476Y-87709523D01*
X153338095Y-87614285D01*
M02*
